<svg width="608" height="239" viewBox="0 0 608 239" fill="none" xmlns="http://www.w3.org/2000/svg">
<g filter="url(#filter0_d_1457_355)">
<g clip-path="url(#clip0_1457_355)">
<rect x="17.9985" y="17.6289" width="570" height="200" rx="10" fill="#01C65E"/>
<g filter="url(#filter1_d_1457_355)">
<path d="M587.999 207.623C587.999 213.146 583.521 217.623 577.999 217.623H302.999H27.9985C22.4757 217.623 17.9985 213.146 17.9985 207.623V27.623C17.9985 22.1002 22.4757 17.623 27.9985 17.623H302.999H577.999C583.521 17.623 587.999 22.1002 587.999 27.623V207.623Z" fill="#FFB762"/>
<path d="M55.8228 57.5898C54.9321 57.5898 54.0884 57.7188 53.2915 57.9531C52.4946 58.1875 51.8384 58.457 51.3462 58.75C50.854 59.0547 50.3853 59.3945 49.9634 59.7695C49.5298 60.1562 49.2485 60.4258 49.1313 60.5781C49.0142 60.7305 48.9204 60.8477 48.8618 60.9414L51.1353 63.2266L51.3345 62.9805C51.4399 62.8164 51.6274 62.6172 51.897 62.3828C52.1548 62.1484 52.4712 61.9141 52.8228 61.6797C53.1743 61.4453 53.6079 61.2461 54.147 61.082C54.686 60.918 55.2368 60.8242 55.8228 60.8242C57.1353 60.8242 58.2603 61.1992 59.1978 61.9375C60.1353 62.6758 60.7681 63.5898 61.0962 64.668H53.6548V67.9023H61.0962C60.7681 69.0625 60.1587 70.0117 59.2446 70.75C58.3306 71.5 57.1938 71.8633 55.8228 71.8633C55.2134 71.8633 54.6157 71.7812 54.0532 71.6055C53.479 71.4297 53.022 71.2422 52.6821 71.0312C52.3306 70.8203 52.0024 70.5859 51.6978 70.3047C51.3813 70.0352 51.1821 69.8477 51.1001 69.7305C51.0063 69.6133 50.9478 69.5312 50.9009 69.4609L48.7329 71.7461L49.0259 72.1094C49.2017 72.332 49.4946 72.6016 49.8931 72.9297C50.2915 73.2578 50.7485 73.5859 51.2759 73.9141C51.8032 74.2422 52.4712 74.5234 53.2798 74.7578C54.0884 74.9922 54.9321 75.1094 55.8228 75.1094C58.3774 75.1094 60.5337 74.2539 62.2915 72.543C64.0493 70.832 64.9399 68.7578 64.9399 66.3438C64.9399 63.9297 64.061 61.8672 62.3149 60.1562C60.5571 58.4453 58.4009 57.5898 55.8228 57.5898ZM78.7329 62.9805H75.0181L70.811 67.7852V62.9805H67.5767V74.7461H70.811V71.8633L72.2524 70.1875L75.3696 74.7461H78.979L74.2915 68.0312L78.7329 62.9805ZM79.3188 68.8633C79.3188 70.5039 79.9399 71.9336 81.2056 73.1523C82.4595 74.3711 83.9478 74.9805 85.6704 74.9805C86.2798 74.9805 86.8657 74.8984 87.4165 74.7227C87.9673 74.5469 88.4126 74.3594 88.7524 74.1484C89.104 73.9375 89.4204 73.7031 89.7134 73.4336C90.0181 73.1641 90.2056 72.9766 90.2876 72.8594C90.3696 72.7422 90.4282 72.6602 90.4751 72.5898L88.5532 70.5508L88.2368 70.9492C88.0259 71.207 87.6743 71.4648 87.1938 71.7227C86.7134 71.9805 86.2095 72.1094 85.6704 72.1094C84.8267 72.1094 84.1001 71.793 83.479 71.1602C82.8696 70.5273 82.5532 69.7656 82.5532 68.875C82.5532 67.9844 82.8696 67.2109 83.479 66.5781C84.0884 65.9453 84.8267 65.6289 85.6704 65.6289C86.2095 65.6289 86.7134 65.7812 87.1938 66.0625C87.6743 66.3438 87.9907 66.5781 88.1313 66.7539C88.272 66.9414 88.3774 67.082 88.436 67.1875L90.4751 65.1484L90.2993 64.9023C90.1821 64.7383 89.9829 64.5273 89.7017 64.293C89.4321 64.0586 89.1157 63.8359 88.7642 63.6016C88.4126 63.3672 87.9673 63.168 87.4165 63.0039C86.8657 62.8398 86.2798 62.7461 85.6704 62.7461C83.9478 62.7461 82.4595 63.3672 81.1938 64.5859C79.9399 65.8047 79.3188 67.2344 79.3188 68.8633ZM95.8892 65.8633H100.448V74.7461H103.694V62.9805H92.6548V74.7461H95.8892V65.8633ZM113.526 74.9805C115.049 74.9805 116.362 74.3945 117.487 73.2109C118.612 72.0273 119.174 70.5742 119.174 68.8633C119.174 67.1523 118.612 65.7109 117.487 64.5273C116.362 63.3438 115.049 62.7461 113.526 62.7461C113.092 62.7461 112.682 62.8164 112.284 62.9336C111.885 63.0508 111.557 63.1914 111.311 63.3438C111.053 63.4961 110.819 63.6719 110.608 63.8594C110.397 64.0469 110.256 64.1758 110.186 64.2461C110.116 64.3164 110.069 64.375 110.045 64.4219V62.9805H106.811V79.7852H110.045V73.3047L110.409 73.7383C110.643 74.0195 111.053 74.2891 111.639 74.5703C112.225 74.8516 112.846 74.9805 113.526 74.9805ZM112.928 65.6289C113.725 65.6289 114.405 65.9336 114.967 66.543C115.53 67.1523 115.811 67.9258 115.811 68.875C115.811 69.8125 115.53 70.5977 114.967 71.207C114.405 71.8164 113.725 72.1211 112.928 72.1211C112.131 72.1211 111.452 71.8164 110.889 71.207C110.327 70.5977 110.045 69.8125 110.045 68.875C110.045 67.9258 110.327 67.1523 110.889 66.543C111.452 65.9336 112.131 65.6289 112.928 65.6289ZM132.733 69.9414L132.85 68.6289C132.85 66.9531 132.288 65.5586 131.174 64.4336C130.049 63.3086 128.655 62.7461 126.979 62.7461C125.292 62.7461 123.85 63.3555 122.655 64.5508C121.448 65.7461 120.85 67.1875 120.85 68.8633C120.85 70.5508 121.459 71.9922 122.678 73.1875C123.897 74.3828 125.362 74.9805 127.096 74.9805C127.706 74.9805 128.292 74.9102 128.866 74.7695C129.44 74.6289 129.909 74.4766 130.272 74.2891C130.624 74.1016 130.963 73.8906 131.292 73.6562C131.608 73.4219 131.819 73.2578 131.913 73.1641L132.135 72.9414L130.459 70.7852L130.12 71.1484C129.909 71.3945 129.534 71.6406 129.018 71.875C128.502 72.1094 127.94 72.2266 127.331 72.2266C126.487 72.2266 125.784 72.0156 125.233 71.5703C124.67 71.125 124.331 70.5859 124.213 69.9414H132.733ZM126.979 65.5117C127.659 65.5117 128.245 65.7227 128.713 66.1211C129.182 66.5312 129.487 67.0469 129.616 67.668H124.213C124.401 67.0352 124.741 66.5078 125.221 66.1094C125.702 65.7109 126.288 65.5117 126.979 65.5117ZM134.538 68.8633C134.538 70.5039 135.159 71.9336 136.424 73.1523C137.678 74.3711 139.167 74.9805 140.889 74.9805C141.499 74.9805 142.084 74.8984 142.635 74.7227C143.186 74.5469 143.631 74.3594 143.971 74.1484C144.323 73.9375 144.639 73.7031 144.932 73.4336C145.237 73.1641 145.424 72.9766 145.506 72.8594C145.588 72.7422 145.647 72.6602 145.694 72.5898L143.772 70.5508L143.456 70.9492C143.245 71.207 142.893 71.4648 142.413 71.7227C141.932 71.9805 141.428 72.1094 140.889 72.1094C140.045 72.1094 139.319 71.793 138.698 71.1602C138.088 70.5273 137.772 69.7656 137.772 68.875C137.772 67.9844 138.088 67.2109 138.698 66.5781C139.307 65.9453 140.045 65.6289 140.889 65.6289C141.428 65.6289 141.932 65.7812 142.413 66.0625C142.893 66.3438 143.209 66.5781 143.35 66.7539C143.491 66.9414 143.596 67.082 143.655 67.1875L145.694 65.1484L145.518 64.9023C145.401 64.7383 145.202 64.5273 144.92 64.293C144.651 64.0586 144.334 63.8359 143.983 63.6016C143.631 63.3672 143.186 63.168 142.635 63.0039C142.084 62.8398 141.499 62.7461 140.889 62.7461C139.167 62.7461 137.678 63.3672 136.413 64.5859C135.159 65.8047 134.538 67.2344 134.538 68.8633ZM146.655 68.8633C146.655 70.5039 147.276 71.9336 148.542 73.1523C149.795 74.3711 151.284 74.9805 153.006 74.9805C153.616 74.9805 154.202 74.8984 154.752 74.7227C155.303 74.5469 155.749 74.3594 156.088 74.1484C156.44 73.9375 156.756 73.7031 157.049 73.4336C157.354 73.1641 157.542 72.9766 157.624 72.8594C157.706 72.7422 157.764 72.6602 157.811 72.5898L155.889 70.5508L155.573 70.9492C155.362 71.207 155.01 71.4648 154.53 71.7227C154.049 71.9805 153.545 72.1094 153.006 72.1094C152.163 72.1094 151.436 71.793 150.815 71.1602C150.206 70.5273 149.889 69.7656 149.889 68.875C149.889 67.9844 150.206 67.2109 150.815 66.5781C151.424 65.9453 152.163 65.6289 153.006 65.6289C153.545 65.6289 154.049 65.7812 154.53 66.0625C155.01 66.3438 155.327 66.5781 155.467 66.7539C155.608 66.9414 155.713 67.082 155.772 67.1875L157.811 65.1484L157.635 64.9023C157.518 64.7383 157.319 64.5273 157.038 64.293C156.768 64.0586 156.452 63.8359 156.1 63.6016C155.749 63.3672 155.303 63.168 154.752 63.0039C154.202 62.8398 153.616 62.7461 153.006 62.7461C151.284 62.7461 149.795 63.3672 148.53 64.5859C147.276 65.8047 146.655 67.2344 146.655 68.8633ZM163.354 71.8633V77.5117H166.588V74.7461H173.315V77.5117H176.549V71.8633H174.991V62.9805H165.991V66.2266C165.991 66.9648 165.92 67.668 165.78 68.3359C165.639 68.9922 165.487 69.5312 165.323 69.9297C165.159 70.3281 164.959 70.7031 164.737 71.043C164.514 71.3711 164.362 71.582 164.268 71.6758C164.174 71.7578 164.116 71.8281 164.069 71.875L163.354 71.8633ZM168.991 65.875H171.756V71.875H167.432L167.842 71.2539C168.1 70.832 168.346 70.1875 168.604 69.3086C168.862 68.4297 168.991 67.5273 168.991 66.6016V65.875ZM181.354 68.875C181.354 67.9961 181.635 67.2578 182.209 66.6484C182.772 66.0508 183.452 65.7461 184.237 65.7461C185.01 65.7461 185.69 66.0508 186.264 66.6484C186.827 67.2578 187.12 67.9961 187.12 68.875C187.12 69.7539 186.827 70.4922 186.264 71.0898C185.69 71.6875 185.01 71.9805 184.237 71.9805C183.452 71.9805 182.772 71.6875 182.209 71.0898C181.635 70.4922 181.354 69.7539 181.354 68.875ZM190.471 68.8633C190.471 67.2344 189.85 65.8047 188.608 64.5859C187.366 63.3672 185.913 62.7578 184.237 62.7578C182.549 62.7578 181.096 63.3672 179.854 64.5859C178.612 65.8047 177.991 67.2344 177.991 68.8633C177.991 70.5039 178.612 71.9336 179.854 73.1523C181.096 74.3711 182.549 74.9805 184.237 74.9805C185.913 74.9805 187.366 74.3711 188.608 73.1523C189.85 71.9336 190.471 70.5039 190.471 68.8633ZM192.147 68.8633C192.147 70.5039 192.768 71.9336 194.034 73.1523C195.288 74.3711 196.776 74.9805 198.499 74.9805C199.108 74.9805 199.694 74.8984 200.245 74.7227C200.795 74.5469 201.241 74.3594 201.581 74.1484C201.932 73.9375 202.249 73.7031 202.542 73.4336C202.846 73.1641 203.034 72.9766 203.116 72.8594C203.198 72.7422 203.256 72.6602 203.303 72.5898L201.381 70.5508L201.065 70.9492C200.854 71.207 200.502 71.4648 200.022 71.7227C199.542 71.9805 199.038 72.1094 198.499 72.1094C197.655 72.1094 196.928 71.793 196.307 71.1602C195.698 70.5273 195.381 69.7656 195.381 68.875C195.381 67.9844 195.698 67.2109 196.307 66.5781C196.917 65.9453 197.655 65.6289 198.499 65.6289C199.038 65.6289 199.542 65.7812 200.022 66.0625C200.502 66.3438 200.819 66.5781 200.959 66.7539C201.1 66.9414 201.206 67.082 201.264 67.1875L203.303 65.1484L203.127 64.9023C203.01 64.7383 202.811 64.5273 202.53 64.293C202.26 64.0586 201.944 63.8359 201.592 63.6016C201.241 63.3672 200.795 63.168 200.245 63.0039C199.694 62.8398 199.108 62.7461 198.499 62.7461C196.776 62.7461 195.288 63.3672 194.022 64.5859C192.768 65.8047 192.147 67.2344 192.147 68.8633ZM204.276 66.1094H208.002V74.7461H211.237V66.1094H214.963V62.9805H204.276V66.1094ZM223.354 74.7461H226.588V67.4219C226.588 66.0859 226.12 64.9727 225.182 64.082C224.245 63.1914 223.026 62.7461 221.549 62.7461C220.975 62.7461 220.413 62.8398 219.862 63.0039C219.323 63.168 218.877 63.3555 218.538 63.5547C218.209 63.7539 217.893 63.9766 217.612 64.2344C217.331 64.4922 217.143 64.6797 217.061 64.7852C216.979 64.8906 216.909 64.9727 216.862 65.0312L218.655 66.8242L218.924 66.543C219.112 66.332 219.417 66.1328 219.85 65.9336C220.295 65.7344 220.776 65.6289 221.303 65.6289C221.948 65.6289 222.452 65.793 222.803 66.0977C223.167 66.4141 223.342 66.8125 223.342 67.3047L219.616 67.9727C218.538 68.1719 217.682 68.5938 217.061 69.2266C216.452 69.8711 216.135 70.668 216.135 71.6289C216.135 72.5664 216.51 73.3516 217.237 74.0078C217.975 74.6641 218.924 74.9805 220.096 74.9805C220.706 74.9805 221.292 74.8516 221.854 74.5938C222.417 74.3359 222.792 74.125 222.956 73.9609C223.12 73.7969 223.249 73.668 223.342 73.5508L223.354 74.7461ZM220.94 72.3438C219.909 72.3438 219.381 71.9453 219.381 71.1484C219.381 70.4102 219.827 69.9648 220.706 69.8242L223.342 69.3438V69.707C223.342 70.5391 223.131 71.1836 222.698 71.6523C222.264 72.1211 221.678 72.3438 220.94 72.3438ZM229.717 62.9805V74.7461H235.834C237.112 74.7461 238.131 74.418 238.893 73.75C239.655 73.0938 240.042 72.2617 240.042 71.2656C240.042 70.8906 239.971 70.5391 239.831 70.2109C239.69 69.8945 239.538 69.6484 239.374 69.4609C239.209 69.2734 239.01 69.1094 238.788 68.9688C238.553 68.8281 238.401 68.7344 238.319 68.6992C238.225 68.6758 238.167 68.6523 238.12 68.6289L238.471 68.4062C238.706 68.2891 238.952 68.0195 239.198 67.6211C239.432 67.2227 239.561 66.7656 239.561 66.2266C239.561 65.3477 239.186 64.5859 238.459 63.9414C237.721 63.3086 236.772 62.9805 235.6 62.9805H229.717ZM235.6 69.707C235.963 69.707 236.256 69.8242 236.467 70.0469C236.678 70.2695 236.795 70.5508 236.795 70.9023C236.795 71.2539 236.678 71.5469 236.467 71.7695C236.256 72.0039 235.963 72.1094 235.6 72.1094H232.952V69.707H235.6ZM236.315 66.5898C236.315 67.2344 235.987 67.5508 235.354 67.5508H232.952V65.6289H235.354C235.987 65.6289 236.315 65.957 236.315 66.5898ZM253.6 62.9805H249.885L245.678 67.7852V62.9805H242.444V74.7461H245.678V71.8633L247.12 70.1875L250.237 74.7461H253.846L249.159 68.0312L253.6 62.9805ZM261.885 74.7461H265.12V67.4219C265.12 66.0859 264.651 64.9727 263.713 64.082C262.776 63.1914 261.557 62.7461 260.081 62.7461C259.506 62.7461 258.944 62.8398 258.393 63.0039C257.854 63.168 257.409 63.3555 257.069 63.5547C256.741 63.7539 256.424 63.9766 256.143 64.2344C255.862 64.4922 255.674 64.6797 255.592 64.7852C255.51 64.8906 255.44 64.9727 255.393 65.0312L257.186 66.8242L257.456 66.543C257.643 66.332 257.948 66.1328 258.381 65.9336C258.827 65.7344 259.307 65.6289 259.834 65.6289C260.479 65.6289 260.983 65.793 261.334 66.0977C261.698 66.4141 261.874 66.8125 261.874 67.3047L258.147 67.9727C257.069 68.1719 256.213 68.5938 255.592 69.2266C254.983 69.8711 254.667 70.668 254.667 71.6289C254.667 72.5664 255.042 73.3516 255.768 74.0078C256.506 74.6641 257.456 74.9805 258.627 74.9805C259.237 74.9805 259.823 74.8516 260.385 74.5938C260.948 74.3359 261.323 74.125 261.487 73.9609C261.651 73.7969 261.78 73.668 261.874 73.5508L261.885 74.7461ZM259.471 72.3438C258.44 72.3438 257.913 71.9453 257.913 71.1484C257.913 70.4102 258.358 69.9648 259.237 69.8242L261.874 69.3438V69.707C261.874 70.5391 261.663 71.1836 261.229 71.6523C260.795 72.1211 260.209 72.3438 259.471 72.3438ZM57.7329 115.227C57.7329 114.289 57.311 113.469 56.479 112.777C55.647 112.098 54.5454 111.746 53.1743 111.746C52.6001 111.746 52.0493 111.816 51.5103 111.957C50.9712 112.098 50.5376 112.25 50.2212 112.414C49.8931 112.578 49.6001 112.777 49.3188 113C49.0376 113.223 48.8618 113.375 48.7798 113.469C48.6978 113.562 48.6392 113.621 48.6157 113.668L50.4204 115.461L50.7251 115.203C50.936 115.016 51.2407 114.828 51.6392 114.652C52.0376 114.477 52.436 114.383 52.8228 114.383C53.854 114.395 54.3813 114.793 54.3813 115.59C54.3813 115.918 54.2407 116.176 53.9829 116.375C53.7251 116.574 53.3384 116.668 52.8228 116.668H51.6157V118.824H52.8228C54.0884 118.836 54.7329 119.234 54.7329 120.031C54.7329 120.418 54.5688 120.734 54.2407 120.98C53.9126 121.227 53.4438 121.344 52.8228 121.344C52.2837 121.344 51.7798 121.227 51.2993 120.98C50.8188 120.734 50.5024 120.535 50.3618 120.395C50.2212 120.254 50.1157 120.125 50.0571 120.031L48.2524 121.824L48.4517 122.07C48.5571 122.211 48.7446 122.387 49.0259 122.598C49.2954 122.809 49.6118 123.008 49.9751 123.219C50.3501 123.43 50.8188 123.617 51.3813 123.758C51.9438 123.91 52.5415 123.98 53.1626 123.98C54.7681 123.98 56.0103 123.652 56.8892 122.973C57.7681 122.293 58.2017 121.473 58.2017 120.512C58.2017 120.078 58.1196 119.68 57.9438 119.328C57.7681 118.977 57.5806 118.707 57.3696 118.508C57.1587 118.309 56.9243 118.133 56.6431 117.992C56.3735 117.852 56.186 117.758 56.0688 117.711C55.9634 117.676 55.8813 117.652 55.811 117.641L55.9985 117.57C56.1274 117.535 56.2915 117.453 56.4907 117.336C56.6782 117.219 56.8774 117.066 57.0649 116.902C57.2524 116.738 57.4165 116.504 57.5454 116.211C57.6626 115.906 57.7329 115.578 57.7329 115.227ZM67.0962 123.746H70.3306V116.422C70.3306 115.086 69.8618 113.973 68.9243 113.082C67.9868 112.191 66.7681 111.746 65.2915 111.746C64.7173 111.746 64.1548 111.84 63.604 112.004C63.0649 112.168 62.6196 112.355 62.2798 112.555C61.9517 112.754 61.6353 112.977 61.354 113.234C61.0728 113.492 60.8853 113.68 60.8032 113.785C60.7212 113.891 60.6509 113.973 60.604 114.031L62.397 115.824L62.6665 115.543C62.854 115.332 63.1587 115.133 63.5923 114.934C64.0376 114.734 64.5181 114.629 65.0454 114.629C65.6899 114.629 66.1938 114.793 66.5454 115.098C66.9087 115.414 67.0845 115.812 67.0845 116.305L63.3579 116.973C62.2798 117.172 61.4243 117.594 60.8032 118.227C60.1938 118.871 59.8774 119.668 59.8774 120.629C59.8774 121.566 60.2524 122.352 60.979 123.008C61.7173 123.664 62.6665 123.98 63.8384 123.98C64.4478 123.98 65.0337 123.852 65.5962 123.594C66.1587 123.336 66.5337 123.125 66.6978 122.961C66.8618 122.797 66.9907 122.668 67.0845 122.551L67.0962 123.746ZM64.6821 121.344C63.6509 121.344 63.1235 120.945 63.1235 120.148C63.1235 119.41 63.5688 118.965 64.4478 118.824L67.0845 118.344V118.707C67.0845 119.539 66.8735 120.184 66.4399 120.652C66.0063 121.121 65.4204 121.344 64.6821 121.344Z" fill="white"/>
<path d="M97.2778 123.746V118.701H86.4849C86.9771 117.928 87.7153 117.137 88.6997 116.363C89.6665 115.59 90.6157 114.887 91.5474 114.271C92.479 113.656 93.3931 112.988 94.2896 112.25C95.1685 111.512 95.8892 110.633 96.4517 109.578C96.9966 108.541 97.2778 107.381 97.2778 106.098C97.2778 103.83 96.4341 101.914 94.7817 100.35C93.1294 98.8027 91.02 98.0117 88.4536 98.0117C87.1353 98.0117 85.9224 98.2402 84.8325 98.6621C83.7427 99.084 82.8989 99.5586 82.3013 100.068C81.7036 100.596 81.1763 101.193 80.7192 101.879C80.2622 102.564 79.981 103.039 79.8755 103.303C79.77 103.584 79.6821 103.795 79.647 103.953L84.147 106.098L84.4282 105.342C84.6392 104.85 85.061 104.34 85.729 103.812C86.397 103.303 87.188 103.039 88.1021 103.039C89.2446 103.039 90.1235 103.338 90.7563 103.918C91.3892 104.498 91.7056 105.289 91.7056 106.291C91.7056 107.152 91.3892 107.961 90.7915 108.699C90.1938 109.438 89.438 110.088 88.5591 110.65C87.6802 111.213 86.7134 111.881 85.6763 112.672C84.6216 113.463 83.6548 114.289 82.7759 115.168C81.8794 116.047 81.1411 117.225 80.5435 118.719C79.9458 120.23 79.647 121.9 79.647 123.746H97.2778ZM120.34 123.746H125.192V106.098H120.34V113.48L120.006 113.744C119.795 113.938 119.426 114.131 118.917 114.307C118.389 114.482 117.844 114.57 117.282 114.57C116.456 114.57 115.77 114.289 115.225 113.709C114.663 113.146 114.399 112.408 114.399 111.512V106.098H109.53V111.863C109.53 114.113 110.127 115.871 111.34 117.154C112.553 118.438 114.17 119.07 116.192 119.07C117.756 119.07 119.145 118.648 120.34 117.805V123.746ZM139.588 123.746H144.44V112.76C144.44 110.756 143.737 109.086 142.331 107.75C140.924 106.414 139.096 105.746 136.881 105.746C136.02 105.746 135.176 105.887 134.35 106.133C133.542 106.379 132.874 106.66 132.364 106.959C131.872 107.258 131.397 107.592 130.975 107.979C130.553 108.365 130.272 108.646 130.149 108.805C130.026 108.963 129.92 109.086 129.85 109.174L132.54 111.863L132.944 111.441C133.225 111.125 133.682 110.826 134.333 110.527C135 110.229 135.721 110.07 136.512 110.07C137.479 110.07 138.235 110.316 138.762 110.773C139.307 111.248 139.571 111.846 139.571 112.584L133.981 113.586C132.364 113.885 131.081 114.518 130.149 115.467C129.235 116.434 128.76 117.629 128.76 119.07C128.76 120.477 129.323 121.654 130.413 122.639C131.52 123.623 132.944 124.098 134.702 124.098C135.616 124.098 136.495 123.904 137.338 123.518C138.182 123.131 138.745 122.814 138.991 122.568C139.237 122.322 139.43 122.129 139.571 121.953L139.588 123.746ZM135.967 120.143C134.42 120.143 133.629 119.545 133.629 118.35C133.629 117.242 134.297 116.574 135.616 116.363L139.571 115.643V116.188C139.571 117.436 139.254 118.402 138.604 119.105C137.954 119.809 137.075 120.143 135.967 120.143ZM148.043 114.922C148.043 117.383 148.975 119.527 150.874 121.355C152.754 123.184 154.987 124.098 157.571 124.098C158.485 124.098 159.364 123.975 160.19 123.711C161.016 123.447 161.684 123.166 162.194 122.85C162.721 122.533 163.196 122.182 163.635 121.777C164.092 121.373 164.374 121.092 164.497 120.916C164.62 120.74 164.708 120.617 164.778 120.512L161.895 117.453L161.42 118.051C161.104 118.438 160.577 118.824 159.856 119.211C159.135 119.598 158.379 119.791 157.571 119.791C156.305 119.791 155.215 119.316 154.284 118.367C153.37 117.418 152.895 116.275 152.895 114.939C152.895 113.604 153.37 112.443 154.284 111.494C155.198 110.545 156.305 110.07 157.571 110.07C158.379 110.07 159.135 110.299 159.856 110.721C160.577 111.143 161.051 111.494 161.262 111.758C161.473 112.039 161.631 112.25 161.719 112.408L164.778 109.35L164.514 108.98C164.338 108.734 164.04 108.418 163.618 108.066C163.213 107.715 162.739 107.381 162.211 107.029C161.684 106.678 161.016 106.379 160.19 106.133C159.364 105.887 158.485 105.746 157.571 105.746C154.987 105.746 152.754 106.678 150.856 108.506C148.975 110.334 148.043 112.479 148.043 114.922ZM177.768 123.746H182.62V112.76C182.62 110.756 181.917 109.086 180.51 107.75C179.104 106.414 177.276 105.746 175.061 105.746C174.2 105.746 173.356 105.887 172.53 106.133C171.721 106.379 171.053 106.66 170.543 106.959C170.051 107.258 169.577 107.592 169.155 107.979C168.733 108.365 168.452 108.646 168.329 108.805C168.206 108.963 168.1 109.086 168.03 109.174L170.719 111.863L171.124 111.441C171.405 111.125 171.862 110.826 172.512 110.527C173.18 110.229 173.901 110.07 174.692 110.07C175.659 110.07 176.415 110.316 176.942 110.773C177.487 111.248 177.75 111.846 177.75 112.584L172.161 113.586C170.543 113.885 169.26 114.518 168.329 115.467C167.415 116.434 166.94 117.629 166.94 119.07C166.94 120.477 167.502 121.654 168.592 122.639C169.7 123.623 171.124 124.098 172.881 124.098C173.795 124.098 174.674 123.904 175.518 123.518C176.362 123.131 176.924 122.814 177.17 122.568C177.417 122.322 177.61 122.129 177.75 121.953L177.768 123.746ZM174.147 120.143C172.6 120.143 171.809 119.545 171.809 118.35C171.809 117.242 172.477 116.574 173.795 116.363L177.75 115.643V116.188C177.75 117.436 177.434 118.402 176.784 119.105C176.133 119.809 175.254 120.143 174.147 120.143Z" fill="#00C65E"/>
<path opacity="0.4" d="M545.34 173.268C542.411 194.949 518.985 207.278 499.455 197.417L435.529 165.141C412.439 153.482 412.161 120.611 435.051 108.565L508.565 69.8742C531.454 57.8276 558.392 76.6675 554.929 102.3L545.34 173.268Z" fill="white"/>
<circle cx="59.6248" cy="175.735" r="11.1067" transform="rotate(-90 59.6248 175.735)" fill="#FFB762" stroke="white"/>
<path fill-rule="evenodd" clip-rule="evenodd" d="M62.5463 176.319L57.8728 180.992C57.5501 181.315 57.027 181.315 56.7043 180.992C56.3816 180.67 56.3817 180.147 56.7043 179.824L60.7936 175.735L56.7039 171.645C56.3812 171.322 56.3813 170.799 56.7039 170.476C57.0266 170.154 57.5497 170.154 57.8724 170.476L62.5273 175.131C62.5338 175.137 62.5399 175.144 62.5463 175.15C62.8282 175.433 62.8637 175.869 62.6521 176.189C62.6219 176.235 62.5866 176.278 62.5463 176.319Z" fill="white"/>
<path fill-rule="evenodd" clip-rule="evenodd" d="M378.342 98.9649C378.342 94.7558 381.755 91.3438 385.964 91.3438H472.654C476.863 91.3438 480.275 94.7558 480.275 98.9649V110.837H500.053C503.037 110.837 505.747 112.578 506.986 115.293L515.786 134.565C516.24 135.559 516.475 136.639 516.475 137.731V153.688C516.475 157.897 513.063 161.309 508.854 161.309H480.275V161.315H385.964C381.755 161.315 378.342 157.903 378.342 153.694V98.9649Z" fill="white"/>
<path d="M500.698 118.211H487.333C486.492 118.211 485.809 118.893 485.809 119.735V134.75C485.809 135.592 486.492 136.274 487.333 136.274H508.084C509.194 136.274 509.932 135.126 509.471 134.117L502.835 119.584C502.453 118.748 501.618 118.211 500.698 118.211Z" fill="#00C65E"/>
<path d="M482.813 171.934C475.517 171.934 469.603 166.019 469.603 158.724C469.603 151.428 475.517 145.514 482.813 145.514C490.109 145.514 496.023 151.428 496.023 158.724C496.023 166.019 490.109 171.934 482.813 171.934Z" fill="#00C65E"/>
<path d="M482.813 165.327C479.166 165.327 476.208 162.37 476.208 158.722C476.208 155.074 479.166 152.117 482.813 152.117C486.461 152.117 489.418 155.074 489.418 158.722C489.418 162.37 486.461 165.327 482.813 165.327Z" fill="white"/>
<path d="M412.002 171.934C404.706 171.934 398.792 166.019 398.792 158.724C398.792 151.428 404.706 145.514 412.002 145.514C419.297 145.514 425.212 151.428 425.212 158.724C425.212 166.019 419.297 171.934 412.002 171.934Z" fill="#00C65E"/>
<path d="M412.002 165.327C408.354 165.327 405.397 162.37 405.397 158.722C405.397 155.074 408.354 152.117 412.002 152.117C415.65 152.117 418.607 155.074 418.607 158.722C418.607 162.37 415.65 165.327 412.002 165.327Z" fill="white"/>
<path d="M327.456 112.697L351.773 112.697" stroke="#00C65E" stroke-width="4.57268" stroke-linecap="round"/>
<path d="M350.488 122.943L366.962 122.943" stroke="white" stroke-width="3.04845" stroke-linecap="round"/>
<path d="M307.844 135.371L347.107 135.371" stroke="#00C65E" stroke-width="4.57268" stroke-linecap="round"/>
<path d="M334.382 150.297L355.424 150.297" stroke="white" stroke-width="3.04845" stroke-linecap="round"/>
<path d="M431.516 126.329C450.381 126.329 465.674 111.036 465.674 92.1714C465.674 73.3066 450.381 58.0137 431.516 58.0137C412.651 58.0137 397.358 73.3066 397.358 92.1714C397.358 111.036 412.651 126.329 431.516 126.329Z" fill="#00C65E"/>
<path d="M431.516 121.19C447.545 121.19 460.538 108.196 460.538 92.1681C460.538 76.1399 447.545 63.1465 431.516 63.1465C415.488 63.1465 402.495 76.1399 402.495 92.1681C402.495 108.196 415.488 121.19 431.516 121.19Z" fill="white"/>
<path d="M431.516 121.545C425.706 121.543 420.027 119.82 415.198 116.591C410.368 113.363 406.604 108.775 404.381 103.407C402.159 98.0393 401.578 92.1332 402.712 86.4354C403.846 80.7377 406.644 75.5041 410.752 71.3966C414.861 67.289 420.095 64.4919 425.793 63.3589C431.491 62.226 437.397 62.808 442.764 65.0315C448.131 67.255 452.719 71.02 455.946 75.8506C459.174 80.6811 460.896 86.3602 460.896 92.1697C460.887 99.9586 457.789 107.426 452.28 112.933C446.772 118.44 439.305 121.537 431.516 121.545ZM431.516 63.5014C425.846 63.5014 420.303 65.1827 415.588 68.3329C410.874 71.483 407.199 75.9604 405.03 81.1988C402.86 86.4373 402.292 92.2015 403.398 97.7627C404.504 103.324 407.235 108.432 411.244 112.441C415.253 116.451 420.362 119.181 425.923 120.287C431.484 121.393 437.248 120.826 442.487 118.656C447.725 116.486 452.203 112.812 455.353 108.097C458.503 103.383 460.184 97.8398 460.184 92.1697C460.178 84.5672 457.156 77.2777 451.781 71.9008C446.407 66.5239 439.118 63.499 431.516 63.4898V63.5014Z" fill="white"/>
<path d="M431.107 63.998C441.836 63.998 451.206 69.8207 456.228 78.4786" stroke="#F89358" stroke-width="3.04845" stroke-linecap="round"/>
<path d="M431.498 94.5397C432.797 94.5397 433.849 93.4872 433.849 92.1888C433.849 90.8904 432.797 89.8379 431.498 89.8379C430.2 89.8379 429.147 90.8904 429.147 92.1888C429.147 93.4872 430.2 94.5397 431.498 94.5397Z" fill="#00C65E"/>
<path d="M432.651 69.1793V66.2609C432.651 65.6357 432.145 65.1289 431.519 65.1289C430.894 65.1289 430.387 65.6357 430.387 66.2609V69.1793C430.387 69.8045 430.894 70.3113 431.519 70.3113C432.145 70.3113 432.651 69.8045 432.651 69.1793Z" fill="#00C65E"/>
<path d="M432.634 118.097V115.179C432.634 114.554 432.127 114.047 431.502 114.047C430.876 114.047 430.37 114.554 430.37 115.179V118.097C430.37 118.722 430.876 119.229 431.502 119.229C432.127 119.229 432.634 118.722 432.634 118.097Z" fill="#00C65E"/>
<path d="M408.496 91.0445H405.578C404.953 91.0445 404.446 91.5514 404.446 92.1766C404.446 92.8018 404.953 93.3086 405.578 93.3086H408.496C409.121 93.3086 409.628 92.8018 409.628 92.1766C409.628 91.5514 409.121 91.0445 408.496 91.0445Z" fill="#00C65E"/>
<path d="M457.42 91.0504H454.501C453.876 91.0504 453.369 91.5572 453.369 92.1824C453.369 92.8076 453.876 93.3145 454.501 93.3145H457.42C458.045 93.3145 458.552 92.8076 458.552 92.1824C458.552 91.5572 458.045 91.0504 457.42 91.0504Z" fill="#00C65E"/>
<path d="M417.814 69.3457L419.97 73.0816C420.09 73.2893 420.356 73.3605 420.564 73.2406C420.771 73.1207 420.843 72.8551 420.723 72.6473L418.566 68.9114C418.446 68.7037 418.18 68.6325 417.973 68.7525C417.765 68.8724 417.694 69.138 417.814 69.3457Z" fill="#00C65E"/>
<path d="M408.229 79.2492L411.965 81.4062C412.173 81.5261 412.438 81.4549 412.558 81.2472C412.678 81.0395 412.607 80.7739 412.399 80.654L408.663 78.497C408.456 78.3771 408.19 78.4483 408.07 78.656C407.95 78.8637 408.021 79.1293 408.229 79.2492Z" fill="#00C65E"/>
<path d="M408.656 105.872L412.392 103.715C412.6 103.596 412.671 103.33 412.551 103.122C412.431 102.914 412.166 102.843 411.958 102.963L408.222 105.12C408.014 105.24 407.943 105.506 408.063 105.713C408.183 105.921 408.449 105.992 408.656 105.872Z" fill="#00C65E"/>
<path d="M418.94 115.819L421.097 112.066C421.217 111.857 421.145 111.591 420.937 111.471C420.728 111.351 420.462 111.423 420.342 111.632L418.185 115.385C418.065 115.593 418.137 115.86 418.345 115.98C418.554 116.1 418.82 116.028 418.94 115.819Z" fill="#00C65E"/>
<path d="M445.19 115.027L443.033 111.291C442.913 111.084 442.647 111.013 442.439 111.132C442.232 111.252 442.16 111.518 442.28 111.726L444.437 115.462C444.557 115.669 444.823 115.741 445.031 115.621C445.238 115.501 445.309 115.235 445.19 115.027Z" fill="#00C65E"/>
<path d="M454.775 105.124L451.039 102.967C450.831 102.847 450.565 102.918 450.446 103.126C450.326 103.334 450.397 103.599 450.604 103.719L454.34 105.876C454.548 105.996 454.814 105.925 454.934 105.717C455.054 105.509 454.982 105.244 454.775 105.124Z" fill="#00C65E"/>
<path d="M454.347 78.4948L450.611 80.6518C450.403 80.7717 450.332 81.0373 450.452 81.245C450.572 81.4527 450.837 81.5239 451.045 81.404L454.781 79.247C454.989 79.1271 455.06 78.8615 454.94 78.6538C454.82 78.4461 454.554 78.3749 454.347 78.4948Z" fill="#00C65E"/>
<path d="M444.442 68.9127L442.285 72.6486C442.165 72.8563 442.236 73.1219 442.444 73.2418C442.652 73.3618 442.917 73.2906 443.037 73.0829L445.194 69.347C445.314 69.1393 445.243 68.8737 445.035 68.7537C444.827 68.6338 444.562 68.705 444.442 68.9127Z" fill="#00C65E"/>
<path d="M432.952 92.1716H430.085L429.304 75.0898H433.733L432.952 92.1716Z" fill="#00C65E"/>
<path d="M436.884 74.3552C437.172 74.6432 436.968 75.1358 436.561 75.1358H426.47C426.063 75.1358 425.859 74.6432 426.147 74.3552L431.192 69.3097C431.371 69.1311 431.66 69.1311 431.839 69.3097L436.884 74.3552Z" fill="#00C65E"/>
<path d="M432.832 93.2932L432.141 92.1917L446.18 82.4311L447.708 84.8553L432.832 93.2932Z" fill="#00C65E"/>
<path d="M448.936 85.9217C448.875 86.1864 448.525 86.246 448.381 86.0162L445.425 81.3169C445.28 81.0871 445.486 80.7972 445.75 80.8573L449.58 81.7267C449.744 81.764 449.847 81.9275 449.81 82.0918L448.936 85.9217Z" fill="#00C65E"/>
</g>
</g>
</g>
<defs>
<filter id="filter0_d_1457_355" x="-0.00146484" y="0.628906" width="608" height="238" filterUnits="userSpaceOnUse" color-interpolation-filters="sRGB">
<feFlood flood-opacity="0" result="BackgroundImageFix"/>
<feColorMatrix in="SourceAlpha" type="matrix" values="0 0 0 0 0 0 0 0 0 0 0 0 0 0 0 0 0 0 127 0" result="hardAlpha"/>
<feMorphology radius="3" operator="dilate" in="SourceAlpha" result="effect1_dropShadow_1457_355"/>
<feOffset dx="1" dy="2"/>
<feGaussianBlur stdDeviation="8"/>
<feColorMatrix type="matrix" values="0 0 0 0 0.211765 0 0 0 0 0.227451 0 0 0 0 0.270588 0 0 0 0.08 0"/>
<feBlend mode="normal" in2="BackgroundImageFix" result="effect1_dropShadow_1457_355"/>
<feBlend mode="normal" in="SourceGraphic" in2="effect1_dropShadow_1457_355" result="shape"/>
</filter>
<filter id="filter1_d_1457_355" x="-0.00146484" y="0.623047" width="608" height="238.006" filterUnits="userSpaceOnUse" color-interpolation-filters="sRGB">
<feFlood flood-opacity="0" result="BackgroundImageFix"/>
<feColorMatrix in="SourceAlpha" type="matrix" values="0 0 0 0 0 0 0 0 0 0 0 0 0 0 0 0 0 0 127 0" result="hardAlpha"/>
<feMorphology radius="3" operator="dilate" in="SourceAlpha" result="effect1_dropShadow_1457_355"/>
<feOffset dx="1" dy="2"/>
<feGaussianBlur stdDeviation="8"/>
<feColorMatrix type="matrix" values="0 0 0 0 0.211765 0 0 0 0 0.227451 0 0 0 0 0.270588 0 0 0 0.08 0"/>
<feBlend mode="normal" in2="BackgroundImageFix" result="effect1_dropShadow_1457_355"/>
<feBlend mode="normal" in="SourceGraphic" in2="effect1_dropShadow_1457_355" result="shape"/>
</filter>
<clipPath id="clip0_1457_355">
<rect x="17.9985" y="17.6289" width="570" height="200" rx="10" fill="white"/>
</clipPath>
</defs>
</svg>
