<svg width="608" height="239" viewBox="0 0 608 239" fill="none" xmlns="http://www.w3.org/2000/svg">
<g filter="url(#filter0_d_1457_342)">
<g clip-path="url(#clip0_1457_342)">
<g filter="url(#filter1_d_1457_342)">
<path d="M587.999 207.621C587.999 213.144 583.521 217.621 577.999 217.621H302.999H27.9985C22.4757 217.621 17.9985 213.144 17.9985 207.621V27.6211C17.9985 22.0983 22.4757 17.6211 27.9985 17.6211H302.999H577.999C583.521 17.6211 587.999 22.0983 587.999 27.6211V207.621Z" fill="#00C65E"/>
<path d="M53.7837 57.9414H50.1743V74.7461H53.7837V69.9414L55.9399 67.5508L60.8618 74.7461H65.0571L58.3423 64.9023L64.5767 57.9414H60.3813L53.7837 65.2656V57.9414ZM77.6548 69.9414L77.772 68.6289C77.772 66.9531 77.2095 65.5586 76.0962 64.4336C74.9712 63.3086 73.5767 62.7461 71.9009 62.7461C70.2134 62.7461 68.772 63.3555 67.5767 64.5508C66.3696 65.7461 65.772 67.1875 65.772 68.8633C65.772 70.5508 66.3813 71.9922 67.6001 73.1875C68.8188 74.3828 70.2837 74.9805 72.0181 74.9805C72.6274 74.9805 73.2134 74.9102 73.7876 74.7695C74.3618 74.6289 74.8306 74.4766 75.1938 74.2891C75.5454 74.1016 75.8853 73.8906 76.2134 73.6562C76.5298 73.4219 76.7407 73.2578 76.8345 73.1641L77.0571 72.9414L75.3813 70.7852L75.0415 71.1484C74.8306 71.3945 74.4556 71.6406 73.9399 71.875C73.4243 72.1094 72.8618 72.2266 72.2524 72.2266C71.4087 72.2266 70.7056 72.0156 70.1548 71.5703C69.5923 71.125 69.2524 70.5859 69.1353 69.9414H77.6548ZM71.9009 65.5117C72.5806 65.5117 73.1665 65.7227 73.6353 66.1211C74.104 66.5312 74.4087 67.0469 74.5376 67.668H69.1353C69.3228 67.0352 69.6626 66.5078 70.1431 66.1094C70.6235 65.7109 71.2095 65.5117 71.9009 65.5117ZM80.186 74.7461H96.3813V62.9805H93.147V71.8633H89.9009V62.9805H86.6665V71.8633H83.4204V62.9805H80.186V74.7461ZM111.264 69.1094C111.264 67.5156 110.702 66.1328 109.588 64.9727C108.475 63.8125 107.198 63.2266 105.745 63.2266C105.334 63.2266 104.936 63.2969 104.549 63.4141C104.151 63.5312 103.834 63.6719 103.577 63.8242C103.319 63.9766 103.084 64.1523 102.862 64.3398C102.627 64.5273 102.487 64.6562 102.417 64.7266C102.346 64.7969 102.288 64.8555 102.264 64.9023C102.428 63.9414 102.838 63.1445 103.483 62.5C104.116 61.8555 104.948 61.4219 105.979 61.1875C107.104 60.9297 108.077 60.6602 108.874 60.3555C109.67 60.0625 110.151 59.8633 110.315 59.7578C110.479 59.6641 110.584 59.582 110.655 59.5117L109.225 57.1094L108.815 57.3203C108.534 57.4609 108.053 57.625 107.35 57.8359C106.647 58.0469 105.862 58.2461 105.018 58.4219C103.096 58.8203 101.608 59.7109 100.577 61.1055C99.5337 62.5117 99.0181 64.5742 99.0181 67.3047C99.0181 69.7539 99.5923 71.6406 100.752 72.9766C101.913 74.3125 103.459 74.9805 105.381 74.9805C107.092 74.9805 108.499 74.418 109.6 73.2812C110.702 72.1562 111.264 70.7617 111.264 69.1094ZM102.616 69.1094C102.616 68.2305 102.874 67.5156 103.413 66.9531C103.94 66.3906 104.596 66.1094 105.381 66.1094C106.108 66.1094 106.729 66.3906 107.245 66.9531C107.76 67.5156 108.018 68.2305 108.018 69.1094C108.018 69.9883 107.76 70.7031 107.245 71.2656C106.729 71.8281 106.108 72.1094 105.381 72.1094C104.596 72.1094 103.94 71.8281 103.413 71.2656C102.874 70.7031 102.616 69.9883 102.616 69.1094ZM125.069 69.9414L125.186 68.6289C125.186 66.9531 124.624 65.5586 123.51 64.4336C122.385 63.3086 120.991 62.7461 119.315 62.7461C117.627 62.7461 116.186 63.3555 114.991 64.5508C113.784 65.7461 113.186 67.1875 113.186 68.8633C113.186 70.5508 113.795 71.9922 115.014 73.1875C116.233 74.3828 117.698 74.9805 119.432 74.9805C120.042 74.9805 120.627 74.9102 121.202 74.7695C121.776 74.6289 122.245 74.4766 122.608 74.2891C122.959 74.1016 123.299 73.8906 123.627 73.6562C123.944 73.4219 124.155 73.2578 124.249 73.1641L124.471 72.9414L122.795 70.7852L122.456 71.1484C122.245 71.3945 121.87 71.6406 121.354 71.875C120.838 72.1094 120.276 72.2266 119.667 72.2266C118.823 72.2266 118.12 72.0156 117.569 71.5703C117.006 71.125 116.667 70.5859 116.549 69.9414H125.069ZM119.315 65.5117C119.995 65.5117 120.581 65.7227 121.049 66.1211C121.518 66.5312 121.823 67.0469 121.952 67.668H116.549C116.737 67.0352 117.077 66.5078 117.557 66.1094C118.038 65.7109 118.624 65.5117 119.315 65.5117ZM138.756 62.9805H135.042L130.834 67.7852V62.9805H127.6V74.7461H130.834V71.8633L132.276 70.1875L135.393 74.7461H139.002L134.315 68.0312L138.756 62.9805ZM153.756 66.2266C153.756 65.2891 153.334 64.4688 152.502 63.7773C151.67 63.0977 150.569 62.7461 149.198 62.7461C148.624 62.7461 148.073 62.8164 147.534 62.957C146.995 63.0977 146.561 63.25 146.245 63.4141C145.917 63.5781 145.624 63.7773 145.342 64C145.061 64.2227 144.885 64.375 144.803 64.4688C144.721 64.5625 144.663 64.6211 144.639 64.668L146.444 66.4609L146.749 66.2031C146.959 66.0156 147.264 65.8281 147.663 65.6523C148.061 65.4766 148.459 65.3828 148.846 65.3828C149.877 65.3945 150.405 65.793 150.405 66.5898C150.405 66.918 150.264 67.1758 150.006 67.375C149.749 67.5742 149.362 67.668 148.846 67.668H147.639V69.8242H148.846C150.112 69.8359 150.756 70.2344 150.756 71.0312C150.756 71.418 150.592 71.7344 150.264 71.9805C149.936 72.2266 149.467 72.3438 148.846 72.3438C148.307 72.3438 147.803 72.2266 147.323 71.9805C146.842 71.7344 146.526 71.5352 146.385 71.3945C146.245 71.2539 146.139 71.125 146.081 71.0312L144.276 72.8242L144.475 73.0703C144.581 73.2109 144.768 73.3867 145.049 73.5977C145.319 73.8086 145.635 74.0078 145.999 74.2188C146.374 74.4297 146.842 74.6172 147.405 74.7578C147.967 74.9102 148.565 74.9805 149.186 74.9805C150.792 74.9805 152.034 74.6523 152.913 73.9727C153.792 73.293 154.225 72.4727 154.225 71.5117C154.225 71.0781 154.143 70.6797 153.967 70.3281C153.792 69.9766 153.604 69.707 153.393 69.5078C153.182 69.3086 152.948 69.1328 152.667 68.9922C152.397 68.8516 152.209 68.7578 152.092 68.7109C151.987 68.6758 151.905 68.6523 151.834 68.6406L152.022 68.5703C152.151 68.5352 152.315 68.4531 152.514 68.3359C152.702 68.2188 152.901 68.0664 153.088 67.9023C153.276 67.7383 153.44 67.5039 153.569 67.2109C153.686 66.9062 153.756 66.5781 153.756 66.2266ZM163.12 74.7461H166.354V67.4219C166.354 66.0859 165.885 64.9727 164.948 64.082C164.01 63.1914 162.792 62.7461 161.315 62.7461C160.741 62.7461 160.178 62.8398 159.627 63.0039C159.088 63.168 158.643 63.3555 158.303 63.5547C157.975 63.7539 157.659 63.9766 157.377 64.2344C157.096 64.4922 156.909 64.6797 156.827 64.7852C156.745 64.8906 156.674 64.9727 156.627 65.0312L158.42 66.8242L158.69 66.543C158.877 66.332 159.182 66.1328 159.616 65.9336C160.061 65.7344 160.542 65.6289 161.069 65.6289C161.713 65.6289 162.217 65.793 162.569 66.0977C162.932 66.4141 163.108 66.8125 163.108 67.3047L159.381 67.9727C158.303 68.1719 157.448 68.5938 156.827 69.2266C156.217 69.8711 155.901 70.668 155.901 71.6289C155.901 72.5664 156.276 73.3516 157.002 74.0078C157.741 74.6641 158.69 74.9805 159.862 74.9805C160.471 74.9805 161.057 74.8516 161.62 74.5938C162.182 74.3359 162.557 74.125 162.721 73.9609C162.885 73.7969 163.014 73.668 163.108 73.5508L163.12 74.7461ZM160.706 72.3438C159.674 72.3438 159.147 71.9453 159.147 71.1484C159.147 70.4102 159.592 69.9648 160.471 69.8242L163.108 69.3438V69.707C163.108 70.5391 162.897 71.1836 162.463 71.6523C162.03 72.1211 161.444 72.3438 160.706 72.3438ZM175.6 62.9805V66.2266C175.6 67.8672 175.506 69.1094 175.342 69.9648C175.178 70.8203 174.956 71.3711 174.686 71.6172C174.405 71.8633 174.03 71.9805 173.561 71.9805C173.327 71.9805 173.081 71.9453 172.846 71.8633V74.7461L173.057 74.8398C173.186 74.8867 173.385 74.9453 173.667 75.0156C173.948 75.0859 174.229 75.1094 174.522 75.1094C175.413 75.1094 176.151 74.8867 176.737 74.4414C177.323 73.9961 177.792 73.1172 178.167 71.8281C178.542 70.5391 178.729 68.793 178.729 66.6016V65.875H181.846V74.7578H185.081V62.9922L175.6 62.9805ZM205.366 68.8633C205.366 67.1875 204.756 65.7461 203.561 64.5508C202.366 63.3555 200.924 62.7578 199.249 62.7578C197.749 62.7578 196.448 63.2266 195.323 64.1758C194.198 65.125 193.506 66.2148 193.249 67.4336H191.444V62.9922H188.209V74.7578H191.444V70.3164H193.249C193.506 71.5352 194.198 72.6133 195.323 73.5625C196.448 74.5117 197.76 74.9922 199.249 74.9922C200.924 74.9922 202.366 74.3828 203.561 73.1875C204.756 71.9922 205.366 70.5508 205.366 68.8633ZM202.131 68.875C202.131 69.8125 201.85 70.5977 201.288 71.207C200.725 71.8164 200.045 72.1211 199.249 72.1211C198.452 72.1211 197.772 71.8164 197.209 71.207C196.647 70.5977 196.366 69.8125 196.366 68.875C196.366 67.9258 196.647 67.1523 197.209 66.543C197.772 65.9336 198.452 65.6406 199.249 65.6406C200.045 65.6406 200.725 65.9336 201.288 66.543C201.85 67.1523 202.131 67.9258 202.131 68.875ZM219.78 69.1094C219.78 67.5156 219.217 66.1328 218.104 64.9727C216.991 63.8125 215.713 63.2266 214.26 63.2266C213.85 63.2266 213.452 63.2969 213.065 63.4141C212.667 63.5312 212.35 63.6719 212.092 63.8242C211.834 63.9766 211.6 64.1523 211.377 64.3398C211.143 64.5273 211.002 64.6562 210.932 64.7266C210.862 64.7969 210.803 64.8555 210.78 64.9023C210.944 63.9414 211.354 63.1445 211.999 62.5C212.631 61.8555 213.463 61.4219 214.495 61.1875C215.62 60.9297 216.592 60.6602 217.389 60.3555C218.186 60.0625 218.667 59.8633 218.831 59.7578C218.995 59.6641 219.1 59.582 219.17 59.5117L217.741 57.1094L217.331 57.3203C217.049 57.4609 216.569 57.625 215.866 57.8359C215.163 58.0469 214.377 58.2461 213.534 58.4219C211.612 58.8203 210.124 59.7109 209.092 61.1055C208.049 62.5117 207.534 64.5742 207.534 67.3047C207.534 69.7539 208.108 71.6406 209.268 72.9766C210.428 74.3125 211.975 74.9805 213.897 74.9805C215.608 74.9805 217.014 74.418 218.116 73.2812C219.217 72.1562 219.78 70.7617 219.78 69.1094ZM211.131 69.1094C211.131 68.2305 211.389 67.5156 211.928 66.9531C212.456 66.3906 213.112 66.1094 213.897 66.1094C214.624 66.1094 215.245 66.3906 215.76 66.9531C216.276 67.5156 216.534 68.2305 216.534 69.1094C216.534 69.9883 216.276 70.7031 215.76 71.2656C215.245 71.8281 214.624 72.1094 213.897 72.1094C213.112 72.1094 212.456 71.8281 211.928 71.2656C211.389 70.7031 211.131 69.9883 211.131 69.1094ZM225.182 75.4609C224.795 76.3516 224.116 76.7852 223.143 76.7852C222.663 76.7852 222.264 76.7148 221.948 76.5508V79.4219L222.182 79.5039C222.346 79.5742 222.592 79.6328 222.944 79.6914C223.284 79.7617 223.635 79.7852 223.987 79.7852C225.956 79.7852 227.467 78.3438 228.545 75.4609L233.221 62.9805H229.87L227.104 70.7852L224.35 62.9805H220.987L225.545 74.6289L225.182 75.4609ZM252.053 68.8633C252.053 67.1875 251.444 65.7461 250.249 64.5508C249.053 63.3555 247.612 62.7578 245.936 62.7578C244.436 62.7578 243.135 63.2266 242.01 64.1758C240.885 65.125 240.194 66.2148 239.936 67.4336H238.131V62.9922H234.897V74.7578H238.131V70.3164H239.936C240.194 71.5352 240.885 72.6133 242.01 73.5625C243.135 74.5117 244.448 74.9922 245.936 74.9922C247.612 74.9922 249.053 74.3828 250.249 73.1875C251.444 71.9922 252.053 70.5508 252.053 68.8633ZM248.819 68.875C248.819 69.8125 248.538 70.5977 247.975 71.207C247.413 71.8164 246.733 72.1211 245.936 72.1211C245.139 72.1211 244.459 71.8164 243.897 71.207C243.334 70.5977 243.053 69.8125 243.053 68.875C243.053 67.9258 243.334 67.1523 243.897 66.543C244.459 65.9336 245.139 65.6406 245.936 65.6406C246.733 65.6406 247.413 65.9336 247.975 66.543C248.538 67.1523 248.819 67.9258 248.819 68.875ZM52.6938 101.863H57.2524V110.746H60.4985V98.9805H49.4595V110.746H52.6938V101.863ZM66.2524 104.875C66.2524 103.996 66.5337 103.258 67.1079 102.648C67.6704 102.051 68.3501 101.746 69.1353 101.746C69.9087 101.746 70.5884 102.051 71.1626 102.648C71.7251 103.258 72.0181 103.996 72.0181 104.875C72.0181 105.754 71.7251 106.492 71.1626 107.09C70.5884 107.688 69.9087 107.98 69.1353 107.98C68.3501 107.98 67.6704 107.688 67.1079 107.09C66.5337 106.492 66.2524 105.754 66.2524 104.875ZM75.3696 104.863C75.3696 103.234 74.7485 101.805 73.5063 100.586C72.2642 99.3672 70.811 98.7578 69.1353 98.7578C67.4478 98.7578 65.9946 99.3672 64.7524 100.586C63.5103 101.805 62.8892 103.234 62.8892 104.863C62.8892 106.504 63.5103 107.934 64.7524 109.152C65.9946 110.371 67.4478 110.98 69.1353 110.98C70.811 110.98 72.2642 110.371 73.5063 109.152C74.7485 107.934 75.3696 106.504 75.3696 104.863ZM88.9282 98.9805H85.2134L81.0063 103.785V98.9805H77.772V110.746H81.0063V107.863L82.4478 106.188L85.5649 110.746H89.1743L84.4868 104.031L88.9282 98.9805ZM93.4868 111.461C93.1001 112.352 92.4204 112.785 91.4478 112.785C90.9673 112.785 90.5688 112.715 90.2524 112.551V115.422L90.4868 115.504C90.6509 115.574 90.897 115.633 91.2485 115.691C91.5884 115.762 91.9399 115.785 92.2915 115.785C94.2603 115.785 95.772 114.344 96.8501 111.461L101.526 98.9805H98.1743L95.4087 106.785L92.6548 98.9805H89.2915L93.8501 110.629L93.4868 111.461ZM106.436 101.863H110.995V110.746H114.241V98.9805H103.202V110.746H106.436V101.863ZM128.514 98.9805H124.799L120.592 103.785V98.9805H117.358V110.746H120.592V107.863L122.034 106.188L125.151 110.746H128.76L124.073 104.031L128.514 98.9805ZM133.073 111.461C132.686 112.352 132.006 112.785 131.034 112.785C130.553 112.785 130.155 112.715 129.838 112.551V115.422L130.073 115.504C130.237 115.574 130.483 115.633 130.834 115.691C131.174 115.762 131.526 115.785 131.877 115.785C133.846 115.785 135.358 114.344 136.436 111.461L141.112 98.9805H137.76L134.995 106.785L132.241 98.9805H128.877L133.436 110.629L133.073 111.461ZM146.631 105.941L147.229 93.9414H143.385L143.983 105.941H146.631ZM143.385 109.188C143.385 109.668 143.573 110.09 143.948 110.441C144.323 110.805 144.768 110.98 145.307 110.98C145.834 110.98 146.292 110.805 146.667 110.441C147.042 110.09 147.229 109.668 147.229 109.188C147.229 108.707 147.042 108.285 146.667 107.922C146.292 107.57 145.834 107.383 145.307 107.383C144.768 107.383 144.323 107.57 143.948 107.922C143.573 108.285 143.385 108.707 143.385 109.188Z" fill="white"/>
<circle cx="59.6248" cy="175.735" r="11.1067" transform="rotate(-90 59.6248 175.735)" fill="#00C65E" stroke="white"/>
<path fill-rule="evenodd" clip-rule="evenodd" d="M62.5463 176.319L57.8728 180.992C57.5501 181.315 57.027 181.315 56.7043 180.992C56.3816 180.67 56.3817 180.147 56.7043 179.824L60.7936 175.735L56.7039 171.645C56.3812 171.322 56.3813 170.799 56.7039 170.476C57.0266 170.154 57.5497 170.154 57.8724 170.476L62.5273 175.131C62.5338 175.137 62.5399 175.144 62.5463 175.15C62.8282 175.433 62.8637 175.869 62.6521 176.189C62.6219 176.235 62.5866 176.278 62.5463 176.319Z" fill="white"/>
<path opacity="0.4" d="M575.125 147.817C581.429 171.906 562.11 195.026 537.284 193.103L456.023 186.809C426.672 184.536 412.147 150.057 431.024 127.467L491.649 54.9124C510.526 32.3221 547.036 40.4886 554.49 68.9681L575.125 147.817Z" fill="white"/>
<path d="M314.029 231.849C296.068 239.828 275.377 227.744 273.501 208.18L267.359 144.143C265.141 121.013 290.1 105.312 310.317 117.119L375.25 155.04C395.467 166.847 394.056 196.3 372.821 205.733L314.029 231.849Z" fill="#FFB762"/>
<path d="M359.493 41.1557C366.256 28.4077 383.568 26.1273 393.402 36.6889L425.591 71.2595C437.217 83.7461 429.883 104.151 412.968 106.379L358.641 113.535C341.726 115.763 329.358 97.9539 337.354 82.8825L359.493 41.1557Z" fill="white"/>
<path d="M480.362 120.95C477.368 120.761 474.996 121.145 473.245 122.099L474.39 113.842L492.916 115.007L493.439 106.679L466.306 104.974L463.107 130.448L469.774 131.494L470.517 130.632C471.02 130.1 471.899 129.561 473.153 129.045C474.373 128.558 475.765 128.332 477.325 128.43C479.539 128.569 481.334 129.402 482.68 130.896C484.025 132.421 484.633 134.212 484.503 136.271C484.372 138.36 483.611 140.003 482.156 141.227C480.702 142.451 478.791 142.957 476.39 142.806C474.518 142.688 472.735 142.169 470.979 141.213C469.252 140.291 468.139 139.563 467.609 139.029C467.111 138.497 466.731 138.066 466.471 137.705L460.352 143.395L460.9 144.149C461.272 144.705 461.89 145.339 462.751 146.082C463.644 146.827 464.663 147.548 465.836 148.311C467.009 149.074 468.563 149.766 470.465 150.387C472.367 151.007 474.381 151.353 476.502 151.486C481.554 151.804 485.732 150.595 489.037 147.828C492.342 145.061 494.106 141.415 494.39 136.892C494.66 132.588 493.48 128.944 490.791 125.895C488.132 122.878 484.666 121.22 480.362 120.95ZM508.722 117.284C508.803 116.005 509.275 114.97 510.203 114.152C511.098 113.363 512.186 112.993 513.465 113.073C514.743 113.153 515.776 113.657 516.597 114.554C517.384 115.48 517.754 116.568 517.673 117.846C517.593 119.125 517.09 120.158 516.195 120.947C515.267 121.766 514.181 122.105 512.902 122.024C511.623 121.944 510.588 121.472 509.801 120.545C508.981 119.648 508.642 118.563 508.722 117.284ZM506.203 152.382L514.187 152.884L545.099 109.926L537.115 109.424L506.203 152.382ZM524.067 118.248C524.241 115.473 523.305 112.94 521.317 110.686C519.33 108.432 516.839 107.211 513.845 107.022C510.851 106.834 508.227 107.734 505.973 109.721C503.718 111.709 502.503 114.106 502.329 116.882C502.154 119.658 503.06 122.188 505.047 124.442C507.035 126.697 509.526 127.918 512.52 128.106C515.514 128.294 518.138 127.394 520.392 125.407C522.646 123.419 523.893 121.024 524.067 118.248ZM542.578 145.056C542.498 146.335 541.994 147.368 541.099 148.157C540.171 148.975 539.085 149.314 537.807 149.234C536.528 149.153 535.493 148.681 534.706 147.755C533.885 146.858 533.547 145.772 533.627 144.493C533.707 143.215 534.18 142.18 535.108 141.361C536.003 140.572 537.091 140.202 538.369 140.283C539.648 140.363 540.681 140.866 541.501 141.763C542.289 142.689 542.659 143.777 542.578 145.056ZM527.233 144.092C527.059 146.867 527.965 149.398 529.952 151.652C531.94 153.906 534.43 155.127 537.424 155.315C540.419 155.504 543.043 154.604 545.297 152.616C547.551 150.629 548.797 148.234 548.972 145.458C549.144 142.713 548.208 140.181 546.22 137.927C544.233 135.673 541.744 134.42 538.75 134.232C535.755 134.044 533.129 134.975 530.875 136.962C528.621 138.95 527.406 141.347 527.233 144.092Z" fill="#F89358"/>
<path d="M293.316 140.645L292.947 140.904C292.693 141.09 292.324 141.295 291.85 141.5C291.376 141.705 290.819 141.867 290.21 142.028C289.6 142.19 288.813 142.234 287.891 142.182C286.949 142.12 286.008 141.901 285.037 141.534L282.95 145.601L288.059 148.222L276.89 169.992L283.313 173.288L298.655 143.384L293.316 140.645ZM318.824 166.429C316.822 165.402 315.076 164.954 313.586 165.085L316.849 159.752L329.236 166.107L332.093 160.54L313.95 151.232L304.114 167.786L308.383 170.503L309.152 170.134C309.658 169.919 310.424 169.811 311.441 169.832C312.426 169.864 313.45 170.126 314.493 170.661C315.973 171.42 316.958 172.531 317.435 173.962C317.903 175.413 317.783 176.827 317.077 178.203C316.36 179.6 315.344 180.502 313.978 180.907C312.611 181.312 311.146 181.087 309.54 180.263C308.289 179.621 307.218 178.73 306.298 177.546C305.387 176.394 304.84 175.561 304.636 175.034C304.453 174.519 304.321 174.109 304.251 173.783L298.338 175.86L298.488 176.543C298.578 177.036 298.812 177.657 299.182 178.426C299.572 179.206 300.056 180.008 300.634 180.884C301.212 181.76 302.072 182.702 303.194 183.699C304.316 184.695 305.596 185.537 307.014 186.264C310.392 187.998 313.627 188.419 316.729 187.508C319.83 186.597 322.136 184.619 323.687 181.595C325.164 178.717 325.445 175.858 324.511 172.956C323.587 170.084 321.702 167.905 318.824 166.429ZM339.61 172.51C340.048 171.655 340.683 171.085 341.567 170.8C342.419 170.526 343.277 170.598 344.132 171.037C344.987 171.475 345.547 172.131 345.842 172.994C346.105 173.866 346.033 174.725 345.595 175.58C345.156 176.435 344.5 176.994 343.648 177.269C342.765 177.553 341.917 177.46 341.062 177.022C340.207 176.583 339.637 175.948 339.373 175.075C339.078 174.213 339.171 173.365 339.61 172.51ZM327.354 195.883L332.693 198.622L366.823 178.358L361.485 175.62L327.354 195.883ZM349.869 177.773C350.822 175.918 350.937 173.896 350.246 171.75C349.556 169.605 348.21 168.018 346.208 166.991C344.206 165.964 342.132 165.796 339.987 166.486C337.841 167.177 336.287 168.461 335.335 170.316C334.383 172.172 334.246 174.184 334.937 176.329C335.627 178.475 336.974 180.061 338.976 181.088C340.977 182.115 343.051 182.283 345.197 181.593C347.342 180.902 348.917 179.629 349.869 177.773ZM354.557 201.753C354.119 202.608 353.463 203.167 352.611 203.441C351.728 203.726 350.88 203.633 350.025 203.194C349.17 202.756 348.6 202.121 348.336 201.248C348.041 200.385 348.134 199.537 348.573 198.682C349.011 197.827 349.646 197.257 350.53 196.973C351.381 196.699 352.24 196.771 353.095 197.209C353.95 197.648 354.509 198.304 354.804 199.166C355.068 200.039 354.996 200.898 354.557 201.753ZM344.298 196.489C343.346 198.345 343.209 200.356 343.9 202.502C344.59 204.647 345.937 206.234 347.938 207.261C349.94 208.288 352.014 208.456 354.16 207.765C356.305 207.075 357.88 205.802 358.832 203.946C359.774 202.111 359.889 200.089 359.199 197.944C358.508 195.798 357.173 194.191 355.171 193.164C353.169 192.137 351.084 191.989 348.939 192.68C346.793 193.37 345.239 194.654 344.298 196.489Z" fill="white"/>
<path d="M362.205 71.9988L362.134 72.2126C362.087 72.3629 362.001 72.5555 361.871 72.7789C361.742 73.0023 361.567 73.2334 361.37 73.4798C361.173 73.7263 360.871 73.9785 360.485 74.2326C360.088 74.4885 359.645 74.6809 359.146 74.8232L359.52 77.0775L362.353 76.6072L364.356 88.6764L367.917 88.0852L365.165 71.5075L362.205 71.9988ZM376.737 78.1035C376.449 76.3694 376.573 74.9708 377.121 73.9058C377.669 72.8407 378.423 72.2285 379.394 72.0673C380.353 71.908 381.264 72.2438 382.127 73.0747C382.978 73.9075 383.559 75.189 383.847 76.9231C384.135 78.6571 383.999 80.0577 383.463 81.1208C382.915 82.1858 382.161 82.798 381.202 82.9573C380.231 83.1185 379.32 82.7828 378.457 81.9519C377.595 81.121 377.025 79.8376 376.737 78.1035ZM387.396 76.3338C386.966 73.7443 385.927 71.7785 384.288 70.4232C382.638 69.0697 380.829 68.5503 378.864 68.8766C376.887 69.2048 375.343 70.2808 374.219 72.0949C373.095 73.909 372.747 76.1051 373.177 78.6946C373.606 81.2842 374.648 83.2615 376.298 84.6149C377.95 85.98 379.757 86.4878 381.734 86.1596C383.699 85.8333 385.245 84.7689 386.367 82.9432C387.48 81.131 387.826 78.9234 387.396 76.3338ZM391.131 70.8551C391.052 70.3811 391.137 69.9631 391.407 69.5857C391.668 69.2217 392.034 68.9946 392.508 68.9159C392.982 68.8372 393.402 68.9338 393.777 69.1922C394.143 69.4641 394.37 69.8303 394.449 70.3043C394.528 70.7782 394.431 71.1982 394.171 71.5621C393.901 71.9396 393.533 72.1551 393.059 72.2338C392.585 72.3125 392.167 72.2275 391.801 71.9556C391.425 71.6972 391.21 71.3291 391.131 70.8551ZM393.177 83.8914L396.136 83.4001L403.8 65.093L400.84 65.5843L393.177 83.8914ZM396.819 69.9108C396.648 68.8819 396.092 68.0358 395.175 67.3802C394.259 66.7246 393.245 66.4889 392.136 66.6732C391.026 66.8575 390.143 67.4079 389.487 68.3245C388.832 69.2412 388.59 70.2197 388.761 71.2486C388.932 72.2775 389.477 73.1255 390.393 73.7811C391.31 74.4367 392.323 74.6724 393.433 74.4881C394.543 74.3038 395.426 73.7534 396.081 72.8368C396.737 71.9201 396.99 70.9397 396.819 69.9108ZM405.847 78.1409C405.926 78.6148 405.829 79.0348 405.569 79.3987C405.299 79.7762 404.931 79.9917 404.457 80.0704C403.983 80.1491 403.565 80.0641 403.199 79.7922C402.824 79.5338 402.608 79.1657 402.529 78.6917C402.451 78.2177 402.536 77.7997 402.806 77.4223C403.066 77.0583 403.432 76.8312 403.906 76.7525C404.38 76.6738 404.8 76.7704 405.176 77.0288C405.542 77.3007 405.769 77.6669 405.847 78.1409ZM400.16 79.0852C400.33 80.1141 400.875 80.9621 401.792 81.6177C402.708 82.2733 403.722 82.509 404.831 82.3247C405.941 82.1404 406.824 81.59 407.479 80.6734C408.135 79.7567 408.388 78.7763 408.217 77.7474C408.048 76.7301 407.492 75.884 406.575 75.2284C405.659 74.5728 404.644 74.3255 403.534 74.5098C402.424 74.6941 401.543 75.2561 400.888 76.1727C400.232 77.0893 399.991 78.0679 400.16 79.0852Z" fill="#FFB762"/>
</g>
</g>
</g>
<defs>
<filter id="filter0_d_1457_342" x="-0.00146484" y="0.628906" width="608" height="238" filterUnits="userSpaceOnUse" color-interpolation-filters="sRGB">
<feFlood flood-opacity="0" result="BackgroundImageFix"/>
<feColorMatrix in="SourceAlpha" type="matrix" values="0 0 0 0 0 0 0 0 0 0 0 0 0 0 0 0 0 0 127 0" result="hardAlpha"/>
<feMorphology radius="3" operator="dilate" in="SourceAlpha" result="effect1_dropShadow_1457_342"/>
<feOffset dx="1" dy="2"/>
<feGaussianBlur stdDeviation="8"/>
<feColorMatrix type="matrix" values="0 0 0 0 0.211765 0 0 0 0 0.227451 0 0 0 0 0.270588 0 0 0 0.08 0"/>
<feBlend mode="normal" in2="BackgroundImageFix" result="effect1_dropShadow_1457_342"/>
<feBlend mode="normal" in="SourceGraphic" in2="effect1_dropShadow_1457_342" result="shape"/>
</filter>
<filter id="filter1_d_1457_342" x="-0.00146484" y="0.621094" width="608" height="254.717" filterUnits="userSpaceOnUse" color-interpolation-filters="sRGB">
<feFlood flood-opacity="0" result="BackgroundImageFix"/>
<feColorMatrix in="SourceAlpha" type="matrix" values="0 0 0 0 0 0 0 0 0 0 0 0 0 0 0 0 0 0 127 0" result="hardAlpha"/>
<feMorphology radius="3" operator="dilate" in="SourceAlpha" result="effect1_dropShadow_1457_342"/>
<feOffset dx="1" dy="2"/>
<feGaussianBlur stdDeviation="8"/>
<feColorMatrix type="matrix" values="0 0 0 0 0.211765 0 0 0 0 0.227451 0 0 0 0 0.270588 0 0 0 0.08 0"/>
<feBlend mode="normal" in2="BackgroundImageFix" result="effect1_dropShadow_1457_342"/>
<feBlend mode="normal" in="SourceGraphic" in2="effect1_dropShadow_1457_342" result="shape"/>
</filter>
<clipPath id="clip0_1457_342">
<rect x="17.9985" y="17.6289" width="570" height="200" rx="10" fill="white"/>
</clipPath>
</defs>
</svg>
