<svg width="14" height="16" viewBox="0 0 14 16" fill="none" xmlns="http://www.w3.org/2000/svg">
<path fill-rule="evenodd" clip-rule="evenodd" d="M-0.00119482 2.00898C-0.00119482 1.29101 0.580835 0.708984 1.2988 0.708984H12.6988C13.4168 0.708984 13.9988 1.29101 13.9988 2.00898C13.9988 2.72695 13.4168 3.30898 12.6988 3.30898H1.2988C0.580834 3.30898 -0.00119482 2.72695 -0.00119482 2.00898ZM-0.00146484 8.20625C-0.00146484 7.48828 0.580565 6.90625 1.29853 6.90625H12.6985C13.4165 6.90625 13.9985 7.48828 13.9985 8.20625C13.9985 8.92422 13.4165 9.50625 12.6985 9.50625H1.29853C0.580564 9.50625 -0.00146484 8.92422 -0.00146484 8.20625ZM1.29853 13.1035C0.580565 13.1035 -0.00146484 13.6855 -0.00146484 14.4035C-0.00146484 15.1215 0.580565 15.7035 1.29853 15.7035H6.69854C7.41651 15.7035 7.99854 15.1215 7.99854 14.4035C7.99854 13.6855 7.41651 13.1035 6.69854 13.1035H1.29853Z" fill="#363A45"/>
</svg>
