<svg width="22" height="18" viewBox="0 0 22 18" fill="none" xmlns="http://www.w3.org/2000/svg">
<path d="M1.10669 11.2539H3.23169C3.53992 11.2539 3.79419 11.5082 3.79419 11.8164V13.9414C3.79419 14.2496 3.53992 14.5039 3.23169 14.5039H1.10669C0.798457 14.5039 0.544189 14.2496 0.544189 13.9414V11.8164C0.544189 11.5082 0.798457 11.2539 1.10669 11.2539ZM6.41919 11.2539H17.0442C17.3524 11.2539 17.6067 11.5082 17.6067 11.8164V13.9414C17.6067 14.2496 17.3524 14.5039 17.0442 14.5039H6.41919C6.11096 14.5039 5.85669 14.2496 5.85669 13.9414V11.8164C5.85669 11.5082 6.11096 11.2539 6.41919 11.2539ZM1.10669 5.94141H3.23169C3.53992 5.94141 3.79419 6.19567 3.79419 6.50391V8.62891C3.79419 8.93714 3.53992 9.19141 3.23169 9.19141H1.10669C0.798457 9.19141 0.544189 8.93714 0.544189 8.62891V6.50391C0.544189 6.19567 0.798457 5.94141 1.10669 5.94141ZM6.41919 5.94141H17.0442C17.3524 5.94141 17.6067 6.19567 17.6067 6.50391V8.62891C17.6067 8.93714 17.3524 9.19141 17.0442 9.19141H6.41919C6.11096 9.19141 5.85669 8.93714 5.85669 8.62891V6.50391C5.85669 6.19567 6.11096 5.94141 6.41919 5.94141ZM1.10669 0.628906H3.23169C3.53992 0.628906 3.79419 0.883174 3.79419 1.19141V3.31641C3.79419 3.62464 3.53992 3.87891 3.23169 3.87891H1.10669C0.798457 3.87891 0.544189 3.62464 0.544189 3.31641V1.19141C0.544189 0.883174 0.798457 0.628906 1.10669 0.628906ZM6.41919 0.628906H17.0442C17.3524 0.628906 17.6067 0.883173 17.6067 1.19141V3.31641C17.6067 3.62464 17.3524 3.87891 17.0442 3.87891H6.41919C6.11096 3.87891 5.85669 3.62464 5.85669 3.31641V1.19141C5.85669 0.883174 6.11096 0.628906 6.41919 0.628906Z" stroke="#363A45"/>
<circle cx="16.5129" cy="12.3477" r="3.89803" fill="#00C65E" stroke="#00C65E" stroke-width="1.76645"/>
<path fill-rule="evenodd" clip-rule="evenodd" d="M16.5129 9.90234C16.3478 9.90234 16.214 10.0361 16.214 10.2012V12.0488H14.3662C14.2012 12.0488 14.0674 12.1826 14.0674 12.3477C14.0674 12.5127 14.2012 12.6465 14.3662 12.6465H16.214V14.4941C16.214 14.6591 16.3478 14.7929 16.5129 14.7929C16.6779 14.7929 16.8117 14.6591 16.8117 14.4941V12.6465H18.6591C18.8241 12.6465 18.9579 12.5127 18.9579 12.3477C18.9579 12.1826 18.8241 12.0488 18.6591 12.0488H16.8117V10.2012C16.8117 10.0361 16.6779 9.90234 16.5129 9.90234Z" fill="white"/>
</svg>
