<svg width="213" height="189" viewBox="0 0 213 189" fill="none" xmlns="http://www.w3.org/2000/svg">
<g filter="url(#filter0_d_1457_456)">
<rect x="17.9985" y="17.6309" width="175" height="150" rx="10" fill="white"/>
<path d="M35.7954 37.4316H33.2407L37.2407 44.9551L36.9204 45.5176C36.4907 46.2676 35.8735 46.6348 35.0688 46.6348C34.6938 46.6348 34.3735 46.5879 34.1079 46.4785V48.5566L34.272 48.6035C34.3813 48.6504 34.5376 48.6895 34.7485 48.7285C34.9673 48.7754 35.1782 48.791 35.3892 48.791C36.311 48.791 37.0767 48.541 37.6938 48.041C38.3188 47.541 38.8579 46.8066 39.311 45.8379L43.2329 37.4316H40.6704L38.4282 42.7129L35.7954 37.4316ZM42.686 46.7129V50.4785H44.8423V48.6348H49.3267V50.4785H51.4829V46.7129H50.4438V40.791H44.4438V42.9551C44.4438 43.4473 44.397 43.916 44.3032 44.3613C44.2095 44.7988 44.1079 45.1582 43.9985 45.4238C43.8892 45.6895 43.7563 45.9395 43.6079 46.166C43.4595 46.3848 43.3579 46.5254 43.2954 46.5879C43.2329 46.6426 43.1938 46.6895 43.1626 46.7207L42.686 46.7129ZM46.4438 42.7207H48.2876V46.7207H45.4048L45.6782 46.3066C45.8501 46.0254 46.0142 45.5957 46.186 45.0098C46.3579 44.4238 46.4438 43.8223 46.4438 43.2051V42.7207ZM55.186 44.7207C55.186 44.1348 55.3735 43.6426 55.7563 43.2363C56.1313 42.8379 56.5845 42.6348 57.1079 42.6348C57.6235 42.6348 58.0767 42.8379 58.4595 43.2363C58.8345 43.6426 59.0298 44.1348 59.0298 44.7207C59.0298 45.3066 58.8345 45.7988 58.4595 46.1973C58.0767 46.5957 57.6235 46.791 57.1079 46.791C56.5845 46.791 56.1313 46.5957 55.7563 46.1973C55.3735 45.7988 55.186 45.3066 55.186 44.7207ZM61.2642 44.7129C61.2642 43.627 60.8501 42.6738 60.022 41.8613C59.1938 41.0488 58.2251 40.6426 57.1079 40.6426C55.9829 40.6426 55.0142 41.0488 54.186 41.8613C53.3579 42.6738 52.9438 43.627 52.9438 44.7129C52.9438 45.8066 53.3579 46.7598 54.186 47.5723C55.0142 48.3848 55.9829 48.791 57.1079 48.791C58.2251 48.791 59.1938 48.3848 60.022 47.5723C60.8501 46.7598 61.2642 45.8066 61.2642 44.7129ZM71.2876 44.877C71.2876 43.8145 70.9126 42.8926 70.1704 42.1191C69.4282 41.3457 68.5767 40.9551 67.6079 40.9551C67.3345 40.9551 67.0688 41.002 66.811 41.0801C66.5454 41.1582 66.3345 41.252 66.1626 41.3535C65.9907 41.4551 65.8345 41.5723 65.686 41.6973C65.5298 41.8223 65.436 41.9082 65.3892 41.9551C65.3423 42.002 65.3032 42.041 65.2876 42.0723C65.397 41.4316 65.6704 40.9004 66.1001 40.4707C66.522 40.041 67.0767 39.752 67.7642 39.5957C68.5142 39.4238 69.1626 39.2441 69.6938 39.041C70.2251 38.8457 70.5454 38.7129 70.6548 38.6426C70.7642 38.5801 70.8345 38.5254 70.8813 38.4785L69.9282 36.877L69.6548 37.0176C69.4673 37.1113 69.147 37.2207 68.6782 37.3613C68.2095 37.502 67.686 37.6348 67.1235 37.752C65.8423 38.0176 64.8501 38.6113 64.1626 39.541C63.4673 40.4785 63.1235 41.8535 63.1235 43.6738C63.1235 45.3066 63.5063 46.5645 64.2798 47.4551C65.0532 48.3457 66.0845 48.791 67.3657 48.791C68.5063 48.791 69.4438 48.416 70.1782 47.6582C70.9126 46.9082 71.2876 45.9785 71.2876 44.877ZM65.522 44.877C65.522 44.291 65.6938 43.8145 66.0532 43.4395C66.4048 43.0645 66.8423 42.877 67.3657 42.877C67.8501 42.877 68.2642 43.0645 68.6079 43.4395C68.9517 43.8145 69.1235 44.291 69.1235 44.877C69.1235 45.4629 68.9517 45.9395 68.6079 46.3145C68.2642 46.6895 67.8501 46.877 67.3657 46.877C66.8423 46.877 66.4048 46.6895 66.0532 46.3145C65.6938 45.9395 65.522 45.4629 65.522 44.877ZM75.7095 45.6738H78.7485V48.6348H80.9126V40.791H78.7485V43.752H75.7095V40.791H73.5532V48.6348H75.7095V45.6738ZM87.811 48.6348H89.9673V43.752C89.9673 42.8613 89.6548 42.1191 89.0298 41.5254C88.4048 40.9316 87.5923 40.6348 86.6079 40.6348C86.2251 40.6348 85.8501 40.6973 85.4829 40.8066C85.1235 40.916 84.8267 41.041 84.6001 41.1738C84.3813 41.3066 84.1704 41.4551 83.9829 41.627C83.7954 41.7988 83.6704 41.9238 83.6157 41.9941C83.561 42.0645 83.5142 42.1191 83.4829 42.1582L84.6782 43.3535L84.8579 43.166C84.9829 43.0254 85.186 42.8926 85.4751 42.7598C85.772 42.627 86.0923 42.5566 86.4438 42.5566C86.8735 42.5566 87.2095 42.666 87.4438 42.8691C87.686 43.0801 87.8032 43.3457 87.8032 43.6738L85.3188 44.1191C84.6001 44.252 84.0298 44.5332 83.6157 44.9551C83.2095 45.3848 82.9985 45.916 82.9985 46.5566C82.9985 47.1816 83.2485 47.7051 83.7329 48.1426C84.2251 48.5801 84.8579 48.791 85.6392 48.791C86.0454 48.791 86.436 48.7051 86.811 48.5332C87.186 48.3613 87.436 48.2207 87.5454 48.1113C87.6548 48.002 87.7407 47.916 87.8032 47.8379L87.811 48.6348ZM86.2017 47.0332C85.5142 47.0332 85.1626 46.7676 85.1626 46.2363C85.1626 45.7441 85.4595 45.4473 86.0454 45.3535L87.8032 45.0332V45.2754C87.8032 45.8301 87.6626 46.2598 87.3735 46.5723C87.0845 46.8848 86.6938 47.0332 86.2017 47.0332ZM95.272 40.791C94.4048 40.791 93.6782 41.0723 93.1001 41.6191C92.522 42.1738 92.2329 42.8301 92.2329 43.5957C92.2329 43.9238 92.2798 44.2363 92.3813 44.5254C92.4829 44.8145 92.6001 45.041 92.7251 45.2051C92.8501 45.3691 92.9985 45.5176 93.1626 45.6582C93.3267 45.7988 93.4438 45.8848 93.5063 45.916C93.5688 45.9473 93.6235 45.9785 93.6626 45.9941L91.9829 48.6348H94.3032L95.7407 46.3145H96.8657V48.6348H99.022V40.791H95.272ZM96.8657 42.6348V44.5566H95.4282C95.1079 44.5566 94.8501 44.4707 94.6626 44.291C94.4751 44.1191 94.3813 43.8848 94.3813 43.5957C94.3813 43.3145 94.4829 43.0801 94.6704 42.9004C94.8579 42.7285 95.1157 42.6348 95.4282 42.6348H96.8657ZM104.358 46.7129V50.4785H106.514V48.6348H110.999V50.4785H113.155V46.7129H112.116V40.791H106.116V42.9551C106.116 43.4473 106.069 43.916 105.975 44.3613C105.881 44.7988 105.78 45.1582 105.67 45.4238C105.561 45.6895 105.428 45.9395 105.28 46.166C105.131 46.3848 105.03 46.5254 104.967 46.5879C104.905 46.6426 104.866 46.6895 104.834 46.7207L104.358 46.7129ZM108.116 42.7207H109.959V46.7207H107.077L107.35 46.3066C107.522 46.0254 107.686 45.5957 107.858 45.0098C108.03 44.4238 108.116 43.8223 108.116 43.2051V42.7207ZM116.858 44.7207C116.858 44.1348 117.045 43.6426 117.428 43.2363C117.803 42.8379 118.256 42.6348 118.78 42.6348C119.295 42.6348 119.749 42.8379 120.131 43.2363C120.506 43.6426 120.702 44.1348 120.702 44.7207C120.702 45.3066 120.506 45.7988 120.131 46.1973C119.749 46.5957 119.295 46.791 118.78 46.791C118.256 46.791 117.803 46.5957 117.428 46.1973C117.045 45.7988 116.858 45.3066 116.858 44.7207ZM122.936 44.7129C122.936 43.627 122.522 42.6738 121.694 41.8613C120.866 41.0488 119.897 40.6426 118.78 40.6426C117.655 40.6426 116.686 41.0488 115.858 41.8613C115.03 42.6738 114.616 43.627 114.616 44.7129C114.616 45.8066 115.03 46.7598 115.858 47.5723C116.686 48.3848 117.655 48.791 118.78 48.791C119.897 48.791 120.866 48.3848 121.694 47.5723C122.522 46.7598 122.936 45.8066 122.936 44.7129ZM124.553 44.7129C124.553 45.8066 124.967 46.7598 125.811 47.5723C126.647 48.3848 127.639 48.791 128.788 48.791C129.194 48.791 129.584 48.7363 129.952 48.6191C130.319 48.502 130.616 48.377 130.842 48.2363C131.077 48.0957 131.288 47.9395 131.483 47.7598C131.686 47.5801 131.811 47.4551 131.866 47.377C131.92 47.2988 131.959 47.2441 131.991 47.1973L130.709 45.8379L130.499 46.1035C130.358 46.2754 130.124 46.4473 129.803 46.6191C129.483 46.791 129.147 46.877 128.788 46.877C128.225 46.877 127.741 46.666 127.327 46.2441C126.92 45.8223 126.709 45.3145 126.709 44.7207C126.709 44.127 126.92 43.6113 127.327 43.1895C127.733 42.7676 128.225 42.5566 128.788 42.5566C129.147 42.5566 129.483 42.6582 129.803 42.8457C130.124 43.0332 130.334 43.1895 130.428 43.3066C130.522 43.4316 130.592 43.5254 130.631 43.5957L131.991 42.2363L131.874 42.0723C131.795 41.9629 131.663 41.8223 131.475 41.666C131.295 41.5098 131.084 41.3613 130.85 41.2051C130.616 41.0488 130.319 40.916 129.952 40.8066C129.584 40.6973 129.194 40.6348 128.788 40.6348C127.639 40.6348 126.647 41.0488 125.803 41.8613C124.967 42.6738 124.553 43.627 124.553 44.7129ZM133.139 42.877H135.624V48.6348H137.78V42.877H140.264V40.791H133.139V42.877ZM146.358 48.6348H148.514V43.752C148.514 42.8613 148.202 42.1191 147.577 41.5254C146.952 40.9316 146.139 40.6348 145.155 40.6348C144.772 40.6348 144.397 40.6973 144.03 40.8066C143.67 40.916 143.374 41.041 143.147 41.1738C142.928 41.3066 142.717 41.4551 142.53 41.627C142.342 41.7988 142.217 41.9238 142.163 41.9941C142.108 42.0645 142.061 42.1191 142.03 42.1582L143.225 43.3535L143.405 43.166C143.53 43.0254 143.733 42.8926 144.022 42.7598C144.319 42.627 144.639 42.5566 144.991 42.5566C145.42 42.5566 145.756 42.666 145.991 42.8691C146.233 43.0801 146.35 43.3457 146.35 43.6738L143.866 44.1191C143.147 44.252 142.577 44.5332 142.163 44.9551C141.756 45.3848 141.545 45.916 141.545 46.5566C141.545 47.1816 141.795 47.7051 142.28 48.1426C142.772 48.5801 143.405 48.791 144.186 48.791C144.592 48.791 144.983 48.7051 145.358 48.5332C145.733 48.3613 145.983 48.2207 146.092 48.1113C146.202 48.002 146.288 47.916 146.35 47.8379L146.358 48.6348ZM144.749 47.0332C144.061 47.0332 143.709 46.7676 143.709 46.2363C143.709 45.7441 144.006 45.4473 144.592 45.3535L146.35 45.0332V45.2754C146.35 45.8301 146.209 46.2598 145.92 46.5723C145.631 46.8848 145.241 47.0332 144.749 47.0332ZM151.1 40.791V48.6348H155.178C156.03 48.6348 156.709 48.416 157.217 47.9707C157.725 47.5332 157.983 46.9785 157.983 46.3145C157.983 46.0645 157.936 45.8301 157.842 45.6113C157.749 45.4004 157.647 45.2363 157.538 45.1113C157.428 44.9863 157.295 44.877 157.147 44.7832C156.991 44.6895 156.889 44.627 156.834 44.6035C156.772 44.5879 156.733 44.5723 156.702 44.5566L156.936 44.4082C157.092 44.3301 157.256 44.1504 157.42 43.8848C157.577 43.6191 157.663 43.3145 157.663 42.9551C157.663 42.3691 157.413 41.8613 156.928 41.4316C156.436 41.0098 155.803 40.791 155.022 40.791H151.1ZM155.022 45.2754C155.264 45.2754 155.459 45.3535 155.6 45.502C155.741 45.6504 155.819 45.8379 155.819 46.0723C155.819 46.3066 155.741 46.502 155.6 46.6504C155.459 46.8066 155.264 46.877 155.022 46.877H153.256V45.2754H155.022ZM155.499 43.1973C155.499 43.627 155.28 43.8379 154.858 43.8379H153.256V42.5566H154.858C155.28 42.5566 155.499 42.7754 155.499 43.1973ZM167.522 40.791H165.045L162.241 43.9941V40.791H160.084V48.6348H162.241V46.7129L163.202 45.5957L165.28 48.6348H167.686L164.561 44.1582L167.522 40.791ZM173.545 48.6348H175.702V43.752C175.702 42.8613 175.389 42.1191 174.764 41.5254C174.139 40.9316 173.327 40.6348 172.342 40.6348C171.959 40.6348 171.584 40.6973 171.217 40.8066C170.858 40.916 170.561 41.041 170.334 41.1738C170.116 41.3066 169.905 41.4551 169.717 41.627C169.53 41.7988 169.405 41.9238 169.35 41.9941C169.295 42.0645 169.249 42.1191 169.217 42.1582L170.413 43.3535L170.592 43.166C170.717 43.0254 170.92 42.8926 171.209 42.7598C171.506 42.627 171.827 42.5566 172.178 42.5566C172.608 42.5566 172.944 42.666 173.178 42.8691C173.42 43.0801 173.538 43.3457 173.538 43.6738L171.053 44.1191C170.334 44.252 169.764 44.5332 169.35 44.9551C168.944 45.3848 168.733 45.916 168.733 46.5566C168.733 47.1816 168.983 47.7051 169.467 48.1426C169.959 48.5801 170.592 48.791 171.374 48.791C171.78 48.791 172.17 48.7051 172.545 48.5332C172.92 48.3613 173.17 48.2207 173.28 48.1113C173.389 48.002 173.475 47.916 173.538 47.8379L173.545 48.6348ZM171.936 47.0332C171.249 47.0332 170.897 46.7676 170.897 46.2363C170.897 45.7441 171.194 45.4473 171.78 45.3535L173.538 45.0332V45.2754C173.538 45.8301 173.397 46.2598 173.108 46.5723C172.819 46.8848 172.428 47.0332 171.936 47.0332Z" fill="#363A45"/>
<circle cx="105.499" cy="115.131" r="32.5" fill="#CCEFDB"/>
<path d="M69.0171 97.7653C69.0171 95.5099 70.8454 93.6816 73.1007 93.6816H119.552C121.807 93.6816 123.636 95.5099 123.636 97.7653V131.174H73.1007C70.8454 131.174 69.0171 129.346 69.0171 127.091V97.7653Z" fill="#F89358"/>
<path fill-rule="evenodd" clip-rule="evenodd" d="M71.6565 99.4366C71.6565 97.2938 73.3936 95.5566 75.5364 95.5566H119.671C121.814 95.5566 123.551 97.2937 123.551 99.4366V105.482H133.62C135.139 105.482 136.518 106.368 137.149 107.75L141.629 117.562C141.86 118.068 141.98 118.617 141.98 119.174V127.297C141.98 129.44 140.243 131.177 138.1 131.177H123.551V131.179H75.5364C73.3936 131.179 71.6565 129.442 71.6565 127.299V99.4366Z" fill="#FFB762"/>
<path d="M133.949 109.23H127.144C126.716 109.23 126.368 109.578 126.368 110.006V117.651C126.368 118.079 126.716 118.427 127.144 118.427H137.709C138.274 118.427 138.649 117.842 138.415 117.328L135.036 109.93C134.842 109.504 134.417 109.23 133.949 109.23Z" fill="white"/>
<path d="M124.14 136.581C120.426 136.581 117.415 133.57 117.415 129.856C117.415 126.142 120.426 123.131 124.14 123.131C127.854 123.131 130.865 126.142 130.865 129.856C130.865 133.57 127.854 136.581 124.14 136.581Z" fill="white"/>
<path d="M124.14 133.219C122.283 133.219 120.778 131.714 120.778 129.857C120.778 128 122.283 126.494 124.14 126.494C125.997 126.494 127.503 128 127.503 129.857C127.503 131.714 125.997 133.219 124.14 133.219Z" fill="#F89358"/>
<path d="M88.0897 136.581C84.3755 136.581 81.3645 133.57 81.3645 129.856C81.3645 126.142 84.3755 123.131 88.0897 123.131C91.804 123.131 94.8149 126.142 94.8149 129.856C94.8149 133.57 91.804 136.581 88.0897 136.581Z" fill="white"/>
<path d="M88.0898 133.219C86.2326 133.219 84.7272 131.714 84.7272 129.857C84.7272 128 86.2326 126.494 88.0898 126.494C89.9469 126.494 91.4524 128 91.4524 129.857C91.4524 131.714 89.9469 133.219 88.0898 133.219Z" fill="#F89358"/>
<path d="M97.2056 109.233H100.77V117.367H102.303C105.742 117.367 107.46 115.696 107.459 112.355C107.459 109.082 105.863 107.446 102.672 107.447H102.028V104.799L102.488 104.799C105.233 104.799 107.366 105.458 108.886 106.775C110.407 108.092 111.166 109.926 111.165 112.277C111.165 114.78 110.378 116.697 108.804 118.026C107.23 119.355 104.951 120.024 101.968 120.033H97.2056V109.233Z" fill="#00C65E"/>
<path d="M100.773 104.799H97.2056V107.977H100.773V104.799Z" fill="#00C65E"/>
</g>
<defs>
<filter id="filter0_d_1457_456" x="-0.00146484" y="0.630859" width="213" height="188" filterUnits="userSpaceOnUse" color-interpolation-filters="sRGB">
<feFlood flood-opacity="0" result="BackgroundImageFix"/>
<feColorMatrix in="SourceAlpha" type="matrix" values="0 0 0 0 0 0 0 0 0 0 0 0 0 0 0 0 0 0 127 0" result="hardAlpha"/>
<feMorphology radius="3" operator="dilate" in="SourceAlpha" result="effect1_dropShadow_1457_456"/>
<feOffset dx="1" dy="2"/>
<feGaussianBlur stdDeviation="8"/>
<feColorMatrix type="matrix" values="0 0 0 0 0.211765 0 0 0 0 0.227451 0 0 0 0 0.270588 0 0 0 0.08 0"/>
<feBlend mode="normal" in2="BackgroundImageFix" result="effect1_dropShadow_1457_456"/>
<feBlend mode="normal" in="SourceGraphic" in2="effect1_dropShadow_1457_456" result="shape"/>
</filter>
</defs>
</svg>
