<svg width="213" height="189" viewBox="0 0 213 189" fill="none" xmlns="http://www.w3.org/2000/svg">
<g filter="url(#filter0_d_1457_532)">
<rect x="17.9985" y="17.6309" width="175" height="150" rx="10" fill="white"/>
<path d="M33.522 37.1973C32.9282 37.1973 32.3657 37.2832 31.8345 37.4395C31.3032 37.5957 30.8657 37.7754 30.5376 37.9707C30.2095 38.1738 29.897 38.4004 29.6157 38.6504C29.3267 38.9082 29.1392 39.0879 29.061 39.1895C28.9829 39.291 28.9204 39.3691 28.8813 39.4316L30.397 40.9551L30.5298 40.791C30.6001 40.6816 30.7251 40.5488 30.9048 40.3926C31.0767 40.2363 31.2876 40.0801 31.522 39.9238C31.7563 39.7676 32.0454 39.6348 32.4048 39.5254C32.7642 39.416 33.1313 39.3535 33.522 39.3535C34.397 39.3535 35.147 39.6035 35.772 40.0957C36.397 40.5879 36.8188 41.1973 37.0376 41.916H32.0767V44.0723H37.0376C36.8188 44.8457 36.4126 45.4785 35.8032 45.9707C35.1938 46.4707 34.436 46.7129 33.522 46.7129C33.1157 46.7129 32.7173 46.6582 32.3423 46.541C31.9595 46.4238 31.6548 46.2988 31.4282 46.1582C31.1938 46.0176 30.9751 45.8613 30.772 45.6738C30.561 45.4941 30.4282 45.3691 30.3735 45.291C30.311 45.2129 30.272 45.1582 30.2407 45.1113L28.7954 46.6348L28.9907 46.877C29.1079 47.0254 29.3032 47.2051 29.5688 47.4238C29.8345 47.6426 30.1392 47.8613 30.4907 48.0801C30.8423 48.2988 31.2876 48.4863 31.8267 48.6426C32.3657 48.7988 32.9282 48.877 33.522 48.877C35.2251 48.877 36.6626 48.3066 37.8345 47.166C39.0063 46.0254 39.6001 44.6426 39.6001 43.0332C39.6001 41.4238 39.0142 40.0488 37.8501 38.9082C36.6782 37.7676 35.2407 37.1973 33.522 37.1973ZM49.2954 40.791H46.8188L44.0142 43.9941V40.791H41.8579V48.6348H44.0142V46.7129L44.9751 45.5957L47.0532 48.6348H49.4595L46.3345 44.1582L49.2954 40.791ZM50.186 44.7129C50.186 45.8066 50.6001 46.7598 51.4438 47.5723C52.2798 48.3848 53.272 48.791 54.4204 48.791C54.8267 48.791 55.2173 48.7363 55.5845 48.6191C55.9517 48.502 56.2485 48.377 56.4751 48.2363C56.7095 48.0957 56.9204 47.9395 57.1157 47.7598C57.3188 47.5801 57.4438 47.4551 57.4985 47.377C57.5532 47.2988 57.5923 47.2441 57.6235 47.1973L56.3423 45.8379L56.1313 46.1035C55.9907 46.2754 55.7563 46.4473 55.436 46.6191C55.1157 46.791 54.7798 46.877 54.4204 46.877C53.8579 46.877 53.3735 46.666 52.9595 46.2441C52.5532 45.8223 52.3423 45.3145 52.3423 44.7207C52.3423 44.127 52.5532 43.6113 52.9595 43.1895C53.3657 42.7676 53.8579 42.5566 54.4204 42.5566C54.7798 42.5566 55.1157 42.6582 55.436 42.8457C55.7563 43.0332 55.9673 43.1895 56.061 43.3066C56.1548 43.4316 56.2251 43.5254 56.2642 43.5957L57.6235 42.2363L57.5063 42.0723C57.4282 41.9629 57.2954 41.8223 57.1079 41.666C56.9282 41.5098 56.7173 41.3613 56.4829 41.2051C56.2485 41.0488 55.9517 40.916 55.5845 40.8066C55.2173 40.6973 54.8267 40.6348 54.4204 40.6348C53.272 40.6348 52.2798 41.0488 51.436 41.8613C50.6001 42.6738 50.186 43.627 50.186 44.7129ZM61.7329 42.7129H64.772V48.6348H66.936V40.791H59.5767V48.6348H61.7329V42.7129ZM73.9907 48.791C75.0063 48.791 75.8813 48.4004 76.6313 47.6113C77.3813 46.8223 77.7563 45.8535 77.7563 44.7129C77.7563 43.5723 77.3813 42.6113 76.6313 41.8223C75.8813 41.0332 75.0063 40.6348 73.9907 40.6348C73.7017 40.6348 73.4282 40.6816 73.1626 40.7598C72.897 40.8379 72.6782 40.9316 72.5142 41.0332C72.3423 41.1348 72.186 41.252 72.0454 41.377C71.9048 41.502 71.811 41.5879 71.7642 41.6348C71.7173 41.6816 71.686 41.7207 71.6704 41.752V40.791H69.5142V51.9941H71.6704V47.6738L71.9126 47.9629C72.0688 48.1504 72.3423 48.3301 72.7329 48.5176C73.1235 48.7051 73.5376 48.791 73.9907 48.791ZM73.5923 42.5566C74.1235 42.5566 74.5767 42.7598 74.9517 43.166C75.3267 43.5723 75.5142 44.0879 75.5142 44.7207C75.5142 45.3457 75.3267 45.8691 74.9517 46.2754C74.5767 46.6816 74.1235 46.8848 73.5923 46.8848C73.061 46.8848 72.6079 46.6816 72.2329 46.2754C71.8579 45.8691 71.6704 45.3457 71.6704 44.7207C71.6704 44.0879 71.8579 43.5723 72.2329 43.166C72.6079 42.7598 73.061 42.5566 73.5923 42.5566ZM87.2954 45.4316L87.3735 44.5566C87.3735 43.4395 86.9985 42.5098 86.2563 41.7598C85.5063 41.0098 84.5767 40.6348 83.4595 40.6348C82.3345 40.6348 81.3735 41.041 80.5767 41.8379C79.772 42.6348 79.3735 43.5957 79.3735 44.7129C79.3735 45.8379 79.7798 46.7988 80.5923 47.5957C81.4048 48.3926 82.3813 48.791 83.5376 48.791C83.9438 48.791 84.3345 48.7441 84.7173 48.6504C85.1001 48.5566 85.4126 48.4551 85.6548 48.3301C85.8892 48.2051 86.1157 48.0645 86.3345 47.9082C86.5454 47.752 86.686 47.6426 86.7485 47.5801L86.897 47.4316L85.7798 45.9941L85.5532 46.2363C85.4126 46.4004 85.1626 46.5645 84.8188 46.7207C84.4751 46.877 84.1001 46.9551 83.6938 46.9551C83.1313 46.9551 82.6626 46.8145 82.2954 46.5176C81.9204 46.2207 81.6938 45.8613 81.6157 45.4316H87.2954ZM83.4595 42.4785C83.9126 42.4785 84.3032 42.6191 84.6157 42.8848C84.9282 43.1582 85.1313 43.502 85.2173 43.916H81.6157C81.7407 43.4941 81.9673 43.1426 82.2876 42.877C82.6079 42.6113 82.9985 42.4785 83.4595 42.4785ZM88.9985 44.7129C88.9985 45.8066 89.4126 46.7598 90.2563 47.5723C91.0923 48.3848 92.0845 48.791 93.2329 48.791C93.6392 48.791 94.0298 48.7363 94.397 48.6191C94.7642 48.502 95.061 48.377 95.2876 48.2363C95.522 48.0957 95.7329 47.9395 95.9282 47.7598C96.1313 47.5801 96.2563 47.4551 96.311 47.377C96.3657 47.2988 96.4048 47.2441 96.436 47.1973L95.1548 45.8379L94.9438 46.1035C94.8032 46.2754 94.5688 46.4473 94.2485 46.6191C93.9282 46.791 93.5923 46.877 93.2329 46.877C92.6704 46.877 92.186 46.666 91.772 46.2441C91.3657 45.8223 91.1548 45.3145 91.1548 44.7207C91.1548 44.127 91.3657 43.6113 91.772 43.1895C92.1782 42.7676 92.6704 42.5566 93.2329 42.5566C93.5923 42.5566 93.9282 42.6582 94.2485 42.8457C94.5688 43.0332 94.7798 43.1895 94.8735 43.3066C94.9673 43.4316 95.0376 43.5254 95.0767 43.5957L96.436 42.2363L96.3188 42.0723C96.2407 41.9629 96.1079 41.8223 95.9204 41.666C95.7407 41.5098 95.5298 41.3613 95.2954 41.2051C95.061 41.0488 94.7642 40.916 94.397 40.8066C94.0298 40.6973 93.6392 40.6348 93.2329 40.6348C92.0845 40.6348 91.0923 41.0488 90.2485 41.8613C89.4126 42.6738 88.9985 43.627 88.9985 44.7129ZM97.5767 44.7129C97.5767 45.8066 97.9907 46.7598 98.8345 47.5723C99.6704 48.3848 100.663 48.791 101.811 48.791C102.217 48.791 102.608 48.7363 102.975 48.6191C103.342 48.502 103.639 48.377 103.866 48.2363C104.1 48.0957 104.311 47.9395 104.506 47.7598C104.709 47.5801 104.834 47.4551 104.889 47.377C104.944 47.2988 104.983 47.2441 105.014 47.1973L103.733 45.8379L103.522 46.1035C103.381 46.2754 103.147 46.4473 102.827 46.6191C102.506 46.791 102.17 46.877 101.811 46.877C101.249 46.877 100.764 46.666 100.35 46.2441C99.9438 45.8223 99.7329 45.3145 99.7329 44.7207C99.7329 44.127 99.9438 43.6113 100.35 43.1895C100.756 42.7676 101.249 42.5566 101.811 42.5566C102.17 42.5566 102.506 42.6582 102.827 42.8457C103.147 43.0332 103.358 43.1895 103.452 43.3066C103.545 43.4316 103.616 43.5254 103.655 43.5957L105.014 42.2363L104.897 42.0723C104.819 41.9629 104.686 41.8223 104.499 41.666C104.319 41.5098 104.108 41.3613 103.874 41.2051C103.639 41.0488 103.342 40.916 102.975 40.8066C102.608 40.6973 102.217 40.6348 101.811 40.6348C100.663 40.6348 99.6704 41.0488 98.8267 41.8613C97.9907 42.6738 97.5767 43.627 97.5767 44.7129ZM109.709 46.7129V50.4785H111.866V48.6348H116.35V50.4785H118.506V46.7129H117.467V40.791H111.467V42.9551C111.467 43.4473 111.42 43.916 111.327 44.3613C111.233 44.7988 111.131 45.1582 111.022 45.4238C110.913 45.6895 110.78 45.9395 110.631 46.166C110.483 46.3848 110.381 46.5254 110.319 46.5879C110.256 46.6426 110.217 46.6895 110.186 46.7207L109.709 46.7129ZM113.467 42.7207H115.311V46.7207H112.428L112.702 46.3066C112.874 46.0254 113.038 45.5957 113.209 45.0098C113.381 44.4238 113.467 43.8223 113.467 43.2051V42.7207ZM122.209 44.7207C122.209 44.1348 122.397 43.6426 122.78 43.2363C123.155 42.8379 123.608 42.6348 124.131 42.6348C124.647 42.6348 125.1 42.8379 125.483 43.2363C125.858 43.6426 126.053 44.1348 126.053 44.7207C126.053 45.3066 125.858 45.7988 125.483 46.1973C125.1 46.5957 124.647 46.791 124.131 46.791C123.608 46.791 123.155 46.5957 122.78 46.1973C122.397 45.7988 122.209 45.3066 122.209 44.7207ZM128.288 44.7129C128.288 43.627 127.874 42.6738 127.045 41.8613C126.217 41.0488 125.249 40.6426 124.131 40.6426C123.006 40.6426 122.038 41.0488 121.209 41.8613C120.381 42.6738 119.967 43.627 119.967 44.7129C119.967 45.8066 120.381 46.7598 121.209 47.5723C122.038 48.3848 123.006 48.791 124.131 48.791C125.249 48.791 126.217 48.3848 127.045 47.5723C127.874 46.7598 128.288 45.8066 128.288 44.7129ZM129.905 44.7129C129.905 45.8066 130.319 46.7598 131.163 47.5723C131.999 48.3848 132.991 48.791 134.139 48.791C134.545 48.791 134.936 48.7363 135.303 48.6191C135.67 48.502 135.967 48.377 136.194 48.2363C136.428 48.0957 136.639 47.9395 136.834 47.7598C137.038 47.5801 137.163 47.4551 137.217 47.377C137.272 47.2988 137.311 47.2441 137.342 47.1973L136.061 45.8379L135.85 46.1035C135.709 46.2754 135.475 46.4473 135.155 46.6191C134.834 46.791 134.499 46.877 134.139 46.877C133.577 46.877 133.092 46.666 132.678 46.2441C132.272 45.8223 132.061 45.3145 132.061 44.7207C132.061 44.127 132.272 43.6113 132.678 43.1895C133.084 42.7676 133.577 42.5566 134.139 42.5566C134.499 42.5566 134.834 42.6582 135.155 42.8457C135.475 43.0332 135.686 43.1895 135.78 43.3066C135.874 43.4316 135.944 43.5254 135.983 43.5957L137.342 42.2363L137.225 42.0723C137.147 41.9629 137.014 41.8223 136.827 41.666C136.647 41.5098 136.436 41.3613 136.202 41.2051C135.967 41.0488 135.67 40.916 135.303 40.8066C134.936 40.6973 134.545 40.6348 134.139 40.6348C132.991 40.6348 131.999 41.0488 131.155 41.8613C130.319 42.6738 129.905 43.627 129.905 44.7129ZM138.491 42.877H140.975V48.6348H143.131V42.877H145.616V40.791H138.491V42.877ZM151.709 48.6348H153.866V43.752C153.866 42.8613 153.553 42.1191 152.928 41.5254C152.303 40.9316 151.491 40.6348 150.506 40.6348C150.124 40.6348 149.749 40.6973 149.381 40.8066C149.022 40.916 148.725 41.041 148.499 41.1738C148.28 41.3066 148.069 41.4551 147.881 41.627C147.694 41.7988 147.569 41.9238 147.514 41.9941C147.459 42.0645 147.413 42.1191 147.381 42.1582L148.577 43.3535L148.756 43.166C148.881 43.0254 149.084 42.8926 149.374 42.7598C149.67 42.627 149.991 42.5566 150.342 42.5566C150.772 42.5566 151.108 42.666 151.342 42.8691C151.584 43.0801 151.702 43.3457 151.702 43.6738L149.217 44.1191C148.499 44.252 147.928 44.5332 147.514 44.9551C147.108 45.3848 146.897 45.916 146.897 46.5566C146.897 47.1816 147.147 47.7051 147.631 48.1426C148.124 48.5801 148.756 48.791 149.538 48.791C149.944 48.791 150.334 48.7051 150.709 48.5332C151.084 48.3613 151.334 48.2207 151.444 48.1113C151.553 48.002 151.639 47.916 151.702 47.8379L151.709 48.6348ZM150.1 47.0332C149.413 47.0332 149.061 46.7676 149.061 46.2363C149.061 45.7441 149.358 45.4473 149.944 45.3535L151.702 45.0332V45.2754C151.702 45.8301 151.561 46.2598 151.272 46.5723C150.983 46.8848 150.592 47.0332 150.1 47.0332ZM156.452 40.791V48.6348H160.53C161.381 48.6348 162.061 48.416 162.569 47.9707C163.077 47.5332 163.334 46.9785 163.334 46.3145C163.334 46.0645 163.288 45.8301 163.194 45.6113C163.1 45.4004 162.999 45.2363 162.889 45.1113C162.78 44.9863 162.647 44.877 162.499 44.7832C162.342 44.6895 162.241 44.627 162.186 44.6035C162.124 44.5879 162.084 44.5723 162.053 44.5566L162.288 44.4082C162.444 44.3301 162.608 44.1504 162.772 43.8848C162.928 43.6191 163.014 43.3145 163.014 42.9551C163.014 42.3691 162.764 41.8613 162.28 41.4316C161.788 41.0098 161.155 40.791 160.374 40.791H156.452ZM160.374 45.2754C160.616 45.2754 160.811 45.3535 160.952 45.502C161.092 45.6504 161.17 45.8379 161.17 46.0723C161.17 46.3066 161.092 46.502 160.952 46.6504C160.811 46.8066 160.616 46.877 160.374 46.877H158.608V45.2754H160.374ZM160.85 43.1973C160.85 43.627 160.631 43.8379 160.209 43.8379H158.608V42.5566H160.209C160.631 42.5566 160.85 42.7754 160.85 43.1973ZM172.874 40.791H170.397L167.592 43.9941V40.791H165.436V48.6348H167.592V46.7129L168.553 45.5957L170.631 48.6348H173.038L169.913 44.1582L172.874 40.791ZM178.897 48.6348H181.053V43.752C181.053 42.8613 180.741 42.1191 180.116 41.5254C179.491 40.9316 178.678 40.6348 177.694 40.6348C177.311 40.6348 176.936 40.6973 176.569 40.8066C176.209 40.916 175.913 41.041 175.686 41.1738C175.467 41.3066 175.256 41.4551 175.069 41.627C174.881 41.7988 174.756 41.9238 174.702 41.9941C174.647 42.0645 174.6 42.1191 174.569 42.1582L175.764 43.3535L175.944 43.166C176.069 43.0254 176.272 42.8926 176.561 42.7598C176.858 42.627 177.178 42.5566 177.53 42.5566C177.959 42.5566 178.295 42.666 178.53 42.8691C178.772 43.0801 178.889 43.3457 178.889 43.6738L176.405 44.1191C175.686 44.252 175.116 44.5332 174.702 44.9551C174.295 45.3848 174.084 45.916 174.084 46.5566C174.084 47.1816 174.334 47.7051 174.819 48.1426C175.311 48.5801 175.944 48.791 176.725 48.791C177.131 48.791 177.522 48.7051 177.897 48.5332C178.272 48.3613 178.522 48.2207 178.631 48.1113C178.741 48.002 178.827 47.916 178.889 47.8379L178.897 48.6348ZM177.288 47.0332C176.6 47.0332 176.249 46.7676 176.249 46.2363C176.249 45.7441 176.545 45.4473 177.131 45.3535L178.889 45.0332V45.2754C178.889 45.8301 178.749 46.2598 178.459 46.5723C178.17 46.8848 177.78 47.0332 177.288 47.0332Z" fill="#363A45"/>
<circle cx="105.499" cy="115.131" r="32.5" fill="#CCEFDB"/>
<path d="M86.4937 104.047C86.4937 101.791 88.322 99.9629 90.5773 99.9629H128.452C130.707 99.9629 132.535 101.791 132.535 104.047V131.568H90.5773C88.322 131.568 86.4937 129.74 86.4937 127.484V104.047Z" fill="#F89358"/>
<path fill-rule="evenodd" clip-rule="evenodd" d="M88.7185 105.421C88.7185 103.278 90.4556 101.541 92.5984 101.541H128.584C130.727 101.541 132.464 103.278 132.464 105.421V109.908H140.559C142.079 109.908 143.458 110.795 144.089 112.176L147.648 119.971C147.879 120.476 147.998 121.026 147.998 121.582V127.689C147.998 129.831 146.261 131.569 144.118 131.569H132.464V131.57H92.5984C90.4556 131.57 88.7185 129.833 88.7185 127.69V105.421Z" fill="#FFB762"/>
<path d="M141.108 113.07H135.615C135.186 113.07 134.839 113.418 134.839 113.846V120.046C134.839 120.475 135.186 120.822 135.615 120.822H144.209C144.774 120.822 145.149 120.238 144.915 119.724L142.196 113.769C142.001 113.344 141.576 113.07 141.108 113.07Z" fill="white"/>
<path d="M132.96 136.125C129.829 136.125 127.291 133.587 127.291 130.456C127.291 127.325 129.829 124.787 132.96 124.787C136.091 124.787 138.629 127.325 138.629 130.456C138.629 133.587 136.091 136.125 132.96 136.125Z" fill="white"/>
<path d="M132.96 133.293C131.395 133.293 130.125 132.024 130.125 130.458C130.125 128.892 131.395 127.623 132.96 127.623C134.526 127.623 135.795 128.892 135.795 130.458C135.795 132.024 134.526 133.293 132.96 133.293Z" fill="#F89358"/>
<path d="M102.571 136.125C99.4404 136.125 96.9022 133.587 96.9022 130.456C96.9022 127.325 99.4404 124.787 102.571 124.787C105.702 124.787 108.24 127.325 108.24 130.456C108.24 133.587 105.702 136.125 102.571 136.125Z" fill="white"/>
<path d="M102.572 133.293C101.006 133.293 99.7368 132.024 99.7368 130.458C99.7368 128.892 101.006 127.623 102.572 127.623C104.137 127.623 105.406 128.892 105.406 130.458C105.406 132.024 104.137 133.293 102.572 133.293Z" fill="#F89358"/>
<path d="M110.255 113.072H113.26V119.928H114.552C117.451 119.928 118.9 118.52 118.898 115.703C118.898 112.944 117.553 111.565 114.863 111.566H114.321V109.334L114.709 109.334C117.023 109.334 118.82 109.889 120.102 111C121.383 112.11 122.024 113.656 122.023 115.638C122.023 117.748 121.359 119.363 120.032 120.484C118.705 121.605 116.785 122.168 114.27 122.176H110.255V113.072Z" fill="#00C65E"/>
<path d="M113.262 109.334H110.255V112.013H113.262V109.334Z" fill="#00C65E"/>
<path d="M65.416 109.332L76.3725 109.332" stroke="#00C65E" stroke-width="2.44411" stroke-linecap="round"/>
<path d="M75.7932 113.947L83.2165 113.947" stroke="#FFB762" stroke-width="1.6294" stroke-linecap="round"/>
<path d="M56.5796 119.549L74.27 119.549" stroke="#00C65E" stroke-width="2.44411" stroke-linecap="round"/>
<path d="M68.5366 126.273L78.0185 126.273" stroke="#FFB762" stroke-width="1.6294" stroke-linecap="round"/>
<path d="M117.109 127.459C123.573 127.459 128.813 122.219 128.813 115.756C128.813 109.292 123.573 104.053 117.109 104.053C110.646 104.053 105.406 109.292 105.406 115.756C105.406 122.219 110.646 127.459 117.109 127.459Z" fill="#00C65E"/>
<path d="M117.11 125.699C122.601 125.699 127.053 121.248 127.053 115.756C127.053 110.264 122.601 105.812 117.11 105.812C111.618 105.812 107.166 110.264 107.166 115.756C107.166 121.248 111.618 125.699 117.11 125.699Z" fill="white"/>
<path d="M117.11 125.818C115.119 125.818 113.173 125.227 111.519 124.121C109.864 123.015 108.574 121.443 107.813 119.604C107.051 117.765 106.852 115.741 107.241 113.789C107.629 111.837 108.588 110.044 109.996 108.637C111.403 107.229 113.197 106.271 115.149 105.883C117.101 105.495 119.125 105.694 120.964 106.456C122.803 107.218 124.374 108.508 125.48 110.163C126.586 111.818 127.176 113.763 127.176 115.754C127.173 118.423 126.111 120.981 124.224 122.868C122.337 124.755 119.778 125.816 117.11 125.818ZM117.11 105.931C115.167 105.931 113.268 106.508 111.653 107.587C110.037 108.666 108.778 110.2 108.035 111.995C107.291 113.79 107.097 115.765 107.476 117.67C107.855 119.576 108.79 121.326 110.164 122.7C111.538 124.073 113.288 125.009 115.193 125.388C117.099 125.767 119.074 125.572 120.869 124.829C122.663 124.085 124.197 122.826 125.277 121.211C126.356 119.596 126.932 117.697 126.932 115.754C126.93 113.149 125.895 110.652 124.053 108.809C122.212 106.967 119.714 105.931 117.11 105.928V105.931Z" fill="white"/>
<path d="M117.104 116.57C117.549 116.57 117.909 116.209 117.909 115.765C117.909 115.32 117.549 114.959 117.104 114.959C116.659 114.959 116.298 115.32 116.298 115.765C116.298 116.209 116.659 116.57 117.104 116.57Z" fill="#00C65E"/>
<path d="M117.5 107.882V106.882C117.5 106.668 117.326 106.494 117.112 106.494C116.898 106.494 116.724 106.668 116.724 106.882V107.882C116.724 108.096 116.898 108.27 117.112 108.27C117.326 108.27 117.5 108.096 117.5 107.882Z" fill="#00C65E"/>
<path d="M117.493 124.642V123.642C117.493 123.428 117.319 123.254 117.105 123.254C116.89 123.254 116.717 123.428 116.717 123.642V124.642C116.717 124.856 116.89 125.03 117.105 125.03C117.319 125.03 117.493 124.856 117.493 124.642Z" fill="#00C65E"/>
<path d="M109.223 115.371H108.223C108.009 115.371 107.835 115.544 107.835 115.759C107.835 115.973 108.009 116.146 108.223 116.146H109.223C109.437 116.146 109.611 115.973 109.611 115.759C109.611 115.544 109.437 115.371 109.223 115.371Z" fill="#00C65E"/>
<path d="M125.985 115.375H124.985C124.771 115.375 124.597 115.548 124.597 115.762C124.597 115.977 124.771 116.15 124.985 116.15H125.985C126.199 116.15 126.373 115.977 126.373 115.762C126.373 115.548 126.199 115.375 125.985 115.375Z" fill="#00C65E"/>
<path d="M117.602 115.763H116.62L116.352 109.91H117.87L117.602 115.763Z" fill="#00C65E"/>
<path d="M118.9 109.608C119.017 109.725 118.934 109.926 118.768 109.926H115.451C115.286 109.926 115.203 109.725 115.32 109.608L116.978 107.95C117.051 107.877 117.169 107.877 117.241 107.95L118.9 109.608Z" fill="#00C65E"/>
<path d="M117.562 116.139L117.325 115.762L122.136 112.417L122.659 113.248L117.562 116.139Z" fill="#00C65E"/>
<path d="M123.089 113.568C123.065 113.675 122.922 113.699 122.864 113.606L121.901 112.075C121.842 111.982 121.925 111.864 122.033 111.888L123.281 112.172C123.347 112.187 123.389 112.253 123.374 112.32L123.089 113.568Z" fill="#00C65E"/>
</g>
<defs>
<filter id="filter0_d_1457_532" x="-0.00146484" y="0.630859" width="213" height="188" filterUnits="userSpaceOnUse" color-interpolation-filters="sRGB">
<feFlood flood-opacity="0" result="BackgroundImageFix"/>
<feColorMatrix in="SourceAlpha" type="matrix" values="0 0 0 0 0 0 0 0 0 0 0 0 0 0 0 0 0 0 127 0" result="hardAlpha"/>
<feMorphology radius="3" operator="dilate" in="SourceAlpha" result="effect1_dropShadow_1457_532"/>
<feOffset dx="1" dy="2"/>
<feGaussianBlur stdDeviation="8"/>
<feColorMatrix type="matrix" values="0 0 0 0 0.211765 0 0 0 0 0.227451 0 0 0 0 0.270588 0 0 0 0.08 0"/>
<feBlend mode="normal" in2="BackgroundImageFix" result="effect1_dropShadow_1457_532"/>
<feBlend mode="normal" in="SourceGraphic" in2="effect1_dropShadow_1457_532" result="shape"/>
</filter>
</defs>
</svg>
