<svg width="213" height="189" viewBox="0 0 213 189" fill="none" xmlns="http://www.w3.org/2000/svg">
<g filter="url(#filter0_d_1457_478)">
<rect x="17.9985" y="17.6309" width="175" height="150" rx="10" fill="white"/>
<path d="M46.5142 40.041C46.5142 39.0098 46.8579 38.1348 47.561 37.4238C48.2563 36.7129 49.1079 36.3535 50.1079 36.3535C51.1079 36.3535 51.9595 36.7129 52.6548 37.4238C53.3579 38.1348 53.7017 39.0098 53.7017 40.041C53.7017 41.0723 53.3579 41.9473 52.6548 42.6504C51.9595 43.3613 51.1079 43.7129 50.1079 43.7129C49.1079 43.7129 48.2563 43.3613 47.561 42.6504C46.8579 41.9473 46.5142 41.0723 46.5142 40.041ZM44.0298 40.0332C44.0298 41.6426 44.6157 43.0254 45.7876 44.166C46.9595 45.3066 48.4048 45.877 50.1079 45.877C51.811 45.877 53.2563 45.3066 54.4282 44.166C55.6001 43.0254 56.186 41.6426 56.186 40.0332C56.186 38.4238 55.6001 37.0488 54.4282 35.9082C53.2563 34.7676 51.811 34.1973 50.1079 34.1973C48.4048 34.1973 46.9595 34.7676 45.7876 35.9082C44.6157 37.0488 44.0298 38.4238 44.0298 40.0332ZM60.6157 39.7129H63.6548V45.6348H65.8188V37.791H58.4595V45.6348H60.6157V39.7129ZM69.1938 37.791V39.9551C69.1938 41.0488 69.1313 41.877 69.022 42.4473C68.9126 43.0176 68.7642 43.3848 68.5845 43.5488C68.397 43.7129 68.147 43.791 67.8345 43.791C67.6782 43.791 67.5142 43.7676 67.3579 43.7129V45.6348L67.4985 45.6973C67.5845 45.7285 67.7173 45.7676 67.9048 45.8145C68.0923 45.8613 68.2798 45.877 68.4751 45.877C69.0688 45.877 69.561 45.7285 69.9517 45.4316C70.3423 45.1348 70.6548 44.5488 70.9048 43.6895C71.1548 42.8301 71.2798 41.666 71.2798 40.2051V39.7207H73.3579V45.6426H75.5142V37.7988L69.1938 37.791ZM82.4204 45.6348H84.5767V40.752C84.5767 39.8613 84.2642 39.1191 83.6392 38.5254C83.0142 37.9316 82.2017 37.6348 81.2173 37.6348C80.8345 37.6348 80.4595 37.6973 80.0923 37.8066C79.7329 37.916 79.436 38.041 79.2095 38.1738C78.9907 38.3066 78.7798 38.4551 78.5923 38.627C78.4048 38.7988 78.2798 38.9238 78.2251 38.9941C78.1704 39.0645 78.1235 39.1191 78.0923 39.1582L79.2876 40.3535L79.4673 40.166C79.5923 40.0254 79.7954 39.8926 80.0845 39.7598C80.3813 39.627 80.7017 39.5566 81.0532 39.5566C81.4829 39.5566 81.8188 39.666 82.0532 39.8691C82.2954 40.0801 82.4126 40.3457 82.4126 40.6738L79.9282 41.1191C79.2095 41.252 78.6392 41.5332 78.2251 41.9551C77.8188 42.3848 77.6079 42.916 77.6079 43.5566C77.6079 44.1816 77.8579 44.7051 78.3423 45.1426C78.8345 45.5801 79.4673 45.791 80.2485 45.791C80.6548 45.791 81.0454 45.7051 81.4204 45.5332C81.7954 45.3613 82.0454 45.2207 82.1548 45.1113C82.2642 45.002 82.3501 44.916 82.4126 44.8379L82.4204 45.6348ZM80.811 44.0332C80.1235 44.0332 79.772 43.7676 79.772 43.2363C79.772 42.7441 80.0688 42.4473 80.6548 42.3535L82.4126 42.0332V42.2754C82.4126 42.8301 82.272 43.2598 81.9829 43.5723C81.6938 43.8848 81.3032 44.0332 80.811 44.0332ZM86.3579 39.877H88.8423V45.6348H90.9985V39.877H93.4829V37.791H86.3579V39.877ZM99.5767 45.6348H101.733V40.752C101.733 39.8613 101.42 39.1191 100.795 38.5254C100.17 37.9316 99.3579 37.6348 98.3735 37.6348C97.9907 37.6348 97.6157 37.6973 97.2485 37.8066C96.8892 37.916 96.5923 38.041 96.3657 38.1738C96.147 38.3066 95.936 38.4551 95.7485 38.627C95.561 38.7988 95.436 38.9238 95.3813 38.9941C95.3267 39.0645 95.2798 39.1191 95.2485 39.1582L96.4438 40.3535L96.6235 40.166C96.7485 40.0254 96.9517 39.8926 97.2407 39.7598C97.5376 39.627 97.8579 39.5566 98.2095 39.5566C98.6392 39.5566 98.9751 39.666 99.2095 39.8691C99.4517 40.0801 99.5688 40.3457 99.5688 40.6738L97.0845 41.1191C96.3657 41.252 95.7954 41.5332 95.3813 41.9551C94.9751 42.3848 94.7642 42.916 94.7642 43.5566C94.7642 44.1816 95.0142 44.7051 95.4985 45.1426C95.9907 45.5801 96.6235 45.791 97.4048 45.791C97.811 45.791 98.2017 45.7051 98.5767 45.5332C98.9517 45.3613 99.2017 45.2207 99.311 45.1113C99.4204 45.002 99.5063 44.916 99.5688 44.8379L99.5767 45.6348ZM97.9673 44.0332C97.2798 44.0332 96.9282 43.7676 96.9282 43.2363C96.9282 42.7441 97.2251 42.4473 97.811 42.3535L99.5688 42.0332V42.2754C99.5688 42.8301 99.4282 43.2598 99.1392 43.5723C98.8501 43.8848 98.4595 44.0332 97.9673 44.0332ZM108.897 37.791V39.9551C108.897 41.0488 108.834 41.877 108.725 42.4473C108.616 43.0176 108.467 43.3848 108.288 43.5488C108.1 43.7129 107.85 43.791 107.538 43.791C107.381 43.791 107.217 43.7676 107.061 43.7129V45.6348L107.202 45.6973C107.288 45.7285 107.42 45.7676 107.608 45.8145C107.795 45.8613 107.983 45.877 108.178 45.877C108.772 45.877 109.264 45.7285 109.655 45.4316C110.045 45.1348 110.358 44.5488 110.608 43.6895C110.858 42.8301 110.983 41.666 110.983 40.2051V39.7207H113.061V45.6426H115.217V37.7988L108.897 37.791ZM129.241 41.7129C129.241 40.5957 128.834 39.6348 128.038 38.8379C127.241 38.041 126.28 37.6426 125.163 37.6426C124.163 37.6426 123.295 37.9551 122.545 38.5879C121.795 39.2207 121.334 39.9473 121.163 40.7598H119.959V37.7988H117.803V45.6426H119.959V42.6816H121.163C121.334 43.4941 121.795 44.2129 122.545 44.8457C123.295 45.4785 124.17 45.7988 125.163 45.7988C126.28 45.7988 127.241 45.3926 128.038 44.5957C128.834 43.7988 129.241 42.8379 129.241 41.7129ZM127.084 41.7207C127.084 42.3457 126.897 42.8691 126.522 43.2754C126.147 43.6816 125.694 43.8848 125.163 43.8848C124.631 43.8848 124.178 43.6816 123.803 43.2754C123.428 42.8691 123.241 42.3457 123.241 41.7207C123.241 41.0879 123.428 40.5723 123.803 40.166C124.178 39.7598 124.631 39.5645 125.163 39.5645C125.694 39.5645 126.147 39.7598 126.522 40.166C126.897 40.5723 127.084 41.0879 127.084 41.7207ZM139.35 41.877C139.35 40.8145 138.975 39.8926 138.233 39.1191C137.491 38.3457 136.639 37.9551 135.67 37.9551C135.397 37.9551 135.131 38.002 134.874 38.0801C134.608 38.1582 134.397 38.252 134.225 38.3535C134.053 38.4551 133.897 38.5723 133.749 38.6973C133.592 38.8223 133.499 38.9082 133.452 38.9551C133.405 39.002 133.366 39.041 133.35 39.0723C133.459 38.4316 133.733 37.9004 134.163 37.4707C134.584 37.041 135.139 36.752 135.827 36.5957C136.577 36.4238 137.225 36.2441 137.756 36.041C138.288 35.8457 138.608 35.7129 138.717 35.6426C138.827 35.5801 138.897 35.5254 138.944 35.4785L137.991 33.877L137.717 34.0176C137.53 34.1113 137.209 34.2207 136.741 34.3613C136.272 34.502 135.749 34.6348 135.186 34.752C133.905 35.0176 132.913 35.6113 132.225 36.541C131.53 37.4785 131.186 38.8535 131.186 40.6738C131.186 42.3066 131.569 43.5645 132.342 44.4551C133.116 45.3457 134.147 45.791 135.428 45.791C136.569 45.791 137.506 45.416 138.241 44.6582C138.975 43.9082 139.35 42.9785 139.35 41.877ZM133.584 41.877C133.584 41.291 133.756 40.8145 134.116 40.4395C134.467 40.0645 134.905 39.877 135.428 39.877C135.913 39.877 136.327 40.0645 136.67 40.4395C137.014 40.8145 137.186 41.291 137.186 41.877C137.186 42.4629 137.014 42.9395 136.67 43.3145C136.327 43.6895 135.913 43.877 135.428 43.877C134.905 43.877 134.467 43.6895 134.116 43.3145C133.756 42.9395 133.584 42.4629 133.584 41.877ZM151.295 37.791H149.131V45.6348H151.295V37.791ZM143.772 43.877V41.9551H145.053C145.327 41.9551 145.553 42.0488 145.733 42.2285C145.92 42.416 146.006 42.6426 146.006 42.916C146.006 43.1973 145.92 43.4238 145.733 43.6035C145.553 43.791 145.327 43.877 145.053 43.877H143.772ZM148.178 42.916C148.178 42.1035 147.905 41.4473 147.366 40.9473C146.819 40.4473 146.077 40.1973 145.131 40.1973H143.772V37.791H141.616V45.6348H145.131C146.084 45.6348 146.827 45.3848 147.366 44.8848C147.905 44.3848 148.178 43.7285 148.178 42.916ZM158.124 43.7129L160.202 40.9941V45.6348H162.358V37.791H160.522L158.124 40.916L155.717 37.791H153.881V45.6348H156.038V40.9941L158.124 43.7129ZM66.5688 65.7129C66.5688 66.8066 66.9829 67.7598 67.8267 68.5723C68.6626 69.3848 69.6548 69.791 70.8032 69.791C71.2095 69.791 71.6001 69.7363 71.9673 69.6191C72.3345 69.502 72.6313 69.377 72.8579 69.2363C73.0923 69.0957 73.3032 68.9395 73.4985 68.7598C73.7017 68.5801 73.8267 68.4551 73.8813 68.377C73.936 68.2988 73.9751 68.2441 74.0063 68.1973L72.7251 66.8379L72.5142 67.1035C72.3735 67.2754 72.1392 67.4473 71.8188 67.6191C71.4985 67.791 71.1626 67.877 70.8032 67.877C70.2407 67.877 69.7563 67.666 69.3423 67.2441C68.936 66.8223 68.7251 66.3145 68.7251 65.7207C68.7251 65.127 68.936 64.6113 69.3423 64.1895C69.7485 63.7676 70.2407 63.5566 70.8032 63.5566C71.1626 63.5566 71.4985 63.6582 71.8188 63.8457C72.1392 64.0332 72.3501 64.1895 72.4438 64.3066C72.5376 64.4316 72.6079 64.5254 72.647 64.5957L74.0063 63.2363L73.8892 63.0723C73.811 62.9629 73.6782 62.8223 73.4907 62.666C73.311 62.5098 73.1001 62.3613 72.8657 62.2051C72.6313 62.0488 72.3345 61.916 71.9673 61.8066C71.6001 61.6973 71.2095 61.6348 70.8032 61.6348C69.6548 61.6348 68.6626 62.0488 67.8188 62.8613C66.9829 63.6738 66.5688 64.627 66.5688 65.7129ZM78.1157 63.7129H81.1548V69.6348H83.3188V61.791H75.9595V69.6348H78.1157V63.7129ZM87.6548 65.7207C87.6548 65.1348 87.8423 64.6426 88.2251 64.2363C88.6001 63.8379 89.0532 63.6348 89.5767 63.6348C90.0923 63.6348 90.5454 63.8379 90.9282 64.2363C91.3032 64.6426 91.4985 65.1348 91.4985 65.7207C91.4985 66.3066 91.3032 66.7988 90.9282 67.1973C90.5454 67.5957 90.0923 67.791 89.5767 67.791C89.0532 67.791 88.6001 67.5957 88.2251 67.1973C87.8423 66.7988 87.6548 66.3066 87.6548 65.7207ZM93.7329 65.7129C93.7329 64.627 93.3188 63.6738 92.4907 62.8613C91.6626 62.0488 90.6938 61.6426 89.5767 61.6426C88.4517 61.6426 87.4829 62.0488 86.6548 62.8613C85.8267 63.6738 85.4126 64.627 85.4126 65.7129C85.4126 66.8066 85.8267 67.7598 86.6548 68.5723C87.4829 69.3848 88.4517 69.791 89.5767 69.791C90.6938 69.791 91.6626 69.3848 92.4907 68.5723C93.3188 67.7598 93.7329 66.8066 93.7329 65.7129ZM95.3501 65.7129C95.3501 66.8066 95.7642 67.7598 96.6079 68.5723C97.4438 69.3848 98.436 69.791 99.5845 69.791C99.9907 69.791 100.381 69.7363 100.749 69.6191C101.116 69.502 101.413 69.377 101.639 69.2363C101.874 69.0957 102.084 68.9395 102.28 68.7598C102.483 68.5801 102.608 68.4551 102.663 68.377C102.717 68.2988 102.756 68.2441 102.788 68.1973L101.506 66.8379L101.295 67.1035C101.155 67.2754 100.92 67.4473 100.6 67.6191C100.28 67.791 99.9438 67.877 99.5845 67.877C99.022 67.877 98.5376 67.666 98.1235 67.2441C97.7173 66.8223 97.5063 66.3145 97.5063 65.7207C97.5063 65.127 97.7173 64.6113 98.1235 64.1895C98.5298 63.7676 99.022 63.5566 99.5845 63.5566C99.9438 63.5566 100.28 63.6582 100.6 63.8457C100.92 64.0332 101.131 64.1895 101.225 64.3066C101.319 64.4316 101.389 64.5254 101.428 64.5957L102.788 63.2363L102.67 63.0723C102.592 62.9629 102.459 62.8223 102.272 62.666C102.092 62.5098 101.881 62.3613 101.647 62.2051C101.413 62.0488 101.116 61.916 100.749 61.8066C100.381 61.6973 99.9907 61.6348 99.5845 61.6348C98.436 61.6348 97.4438 62.0488 96.6001 62.8613C95.7642 63.6738 95.3501 64.627 95.3501 65.7129ZM106.499 65.7207C106.499 65.1348 106.686 64.6426 107.069 64.2363C107.444 63.8379 107.897 63.6348 108.42 63.6348C108.936 63.6348 109.389 63.8379 109.772 64.2363C110.147 64.6426 110.342 65.1348 110.342 65.7207C110.342 66.3066 110.147 66.7988 109.772 67.1973C109.389 67.5957 108.936 67.791 108.42 67.791C107.897 67.791 107.444 67.5957 107.069 67.1973C106.686 66.7988 106.499 66.3066 106.499 65.7207ZM112.577 65.7129C112.577 64.627 112.163 63.6738 111.334 62.8613C110.506 62.0488 109.538 61.6426 108.42 61.6426C107.295 61.6426 106.327 62.0488 105.499 62.8613C104.67 63.6738 104.256 64.627 104.256 65.7129C104.256 66.8066 104.67 67.7598 105.499 68.5723C106.327 69.3848 107.295 69.791 108.42 69.791C109.538 69.791 110.506 69.3848 111.334 68.5723C112.163 67.7598 112.577 66.8066 112.577 65.7129ZM122.6 65.877C122.6 64.8145 122.225 63.8926 121.483 63.1191C120.741 62.3457 119.889 61.9551 118.92 61.9551C118.647 61.9551 118.381 62.002 118.124 62.0801C117.858 62.1582 117.647 62.252 117.475 62.3535C117.303 62.4551 117.147 62.5723 116.999 62.6973C116.842 62.8223 116.749 62.9082 116.702 62.9551C116.655 63.002 116.616 63.041 116.6 63.0723C116.709 62.4316 116.983 61.9004 117.413 61.4707C117.834 61.041 118.389 60.752 119.077 60.5957C119.827 60.4238 120.475 60.2441 121.006 60.041C121.538 59.8457 121.858 59.7129 121.967 59.6426C122.077 59.5801 122.147 59.5254 122.194 59.4785L121.241 57.877L120.967 58.0176C120.78 58.1113 120.459 58.2207 119.991 58.3613C119.522 58.502 118.999 58.6348 118.436 58.752C117.155 59.0176 116.163 59.6113 115.475 60.541C114.78 61.4785 114.436 62.8535 114.436 64.6738C114.436 66.3066 114.819 67.5645 115.592 68.4551C116.366 69.3457 117.397 69.791 118.678 69.791C119.819 69.791 120.756 69.416 121.491 68.6582C122.225 67.9082 122.6 66.9785 122.6 65.877ZM116.834 65.877C116.834 65.291 117.006 64.8145 117.366 64.4395C117.717 64.0645 118.155 63.877 118.678 63.877C119.163 63.877 119.577 64.0645 119.92 64.4395C120.264 64.8145 120.436 65.291 120.436 65.877C120.436 66.4629 120.264 66.9395 119.92 67.3145C119.577 67.6895 119.163 67.877 118.678 67.877C118.155 67.877 117.717 67.6895 117.366 67.3145C117.006 66.9395 116.834 66.4629 116.834 65.877ZM126.624 65.7207C126.624 65.1348 126.811 64.6426 127.194 64.2363C127.569 63.8379 128.022 63.6348 128.545 63.6348C129.061 63.6348 129.514 63.8379 129.897 64.2363C130.272 64.6426 130.467 65.1348 130.467 65.7207C130.467 66.3066 130.272 66.7988 129.897 67.1973C129.514 67.5957 129.061 67.791 128.545 67.791C128.022 67.791 127.569 67.5957 127.194 67.1973C126.811 66.7988 126.624 66.3066 126.624 65.7207ZM132.702 65.7129C132.702 64.627 132.288 63.6738 131.459 62.8613C130.631 62.0488 129.663 61.6426 128.545 61.6426C127.42 61.6426 126.452 62.0488 125.624 62.8613C124.795 63.6738 124.381 64.627 124.381 65.7129C124.381 66.8066 124.795 67.7598 125.624 68.5723C126.452 69.3848 127.42 69.791 128.545 69.791C129.663 69.791 130.631 69.3848 131.459 68.5723C132.288 67.7598 132.702 66.8066 132.702 65.7129ZM139.045 67.7129L141.124 64.9941V69.6348H143.28V61.791H141.444L139.045 64.916L136.639 61.791H134.803V69.6348H136.959V64.9941L139.045 67.7129Z" fill="#363A45"/>
<circle cx="105.499" cy="115.131" r="32.5" fill="#CCEFDB"/>
<rect x="93.3088" y="130.027" width="44.2296" height="31.7135" rx="3" transform="rotate(-63.2464 93.3088 130.027)" fill="#00C65E"/>
<rect x="99.8721" y="133.336" width="44.2296" height="5.33757" transform="rotate(-63.2464 99.8721 133.336)" fill="white"/>
<circle cx="131.413" cy="107.868" r="3.50574" transform="rotate(-63.2464 131.413 107.868)" fill="#F00E0E"/>
<circle cx="129" cy="112.653" r="3.50574" transform="rotate(-63.2464 129 112.653)" fill="#FFB762"/>
<rect x="70.8082" y="107.559" width="22.4356" height="44.0441" transform="rotate(-33.21 70.8082 107.559)" fill="white" stroke="#00C65E"/>
<path d="M89.7777 118.314L87.3289 114.682L89.9276 112.93C90.4443 112.582 90.9957 112.468 91.5767 112.581C92.1576 112.694 92.6262 113.006 92.9745 113.523C93.3228 114.039 93.4366 114.591 93.3236 115.172C93.2028 115.758 92.8854 116.219 92.3764 116.562L89.7777 118.314ZM93.4422 118.143C94.4601 117.457 95.09 116.561 95.3267 115.448C95.5609 114.348 95.3543 113.309 94.7096 112.353C94.0649 111.397 93.1796 110.816 92.0668 110.613C90.9515 110.423 89.8797 110.663 88.8618 111.349L84.5203 114.276L88.0349 119.489L86.7703 120.342L87.8361 121.923L89.1007 121.07L89.8442 122.173L88.5796 123.025L89.6454 124.606L90.9101 123.754L91.9759 125.334L93.7187 124.159L92.6528 122.579L96.2001 120.187L95.1342 118.606L91.587 120.998L90.8435 119.895L93.4422 118.143Z" fill="#00C65E"/>
</g>
<defs>
<filter id="filter0_d_1457_478" x="-0.00146484" y="0.630859" width="213" height="188" filterUnits="userSpaceOnUse" color-interpolation-filters="sRGB">
<feFlood flood-opacity="0" result="BackgroundImageFix"/>
<feColorMatrix in="SourceAlpha" type="matrix" values="0 0 0 0 0 0 0 0 0 0 0 0 0 0 0 0 0 0 127 0" result="hardAlpha"/>
<feMorphology radius="3" operator="dilate" in="SourceAlpha" result="effect1_dropShadow_1457_478"/>
<feOffset dx="1" dy="2"/>
<feGaussianBlur stdDeviation="8"/>
<feColorMatrix type="matrix" values="0 0 0 0 0.211765 0 0 0 0 0.227451 0 0 0 0 0.270588 0 0 0 0.08 0"/>
<feBlend mode="normal" in2="BackgroundImageFix" result="effect1_dropShadow_1457_478"/>
<feBlend mode="normal" in="SourceGraphic" in2="effect1_dropShadow_1457_478" result="shape"/>
</filter>
</defs>
</svg>
