<svg width="213" height="189" viewBox="0 0 213 189" fill="none" xmlns="http://www.w3.org/2000/svg">
<g filter="url(#filter0_d_1457_579)">
<rect x="17.9985" y="17.6309" width="175" height="150" rx="10" fill="white"/>
<path d="M47.7954 48.6348C48.9048 48.6348 49.811 48.3145 50.5298 47.666C51.2407 47.0254 51.6001 46.252 51.6001 45.3535C51.6001 44.9941 51.5298 44.6582 51.397 44.3457C51.2642 44.0332 51.1157 43.7832 50.9595 43.5957C50.7954 43.416 50.6079 43.252 50.397 43.0957C50.1782 42.9395 50.0298 42.8457 49.9517 42.8066C49.8735 42.7676 49.8032 42.7363 49.7563 42.7129L49.8892 42.6348C49.9673 42.5879 50.0767 42.4941 50.2017 42.3691C50.3267 42.2441 50.4595 42.0879 50.5923 41.9082C50.7173 41.7363 50.8267 41.5098 50.9126 41.2441C50.9907 40.9785 51.0376 40.6895 51.0376 40.3926C51.0376 39.6113 50.7017 38.916 50.0376 38.3223C49.3735 37.7285 48.5376 37.4316 47.522 37.4316H42.7173V48.6348H47.7954ZM45.1235 46.6348V43.752H47.6782C48.1157 43.752 48.4751 43.8926 48.7642 44.1738C49.0532 44.4551 49.2017 44.791 49.2017 45.1973C49.2017 45.6035 49.0532 45.9473 48.7642 46.2207C48.4751 46.502 48.1157 46.6348 47.6782 46.6348H45.1235ZM47.3579 39.4316C47.7485 39.4316 48.061 39.541 48.2954 39.7598C48.522 39.9785 48.6392 40.2754 48.6392 40.6348C48.6392 41.002 48.522 41.291 48.2954 41.5098C48.061 41.7285 47.7485 41.8379 47.3579 41.8379H45.1235V39.4316H47.3579ZM63.5454 40.791H61.3813V48.6348H63.5454V40.791ZM56.022 46.877V44.9551H57.3032C57.5767 44.9551 57.8032 45.0488 57.9829 45.2285C58.1704 45.416 58.2563 45.6426 58.2563 45.916C58.2563 46.1973 58.1704 46.4238 57.9829 46.6035C57.8032 46.791 57.5767 46.877 57.3032 46.877H56.022ZM60.4282 45.916C60.4282 45.1035 60.1548 44.4473 59.6157 43.9473C59.0688 43.4473 58.3267 43.1973 57.3813 43.1973H56.022V40.791H53.8657V48.6348H57.3813C58.3345 48.6348 59.0767 48.3848 59.6157 47.8848C60.1548 47.3848 60.4282 46.7285 60.4282 45.916ZM71.811 40.791H66.1313V48.6348H68.2876V42.791H71.811V40.791ZM75.2642 44.7207C75.2642 44.1348 75.4517 43.6426 75.8345 43.2363C76.2095 42.8379 76.6626 42.6348 77.186 42.6348C77.7017 42.6348 78.1548 42.8379 78.5376 43.2363C78.9126 43.6426 79.1079 44.1348 79.1079 44.7207C79.1079 45.3066 78.9126 45.7988 78.5376 46.1973C78.1548 46.5957 77.7017 46.791 77.186 46.791C76.6626 46.791 76.2095 46.5957 75.8345 46.1973C75.4517 45.7988 75.2642 45.3066 75.2642 44.7207ZM81.3423 44.7129C81.3423 43.627 80.9282 42.6738 80.1001 41.8613C79.272 41.0488 78.3032 40.6426 77.186 40.6426C76.061 40.6426 75.0923 41.0488 74.2642 41.8613C73.436 42.6738 73.022 43.627 73.022 44.7129C73.022 45.8066 73.436 46.7598 74.2642 47.5723C75.0923 48.3848 76.061 48.791 77.186 48.791C78.3032 48.791 79.272 48.3848 80.1001 47.5723C80.9282 46.7598 81.3423 45.8066 81.3423 44.7129ZM82.4048 46.7129V50.4785H84.561V48.6348H89.0454V50.4785H91.2017V46.7129H90.1626V40.791H84.1626V42.9551C84.1626 43.4473 84.1157 43.916 84.022 44.3613C83.9282 44.7988 83.8267 45.1582 83.7173 45.4238C83.6079 45.6895 83.4751 45.9395 83.3267 46.166C83.1782 46.3848 83.0767 46.5254 83.0142 46.5879C82.9517 46.6426 82.9126 46.6895 82.8813 46.7207L82.4048 46.7129ZM86.1626 42.7207H88.0063V46.7207H85.1235L85.397 46.3066C85.5688 46.0254 85.7329 45.5957 85.9048 45.0098C86.0767 44.4238 86.1626 43.8223 86.1626 43.2051V42.7207ZM95.3032 45.6738H98.3423V48.6348H100.506V40.791H98.3423V43.752H95.3032V40.791H93.147V48.6348H95.3032V45.6738ZM112.764 40.791H110.6V48.6348H112.764V40.791ZM105.241 46.877V44.9551H106.522C106.795 44.9551 107.022 45.0488 107.202 45.2285C107.389 45.416 107.475 45.6426 107.475 45.916C107.475 46.1973 107.389 46.4238 107.202 46.6035C107.022 46.791 106.795 46.877 106.522 46.877H105.241ZM109.647 45.916C109.647 45.1035 109.374 44.4473 108.834 43.9473C108.288 43.4473 107.545 43.1973 106.6 43.1973H105.241V40.791H103.084V48.6348H106.6C107.553 48.6348 108.295 48.3848 108.834 47.8848C109.374 47.3848 109.647 46.7285 109.647 45.916ZM122.788 45.4316L122.866 44.5566C122.866 43.4395 122.491 42.5098 121.749 41.7598C120.999 41.0098 120.069 40.6348 118.952 40.6348C117.827 40.6348 116.866 41.041 116.069 41.8379C115.264 42.6348 114.866 43.5957 114.866 44.7129C114.866 45.8379 115.272 46.7988 116.084 47.5957C116.897 48.3926 117.874 48.791 119.03 48.791C119.436 48.791 119.827 48.7441 120.209 48.6504C120.592 48.5566 120.905 48.4551 121.147 48.3301C121.381 48.2051 121.608 48.0645 121.827 47.9082C122.038 47.752 122.178 47.6426 122.241 47.5801L122.389 47.4316L121.272 45.9941L121.045 46.2363C120.905 46.4004 120.655 46.5645 120.311 46.7207C119.967 46.877 119.592 46.9551 119.186 46.9551C118.624 46.9551 118.155 46.8145 117.788 46.5176C117.413 46.2207 117.186 45.8613 117.108 45.4316H122.788ZM118.952 42.4785C119.405 42.4785 119.795 42.6191 120.108 42.8848C120.42 43.1582 120.624 43.502 120.709 43.916H117.108C117.233 43.4941 117.459 43.1426 117.78 42.877C118.1 42.6113 118.491 42.4785 118.952 42.4785ZM128.756 48.6348H134.756V50.4785H136.913V46.7129H135.874V40.791H133.717V46.7129H130.913V40.791H128.756V48.6348ZM146.288 45.4316L146.366 44.5566C146.366 43.4395 145.991 42.5098 145.249 41.7598C144.499 41.0098 143.569 40.6348 142.452 40.6348C141.327 40.6348 140.366 41.041 139.569 41.8379C138.764 42.6348 138.366 43.5957 138.366 44.7129C138.366 45.8379 138.772 46.7988 139.584 47.5957C140.397 48.3926 141.374 48.791 142.53 48.791C142.936 48.791 143.327 48.7441 143.709 48.6504C144.092 48.5566 144.405 48.4551 144.647 48.3301C144.881 48.2051 145.108 48.0645 145.327 47.9082C145.538 47.752 145.678 47.6426 145.741 47.5801L145.889 47.4316L144.772 45.9941L144.545 46.2363C144.405 46.4004 144.155 46.5645 143.811 46.7207C143.467 46.877 143.092 46.9551 142.686 46.9551C142.124 46.9551 141.655 46.8145 141.288 46.5176C140.913 46.2207 140.686 45.8613 140.608 45.4316H146.288ZM142.452 42.4785C142.905 42.4785 143.295 42.6191 143.608 42.8848C143.92 43.1582 144.124 43.502 144.209 43.916H140.608C140.733 43.4941 140.959 43.1426 141.28 42.877C141.6 42.6113 141.991 42.4785 142.452 42.4785ZM150.631 45.6738H153.67V48.6348H155.834V40.791H153.67V43.752H150.631V40.791H148.475V48.6348H150.631V45.6738ZM168.092 40.791H165.928V48.6348H168.092V40.791ZM160.569 46.877V44.9551H161.85C162.124 44.9551 162.35 45.0488 162.53 45.2285C162.717 45.416 162.803 45.6426 162.803 45.916C162.803 46.1973 162.717 46.4238 162.53 46.6035C162.35 46.791 162.124 46.877 161.85 46.877H160.569ZM164.975 45.916C164.975 45.1035 164.702 44.4473 164.163 43.9473C163.616 43.4473 162.874 43.1973 161.928 43.1973H160.569V40.791H158.413V48.6348H161.928C162.881 48.6348 163.624 48.3848 164.163 47.8848C164.702 47.3848 164.975 46.7285 164.975 45.916Z" fill="#363A45"/>
<circle cx="105.499" cy="115.131" r="32.5" fill="#CCEFDB"/>
<path d="M114.664 93.1739C115.438 92.4026 116.547 92.0703 117.617 92.2889L134.892 95.8163C135.962 96.0348 136.851 96.7746 137.261 97.7868L140.15 104.92C140.631 106.109 140.751 107.414 140.495 108.671L134.095 140.011C133.735 141.775 132.013 142.913 130.249 142.553L103.564 137.104C101.8 136.743 100.662 135.021 101.023 133.257L107.42 101.927C107.677 100.671 108.298 99.5179 109.206 98.6129L114.664 93.1739Z" fill="#FFB762"/>
<path d="M68.2609 99.8917C68.3436 98.8022 68.9667 97.8265 69.9204 97.2932L85.3084 88.688C86.2615 88.155 87.4183 88.1346 88.3896 88.6337L95.2342 92.151C96.3756 92.7375 97.3186 93.6478 97.9449 94.7679L113.557 122.685C114.436 124.257 113.874 126.243 112.303 127.122L88.5321 140.415C86.9607 141.293 84.9744 140.732 84.0956 139.16L68.4881 111.251C67.8623 110.132 67.5803 108.853 67.6774 107.575L68.2609 99.8917Z" fill="#F89358"/>
<path d="M86.4923 111.205C86.314 111.823 86.0149 112.399 85.6125 112.901C85.21 113.403 84.7121 113.819 84.1476 114.127C83.5831 114.435 82.9631 114.628 82.3235 114.695C81.6839 114.762 81.0374 114.701 80.4214 114.517C79.8187 114.365 79.2538 114.09 78.7624 113.709C78.271 113.328 77.8637 112.85 77.566 112.304C77.2684 111.759 77.0868 111.157 77.0327 110.538C76.9787 109.919 77.0533 109.295 77.2519 108.706C77.4302 108.088 77.7293 107.512 78.1317 107.01C78.5342 106.509 79.0321 106.092 79.5966 105.784C80.1611 105.476 80.7811 105.283 81.4207 105.216C82.0603 105.149 82.7068 105.21 83.3228 105.395C83.9255 105.546 84.4904 105.821 84.9818 106.202C85.4732 106.583 85.8805 107.061 86.1782 107.607C86.4758 108.153 86.6574 108.754 86.7115 109.373C86.7655 109.992 86.6909 110.616 86.4923 111.205ZM91.1962 103.35C91.437 103.231 91.7049 103.177 91.973 103.195C92.2411 103.212 92.5 103.299 92.7237 103.448C92.9473 103.597 93.128 103.802 93.2473 104.042C93.3667 104.283 93.4207 104.551 93.4038 104.819L92.2116 124.965C92.1943 125.223 92.1116 125.472 91.9715 125.688C91.8313 125.905 91.6381 126.083 91.4103 126.204C91.171 126.325 90.9038 126.381 90.636 126.365C90.3682 126.35 90.1093 126.264 89.8856 126.116C89.6619 125.967 89.4814 125.763 89.3625 125.522C89.2436 125.282 89.1905 125.014 89.2086 124.747L90.4551 104.571C90.4681 104.322 90.5426 104.08 90.672 103.867C90.8013 103.654 90.9814 103.477 91.1962 103.35ZM81.2897 111.905C81.8071 112.047 82.3593 111.982 82.8303 111.725C83.3013 111.468 83.6544 111.039 83.8156 110.527C83.9266 110.143 83.9215 109.735 83.8009 109.354C83.6803 108.973 83.4496 108.636 83.1379 108.386C82.8261 108.135 82.4473 107.983 82.0491 107.948C81.6509 107.912 81.2512 107.995 80.9003 108.187C80.5493 108.378 80.2629 108.669 80.077 109.023C79.8912 109.377 79.8142 109.778 79.8559 110.176C79.8975 110.573 80.0559 110.95 80.311 111.257C80.5662 111.565 80.9067 111.79 81.2897 111.905ZM96.0827 118.395C96.2618 117.776 96.5616 117.199 96.9649 116.697C97.3681 116.195 97.8669 115.777 98.4323 115.469C98.9977 115.16 99.6186 114.967 100.259 114.9C100.9 114.833 101.547 114.893 102.164 115.077C102.764 115.234 103.326 115.512 103.814 115.894C104.303 116.276 104.708 116.753 105.005 117.298C105.302 117.842 105.484 118.441 105.541 119.059C105.597 119.676 105.527 120.299 105.334 120.888C105.155 121.507 104.855 122.084 104.452 122.586C104.048 123.088 103.55 123.505 102.984 123.814C102.419 124.122 101.798 124.316 101.157 124.383C100.517 124.45 99.8693 124.39 99.2522 124.205C98.6524 124.049 98.0909 123.771 97.6025 123.389C97.114 123.007 96.7089 122.529 96.412 121.985C96.1151 121.441 95.9327 120.841 95.8761 120.224C95.8194 119.606 95.8897 118.984 96.0827 118.395ZM101.306 117.655C100.789 117.523 100.241 117.592 99.7721 117.848C99.3034 118.103 98.949 118.527 98.7801 119.033C98.659 119.55 98.748 120.093 99.0275 120.544C99.1417 120.799 99.3073 121.027 99.5141 121.215C99.7208 121.403 99.9642 121.546 100.229 121.635C100.493 121.724 100.774 121.758 101.052 121.733C101.33 121.709 101.6 121.628 101.845 121.494C102.091 121.36 102.305 121.177 102.477 120.956C102.648 120.736 102.771 120.482 102.839 120.211C102.908 119.94 102.919 119.658 102.873 119.383C102.827 119.107 102.725 118.844 102.572 118.61C102.439 118.373 102.259 118.166 102.044 118.001C101.828 117.835 101.58 117.716 101.317 117.65L101.306 117.655Z" fill="white"/>
<circle cx="121.998" cy="117.826" r="9.47183" transform="rotate(-8.85648 121.998 117.826)" fill="white"/>
<path d="M143.135 105.309C142.697 104.594 141.994 104.083 141.179 103.887C140.364 103.691 139.505 103.826 138.79 104.263L123.54 113.713L121.513 108.128C121.195 107.38 120.602 106.783 119.857 106.461C119.111 106.139 118.27 106.116 117.508 106.397C116.745 106.678 116.121 107.242 115.763 107.971C115.405 108.7 115.341 109.539 115.585 110.314L118.849 119.127C118.919 119.474 119.053 119.805 119.244 120.103C119.631 120.731 120.231 121.2 120.934 121.423C121.442 121.611 121.992 121.659 122.525 121.562C123.058 121.465 123.555 121.227 123.965 120.872L142.094 109.663C142.808 109.223 143.319 108.517 143.514 107.701C143.71 106.885 143.573 106.024 143.135 105.309Z" fill="#00C65E"/>
</g>
<defs>
<filter id="filter0_d_1457_579" x="-0.00146484" y="0.630859" width="213" height="188" filterUnits="userSpaceOnUse" color-interpolation-filters="sRGB">
<feFlood flood-opacity="0" result="BackgroundImageFix"/>
<feColorMatrix in="SourceAlpha" type="matrix" values="0 0 0 0 0 0 0 0 0 0 0 0 0 0 0 0 0 0 127 0" result="hardAlpha"/>
<feMorphology radius="3" operator="dilate" in="SourceAlpha" result="effect1_dropShadow_1457_579"/>
<feOffset dx="1" dy="2"/>
<feGaussianBlur stdDeviation="8"/>
<feColorMatrix type="matrix" values="0 0 0 0 0.211765 0 0 0 0 0.227451 0 0 0 0 0.270588 0 0 0 0.08 0"/>
<feBlend mode="normal" in2="BackgroundImageFix" result="effect1_dropShadow_1457_579"/>
<feBlend mode="normal" in="SourceGraphic" in2="effect1_dropShadow_1457_579" result="shape"/>
</filter>
</defs>
</svg>
