<svg width="213" height="189" viewBox="0 0 213 189" fill="none" xmlns="http://www.w3.org/2000/svg">
<g filter="url(#filter0_d_1457_492)">
<g clip-path="url(#clip0_1457_492)">
<rect x="17.9985" y="17.6309" width="175" height="150" rx="10" fill="white"/>
<path d="M52.8188 45.6348H55.2251V36.5957H60.4204V34.4316H52.8188V45.6348ZM65.0845 45.6348H67.2407V40.752C67.2407 39.8613 66.9282 39.1191 66.3032 38.5254C65.6782 37.9316 64.8657 37.6348 63.8813 37.6348C63.4985 37.6348 63.1235 37.6973 62.7563 37.8066C62.397 37.916 62.1001 38.041 61.8735 38.1738C61.6548 38.3066 61.4438 38.4551 61.2563 38.627C61.0688 38.7988 60.9438 38.9238 60.8892 38.9941C60.8345 39.0645 60.7876 39.1191 60.7563 39.1582L61.9517 40.3535L62.1313 40.166C62.2563 40.0254 62.4595 39.8926 62.7485 39.7598C63.0454 39.627 63.3657 39.5566 63.7173 39.5566C64.147 39.5566 64.4829 39.666 64.7173 39.8691C64.9595 40.0801 65.0767 40.3457 65.0767 40.6738L62.5923 41.1191C61.8735 41.252 61.3032 41.5332 60.8892 41.9551C60.4829 42.3848 60.272 42.916 60.272 43.5566C60.272 44.1816 60.522 44.7051 61.0063 45.1426C61.4985 45.5801 62.1313 45.791 62.9126 45.791C63.3188 45.791 63.7095 45.7051 64.0845 45.5332C64.4595 45.3613 64.7095 45.2207 64.8188 45.1113C64.9282 45.002 65.0142 44.916 65.0767 44.8379L65.0845 45.6348ZM63.4751 44.0332C62.7876 44.0332 62.436 43.7676 62.436 43.2363C62.436 42.7441 62.7329 42.4473 63.3188 42.3535L65.0767 42.0332V42.2754C65.0767 42.8301 64.936 43.2598 64.647 43.5723C64.3579 43.8848 63.9673 44.0332 63.4751 44.0332ZM74.3032 45.791C75.3188 45.791 76.1938 45.4004 76.9438 44.6113C77.6938 43.8223 78.0688 42.8535 78.0688 41.7129C78.0688 40.5723 77.6938 39.6113 76.9438 38.8223C76.1938 38.0332 75.3188 37.6348 74.3032 37.6348C74.0142 37.6348 73.7407 37.6816 73.4751 37.7598C73.2095 37.8379 72.9907 37.9316 72.8267 38.0332C72.6548 38.1348 72.4985 38.252 72.3579 38.377C72.2173 38.502 72.1235 38.5879 72.0767 38.6348C72.0298 38.6816 71.9985 38.7207 71.9829 38.752V37.791H69.8267V48.9941H71.9829V44.6738L72.2251 44.9629C72.3813 45.1504 72.6548 45.3301 73.0454 45.5176C73.436 45.7051 73.8501 45.791 74.3032 45.791ZM73.9048 39.5566C74.436 39.5566 74.8892 39.7598 75.2642 40.166C75.6392 40.5723 75.8267 41.0879 75.8267 41.7207C75.8267 42.3457 75.6392 42.8691 75.2642 43.2754C74.8892 43.6816 74.436 43.8848 73.9048 43.8848C73.3735 43.8848 72.9204 43.6816 72.5454 43.2754C72.1704 42.8691 71.9829 42.3457 71.9829 41.7207C71.9829 41.0879 72.1704 40.5723 72.5454 40.166C72.9204 39.7598 73.3735 39.5566 73.9048 39.5566ZM84.4907 45.6348H86.647V40.752C86.647 39.8613 86.3345 39.1191 85.7095 38.5254C85.0845 37.9316 84.272 37.6348 83.2876 37.6348C82.9048 37.6348 82.5298 37.6973 82.1626 37.8066C81.8032 37.916 81.5063 38.041 81.2798 38.1738C81.061 38.3066 80.8501 38.4551 80.6626 38.627C80.4751 38.7988 80.3501 38.9238 80.2954 38.9941C80.2407 39.0645 80.1938 39.1191 80.1626 39.1582L81.3579 40.3535L81.5376 40.166C81.6626 40.0254 81.8657 39.8926 82.1548 39.7598C82.4517 39.627 82.772 39.5566 83.1235 39.5566C83.5532 39.5566 83.8892 39.666 84.1235 39.8691C84.3657 40.0801 84.4829 40.3457 84.4829 40.6738L81.9985 41.1191C81.2798 41.252 80.7095 41.5332 80.2954 41.9551C79.8892 42.3848 79.6782 42.916 79.6782 43.5566C79.6782 44.1816 79.9282 44.7051 80.4126 45.1426C80.9048 45.5801 81.5376 45.791 82.3188 45.791C82.7251 45.791 83.1157 45.7051 83.4907 45.5332C83.8657 45.3613 84.1157 45.2207 84.2251 45.1113C84.3345 45.002 84.4204 44.916 84.4829 44.8379L84.4907 45.6348ZM82.8813 44.0332C82.1938 44.0332 81.8423 43.7676 81.8423 43.2363C81.8423 42.7441 82.1392 42.4473 82.7251 42.3535L84.4829 42.0332V42.2754C84.4829 42.8301 84.3423 43.2598 84.0532 43.5723C83.7642 43.8848 83.3735 44.0332 82.8813 44.0332ZM91.3892 42.6738H94.4282V45.6348H96.5923V37.791H94.4282V40.752H91.3892V37.791H89.2329V45.6348H91.3892V42.6738ZM98.3657 39.877H100.85V45.6348H103.006V39.877H105.491V37.791H98.3657V39.877ZM112.819 37.791L109.42 42.1973V37.791H107.264V45.6348H109.131L112.545 41.2363V45.6348H114.702V37.791H112.819ZM120.959 35.3145C120.678 35.3145 120.452 35.2285 120.272 35.041C120.084 34.8613 119.999 34.6348 119.999 34.3613H118.397C118.397 35.041 118.631 35.6113 119.116 36.0723C119.6 36.5254 120.209 36.7598 120.959 36.7598C121.702 36.7598 122.311 36.5254 122.795 36.0723C123.28 35.6113 123.522 35.041 123.522 34.3613H121.92C121.92 34.6348 121.827 34.8613 121.647 35.041C121.459 35.2285 121.233 35.3145 120.959 35.3145ZM122.834 37.791L119.436 42.1973V37.791H117.28V45.6348H119.147L122.561 41.2363V45.6348H124.717V37.791H122.834ZM129.452 42.6738H132.491V45.6348H134.655V37.791H132.491V40.752H129.452V37.791H127.295V45.6348H129.452V42.6738ZM138.991 41.7207C138.991 41.1348 139.178 40.6426 139.561 40.2363C139.936 39.8379 140.389 39.6348 140.913 39.6348C141.428 39.6348 141.881 39.8379 142.264 40.2363C142.639 40.6426 142.834 41.1348 142.834 41.7207C142.834 42.3066 142.639 42.7988 142.264 43.1973C141.881 43.5957 141.428 43.791 140.913 43.791C140.389 43.791 139.936 43.5957 139.561 43.1973C139.178 42.7988 138.991 42.3066 138.991 41.7207ZM145.069 41.7129C145.069 40.627 144.655 39.6738 143.827 38.8613C142.999 38.0488 142.03 37.6426 140.913 37.6426C139.788 37.6426 138.819 38.0488 137.991 38.8613C137.163 39.6738 136.749 40.627 136.749 41.7129C136.749 42.8066 137.163 43.7598 137.991 44.5723C138.819 45.3848 139.788 45.791 140.913 45.791C142.03 45.791 142.999 45.3848 143.827 44.5723C144.655 43.7598 145.069 42.8066 145.069 41.7129ZM154.608 42.4316L154.686 41.5566C154.686 40.4395 154.311 39.5098 153.569 38.7598C152.819 38.0098 151.889 37.6348 150.772 37.6348C149.647 37.6348 148.686 38.041 147.889 38.8379C147.084 39.6348 146.686 40.5957 146.686 41.7129C146.686 42.8379 147.092 43.7988 147.905 44.5957C148.717 45.3926 149.694 45.791 150.85 45.791C151.256 45.791 151.647 45.7441 152.03 45.6504C152.413 45.5566 152.725 45.4551 152.967 45.3301C153.202 45.2051 153.428 45.0645 153.647 44.9082C153.858 44.752 153.999 44.6426 154.061 44.5801L154.209 44.4316L153.092 42.9941L152.866 43.2363C152.725 43.4004 152.475 43.5645 152.131 43.7207C151.788 43.877 151.413 43.9551 151.006 43.9551C150.444 43.9551 149.975 43.8145 149.608 43.5176C149.233 43.2207 149.006 42.8613 148.928 42.4316H154.608ZM150.772 39.4785C151.225 39.4785 151.616 39.6191 151.928 39.8848C152.241 40.1582 152.444 40.502 152.53 40.916H148.928C149.053 40.4941 149.28 40.1426 149.6 39.877C149.92 39.6113 150.311 39.4785 150.772 39.4785ZM49.0923 65.7207C49.0923 65.1348 49.2798 64.6426 49.6626 64.2363C50.0376 63.8379 50.4907 63.6348 51.0142 63.6348C51.5298 63.6348 51.9829 63.8379 52.3657 64.2363C52.7407 64.6426 52.936 65.1348 52.936 65.7207C52.936 66.3066 52.7407 66.7988 52.3657 67.1973C51.9829 67.5957 51.5298 67.791 51.0142 67.791C50.4907 67.791 50.0376 67.5957 49.6626 67.1973C49.2798 66.7988 49.0923 66.3066 49.0923 65.7207ZM55.1704 65.7129C55.1704 64.627 54.7563 63.6738 53.9282 62.8613C53.1001 62.0488 52.1313 61.6426 51.0142 61.6426C49.8892 61.6426 48.9204 62.0488 48.0923 62.8613C47.2642 63.6738 46.8501 64.627 46.8501 65.7129C46.8501 66.8066 47.2642 67.7598 48.0923 68.5723C48.9204 69.3848 49.8892 69.791 51.0142 69.791C52.1313 69.791 53.1001 69.3848 53.9282 68.5723C54.7563 67.7598 55.1704 66.8066 55.1704 65.7129ZM65.1938 65.877C65.1938 64.8145 64.8188 63.8926 64.0767 63.1191C63.3345 62.3457 62.4829 61.9551 61.5142 61.9551C61.2407 61.9551 60.9751 62.002 60.7173 62.0801C60.4517 62.1582 60.2407 62.252 60.0688 62.3535C59.897 62.4551 59.7407 62.5723 59.5923 62.6973C59.436 62.8223 59.3423 62.9082 59.2954 62.9551C59.2485 63.002 59.2095 63.041 59.1938 63.0723C59.3032 62.4316 59.5767 61.9004 60.0063 61.4707C60.4282 61.041 60.9829 60.752 61.6704 60.5957C62.4204 60.4238 63.0688 60.2441 63.6001 60.041C64.1313 59.8457 64.4517 59.7129 64.561 59.6426C64.6704 59.5801 64.7407 59.5254 64.7876 59.4785L63.8345 57.877L63.561 58.0176C63.3735 58.1113 63.0532 58.2207 62.5845 58.3613C62.1157 58.502 61.5923 58.6348 61.0298 58.752C59.7485 59.0176 58.7563 59.6113 58.0688 60.541C57.3735 61.4785 57.0298 62.8535 57.0298 64.6738C57.0298 66.3066 57.4126 67.5645 58.186 68.4551C58.9595 69.3457 59.9907 69.791 61.272 69.791C62.4126 69.791 63.3501 69.416 64.0845 68.6582C64.8188 67.9082 65.1938 66.9785 65.1938 65.877ZM59.4282 65.877C59.4282 65.291 59.6001 64.8145 59.9595 64.4395C60.311 64.0645 60.7485 63.877 61.272 63.877C61.7563 63.877 62.1704 64.0645 62.5142 64.4395C62.8579 64.8145 63.0298 65.291 63.0298 65.877C63.0298 66.4629 62.8579 66.9395 62.5142 67.3145C62.1704 67.6895 61.7563 67.877 61.272 67.877C60.7485 67.877 60.311 67.6895 59.9595 67.3145C59.6001 66.9395 59.4282 66.4629 59.4282 65.877ZM66.9751 65.7129C66.9751 66.8066 67.3892 67.7598 68.2329 68.5723C69.0688 69.3848 70.061 69.791 71.2095 69.791C71.6157 69.791 72.0063 69.7363 72.3735 69.6191C72.7407 69.502 73.0376 69.377 73.2642 69.2363C73.4985 69.0957 73.7095 68.9395 73.9048 68.7598C74.1079 68.5801 74.2329 68.4551 74.2876 68.377C74.3423 68.2988 74.3813 68.2441 74.4126 68.1973L73.1313 66.8379L72.9204 67.1035C72.7798 67.2754 72.5454 67.4473 72.2251 67.6191C71.9048 67.791 71.5688 67.877 71.2095 67.877C70.647 67.877 70.1626 67.666 69.7485 67.2441C69.3423 66.8223 69.1313 66.3145 69.1313 65.7207C69.1313 65.127 69.3423 64.6113 69.7485 64.1895C70.1548 63.7676 70.647 63.5566 71.2095 63.5566C71.5688 63.5566 71.9048 63.6582 72.2251 63.8457C72.5454 64.0332 72.7563 64.1895 72.8501 64.3066C72.9438 64.4316 73.0142 64.5254 73.0532 64.5957L74.4126 63.2363L74.2954 63.0723C74.2173 62.9629 74.0845 62.8223 73.897 62.666C73.7173 62.5098 73.5063 62.3613 73.272 62.2051C73.0376 62.0488 72.7407 61.916 72.3735 61.8066C72.0063 61.6973 71.6157 61.6348 71.2095 61.6348C70.061 61.6348 69.0688 62.0488 68.2251 62.8613C67.3892 63.6738 66.9751 64.627 66.9751 65.7129ZM77.1626 61.791V63.9551C77.1626 65.0488 77.1001 65.877 76.9907 66.4473C76.8813 67.0176 76.7329 67.3848 76.5532 67.5488C76.3657 67.7129 76.1157 67.791 75.8032 67.791C75.647 67.791 75.4829 67.7676 75.3267 67.7129V69.6348L75.4673 69.6973C75.5532 69.7285 75.686 69.7676 75.8735 69.8145C76.061 69.8613 76.2485 69.877 76.4438 69.877C77.0376 69.877 77.5298 69.7285 77.9204 69.4316C78.311 69.1348 78.6235 68.5488 78.8735 67.6895C79.1235 66.8301 79.2485 65.666 79.2485 64.2051V63.7207H81.3267V69.6426H83.4829V61.7988L77.1626 61.791ZM87.9048 70.1113C87.647 70.7051 87.1938 70.9941 86.5454 70.9941C86.2251 70.9941 85.9595 70.9473 85.7485 70.8379V72.752L85.9048 72.8066C86.0142 72.8535 86.1782 72.8926 86.4126 72.9316C86.6392 72.9785 86.8735 72.9941 87.1079 72.9941C88.4204 72.9941 89.4282 72.0332 90.147 70.1113L93.2642 61.791H91.0298L89.186 66.9941L87.3501 61.791H85.1079L88.147 69.5566L87.9048 70.1113ZM99.0376 69.6348H101.202V67.3926L101.92 66.5957L103.999 69.6348H106.397L103.28 65.1582L106.241 61.791H103.764L101.202 64.752V61.791H99.0376V64.752L96.4829 61.791H93.9985L96.9595 65.1582L93.8423 69.6348H96.2407L98.3188 66.5957L99.0376 67.3926V69.6348ZM113.499 61.791L110.1 66.1973V61.791H107.944V69.6348H109.811L113.225 65.2363V69.6348H115.381V61.791H113.499ZM117.959 61.791V69.6348H122.038C122.889 69.6348 123.569 69.416 124.077 68.9707C124.584 68.5332 124.842 67.9785 124.842 67.3145C124.842 67.0645 124.795 66.8301 124.702 66.6113C124.608 66.4004 124.506 66.2363 124.397 66.1113C124.288 65.9863 124.155 65.877 124.006 65.7832C123.85 65.6895 123.749 65.627 123.694 65.6035C123.631 65.5879 123.592 65.5723 123.561 65.5566L123.795 65.4082C123.952 65.3301 124.116 65.1504 124.28 64.8848C124.436 64.6191 124.522 64.3145 124.522 63.9551C124.522 63.3691 124.272 62.8613 123.788 62.4316C123.295 62.0098 122.663 61.791 121.881 61.791H117.959ZM121.881 66.2754C122.124 66.2754 122.319 66.3535 122.459 66.502C122.6 66.6504 122.678 66.8379 122.678 67.0723C122.678 67.3066 122.6 67.502 122.459 67.6504C122.319 67.8066 122.124 67.877 121.881 67.877H120.116V66.2754H121.881ZM122.358 64.1973C122.358 64.627 122.139 64.8379 121.717 64.8379H120.116V63.5566H121.717C122.139 63.5566 122.358 63.7754 122.358 64.1973ZM131.264 69.6348H133.42V64.752C133.42 63.8613 133.108 63.1191 132.483 62.5254C131.858 61.9316 131.045 61.6348 130.061 61.6348C129.678 61.6348 129.303 61.6973 128.936 61.8066C128.577 61.916 128.28 62.041 128.053 62.1738C127.834 62.3066 127.624 62.4551 127.436 62.627C127.249 62.7988 127.124 62.9238 127.069 62.9941C127.014 63.0645 126.967 63.1191 126.936 63.1582L128.131 64.3535L128.311 64.166C128.436 64.0254 128.639 63.8926 128.928 63.7598C129.225 63.627 129.545 63.5566 129.897 63.5566C130.327 63.5566 130.663 63.666 130.897 63.8691C131.139 64.0801 131.256 64.3457 131.256 64.6738L128.772 65.1191C128.053 65.252 127.483 65.5332 127.069 65.9551C126.663 66.3848 126.452 66.916 126.452 67.5566C126.452 68.1816 126.702 68.7051 127.186 69.1426C127.678 69.5801 128.311 69.791 129.092 69.791C129.499 69.791 129.889 69.7051 130.264 69.5332C130.639 69.3613 130.889 69.2207 130.999 69.1113C131.108 69.002 131.194 68.916 131.256 68.8379L131.264 69.6348ZM129.655 68.0332C128.967 68.0332 128.616 67.7676 128.616 67.2363C128.616 66.7441 128.913 66.4473 129.499 66.3535L131.256 66.0332V66.2754C131.256 66.8301 131.116 67.2598 130.827 67.5723C130.538 67.8848 130.147 68.0332 129.655 68.0332ZM138.163 66.6738H141.202V69.6348H143.366V61.791H141.202V64.752H138.163V61.791H136.006V69.6348H138.163V66.6738ZM151.499 61.791L148.1 66.1973V61.791H145.944V69.6348H147.811L151.225 65.2363V69.6348H153.381V61.791H151.499ZM163.397 66.4316L163.475 65.5566C163.475 64.4395 163.1 63.5098 162.358 62.7598C161.608 62.0098 160.678 61.6348 159.561 61.6348C158.436 61.6348 157.475 62.041 156.678 62.8379C155.874 63.6348 155.475 64.5957 155.475 65.7129C155.475 66.8379 155.881 67.7988 156.694 68.5957C157.506 69.3926 158.483 69.791 159.639 69.791C160.045 69.791 160.436 69.7441 160.819 69.6504C161.202 69.5566 161.514 69.4551 161.756 69.3301C161.991 69.2051 162.217 69.0645 162.436 68.9082C162.647 68.752 162.788 68.6426 162.85 68.5801L162.999 68.4316L161.881 66.9941L161.655 67.2363C161.514 67.4004 161.264 67.5645 160.92 67.7207C160.577 67.877 160.202 67.9551 159.795 67.9551C159.233 67.9551 158.764 67.8145 158.397 67.5176C158.022 67.2207 157.795 66.8613 157.717 66.4316H163.397ZM159.561 63.4785C160.014 63.4785 160.405 63.6191 160.717 63.8848C161.03 64.1582 161.233 64.502 161.319 64.916H157.717C157.842 64.4941 158.069 64.1426 158.389 63.877C158.709 63.6113 159.1 63.4785 159.561 63.4785Z" fill="#363A45"/>
<circle cx="103.499" cy="115.131" r="32.5" fill="#CCEFDB"/>
<g filter="url(#filter1_d_1457_492)">
<rect x="83.2617" y="104.549" width="40.4742" height="46.0633" rx="0.782551" fill="white"/>
<rect x="89.3247" y="123.695" width="1.72336" height="28.3494" rx="0.741751" transform="rotate(-90 89.3247 123.695)" fill="#FD9558"/>
<rect x="89.3247" y="131.965" width="1.72336" height="28.3494" rx="0.741751" transform="rotate(-90 89.3247 131.965)" fill="#FD9558"/>
<rect x="89.3247" y="140.238" width="1.72336" height="28.3494" rx="0.741751" transform="rotate(-90 89.3247 140.238)" fill="#FD9558"/>
</g>
<path d="M103.701 92.4163C102.333 92.3922 100.787 90.966 99.5491 91.3426C98.3108 91.7192 97.7928 93.7864 96.7164 94.5476C95.64 95.3088 93.5195 95.0323 92.7223 96.086C91.9251 97.1396 92.7587 99.0586 92.3176 100.313C91.8765 101.567 90.0353 102.536 90.011 103.886C89.9867 105.236 91.8158 106.314 92.1962 107.54C92.5766 108.766 91.6985 110.717 92.439 111.782C93.1796 112.848 95.3203 112.672 96.3805 113.461C97.4408 114.25 97.8292 116.314 99.0999 116.746C100.371 117.179 101.933 115.789 103.288 115.813C104.644 115.837 106.198 117.263 107.452 116.886C108.707 116.51 109.205 114.443 110.285 113.681C111.366 112.92 113.482 113.197 114.291 112.147C115.101 111.097 114.255 109.174 114.696 107.92C115.137 106.666 116.962 105.701 116.986 104.339C117.011 102.977 115.182 101.911 114.801 100.685C114.421 99.4592 115.303 97.5122 114.546 96.4465C113.789 95.3809 111.665 95.5572 110.605 94.7679C109.544 93.9787 109.156 91.9115 107.885 91.4828C106.615 91.0541 105.065 92.4403 103.701 92.4163Z" fill="#00C65E"/>
<path d="M103.677 93.7173C102.463 93.7173 101.087 92.4273 99.9865 92.7599C98.8858 93.0924 98.4245 94.9312 97.4695 95.5963C96.5145 96.2613 94.6368 96.041 93.9165 96.9744C93.1961 97.9079 93.9488 99.6186 93.5604 100.732C93.1719 101.846 91.537 102.715 91.5046 103.937C91.4722 105.159 93.1233 106.093 93.4511 107.186C93.7789 108.28 93.006 109.991 93.6777 110.952C94.3495 111.914 96.2393 111.753 97.1822 112.451C98.1251 113.148 98.469 114.987 99.6102 115.371C100.751 115.756 102.107 114.518 103.321 114.518C104.535 114.518 105.911 115.808 107.012 115.475C108.112 115.143 108.574 113.316 109.529 112.635C110.484 111.954 112.361 112.194 113.082 111.261C113.802 110.327 113.053 108.617 113.438 107.499C113.822 106.381 115.461 105.52 115.494 104.318C115.526 103.116 113.875 102.159 113.551 101.069C113.227 99.9791 113.992 98.2644 113.32 97.2989C112.649 96.3334 110.763 96.4977 109.82 95.8046C108.877 95.1115 108.529 93.2847 107.412 92.884C106.295 92.4834 104.891 93.7374 103.677 93.7173Z" fill="#CCE6D6"/>
<path d="M105.813 103.893C105.972 103.973 106.127 104.062 106.274 104.162C106.488 104.299 106.684 104.462 106.857 104.646C107.05 104.874 107.205 105.131 107.314 105.407C107.458 105.743 107.53 106.105 107.525 106.469C107.524 106.901 107.425 107.326 107.236 107.715C107.046 108.103 106.77 108.444 106.428 108.713C105.614 109.37 104.584 109.705 103.535 109.654C103.04 109.656 102.547 109.598 102.066 109.482C101.664 109.398 101.275 109.263 100.908 109.081C100.638 108.929 100.377 108.761 100.127 108.576C99.9464 108.456 99.7818 108.314 99.6378 108.152L99.48 107.979L100.856 106.545L100.953 106.665C101.049 106.763 101.152 106.854 101.261 106.938C101.419 107.068 101.588 107.185 101.766 107.286C102.237 107.544 102.766 107.682 103.304 107.687C103.793 107.714 104.277 107.573 104.672 107.286C104.823 107.172 104.944 107.023 105.026 106.853C105.109 106.684 105.149 106.497 105.145 106.309C105.15 106.121 105.11 105.935 105.028 105.765C104.947 105.595 104.826 105.447 104.676 105.331C104.307 105.05 103.85 104.908 103.385 104.931H102.236V103.056H103.304C103.693 103.076 104.075 102.948 104.372 102.699C104.505 102.582 104.609 102.438 104.679 102.277C104.749 102.116 104.783 101.941 104.777 101.766C104.781 101.599 104.747 101.434 104.676 101.283C104.606 101.132 104.502 100.998 104.372 100.892C104.072 100.649 103.691 100.526 103.304 100.548C102.924 100.546 102.548 100.632 102.207 100.8C101.936 100.924 101.687 101.092 101.471 101.297L101.24 101.541L99.8604 100.179C99.8927 100.139 99.9373 100.083 99.998 100.015C100.13 99.8702 100.273 99.7363 100.427 99.6144C100.653 99.4293 100.897 99.2669 101.155 99.1297C101.897 98.7719 102.71 98.5843 103.535 98.5808C104.482 98.5346 105.412 98.8355 106.149 99.4261C106.463 99.6814 106.715 100.003 106.886 100.368C107.057 100.733 107.142 101.131 107.136 101.533C107.14 101.832 107.085 102.129 106.975 102.407C106.888 102.644 106.762 102.864 106.602 103.06C106.468 103.215 106.32 103.358 106.161 103.488C106.036 103.586 105.901 103.67 105.756 103.737L105.607 103.809L105.813 103.893Z" fill="white"/>
</g>
</g>
<defs>
<filter id="filter0_d_1457_492" x="-0.00146484" y="0.630859" width="213" height="188" filterUnits="userSpaceOnUse" color-interpolation-filters="sRGB">
<feFlood flood-opacity="0" result="BackgroundImageFix"/>
<feColorMatrix in="SourceAlpha" type="matrix" values="0 0 0 0 0 0 0 0 0 0 0 0 0 0 0 0 0 0 127 0" result="hardAlpha"/>
<feMorphology radius="3" operator="dilate" in="SourceAlpha" result="effect1_dropShadow_1457_492"/>
<feOffset dx="1" dy="2"/>
<feGaussianBlur stdDeviation="8"/>
<feColorMatrix type="matrix" values="0 0 0 0 0.211765 0 0 0 0 0.227451 0 0 0 0 0.270588 0 0 0 0.08 0"/>
<feBlend mode="normal" in2="BackgroundImageFix" result="effect1_dropShadow_1457_492"/>
<feBlend mode="normal" in="SourceGraphic" in2="effect1_dropShadow_1457_492" result="shape"/>
</filter>
<filter id="filter1_d_1457_492" x="65.2617" y="87.5488" width="78.4741" height="84.0625" filterUnits="userSpaceOnUse" color-interpolation-filters="sRGB">
<feFlood flood-opacity="0" result="BackgroundImageFix"/>
<feColorMatrix in="SourceAlpha" type="matrix" values="0 0 0 0 0 0 0 0 0 0 0 0 0 0 0 0 0 0 127 0" result="hardAlpha"/>
<feMorphology radius="3" operator="dilate" in="SourceAlpha" result="effect1_dropShadow_1457_492"/>
<feOffset dx="1" dy="2"/>
<feGaussianBlur stdDeviation="8"/>
<feColorMatrix type="matrix" values="0 0 0 0 0.211765 0 0 0 0 0.227451 0 0 0 0 0.270588 0 0 0 0.08 0"/>
<feBlend mode="normal" in2="BackgroundImageFix" result="effect1_dropShadow_1457_492"/>
<feBlend mode="normal" in="SourceGraphic" in2="effect1_dropShadow_1457_492" result="shape"/>
</filter>
<clipPath id="clip0_1457_492">
<rect x="17.9985" y="17.6309" width="175" height="150" rx="10" fill="white"/>
</clipPath>
</defs>
</svg>
