<svg width="213" height="189" viewBox="0 0 213 189" fill="none" xmlns="http://www.w3.org/2000/svg">
<g filter="url(#filter0_d_1457_511)">
<rect x="17.9985" y="17.6309" width="175" height="150" rx="10" fill="white"/>
<path d="M43.5532 43.4785V40.752H45.9517C46.3735 40.752 46.7329 40.8926 47.0298 41.166C47.3188 41.4395 47.4673 41.7598 47.4673 42.1191C47.4673 42.4785 47.3188 42.7988 47.0298 43.0723C46.7329 43.3457 46.3735 43.4785 45.9517 43.4785H43.5532ZM46.0298 45.6348C47.1235 45.6348 48.0376 45.291 48.772 44.6035C49.4985 43.916 49.8657 43.0879 49.8657 42.1191C49.8657 41.1504 49.4985 40.3145 48.772 39.627C48.0376 38.9395 47.1235 38.5957 46.0298 38.5957H43.5532V36.5957H48.9126V34.4316H41.147V45.6348H46.0298ZM61.7251 37.791H59.561V45.6348H61.7251V37.791ZM54.2017 43.877V41.9551H55.4829C55.7563 41.9551 55.9829 42.0488 56.1626 42.2285C56.3501 42.416 56.436 42.6426 56.436 42.916C56.436 43.1973 56.3501 43.4238 56.1626 43.6035C55.9829 43.791 55.7563 43.877 55.4829 43.877H54.2017ZM58.6079 42.916C58.6079 42.1035 58.3345 41.4473 57.7954 40.9473C57.2485 40.4473 56.5063 40.1973 55.561 40.1973H54.2017V37.791H52.0454V45.6348H55.561C56.5142 45.6348 57.2563 45.3848 57.7954 44.8848C58.3345 44.3848 58.6079 43.7285 58.6079 42.916ZM63.8267 41.7129C63.8267 42.8066 64.2407 43.7598 65.0845 44.5723C65.9204 45.3848 66.9126 45.791 68.061 45.791C68.4673 45.791 68.8579 45.7363 69.2251 45.6191C69.5923 45.502 69.8892 45.377 70.1157 45.2363C70.3501 45.0957 70.561 44.9395 70.7563 44.7598C70.9595 44.5801 71.0845 44.4551 71.1392 44.377C71.1938 44.2988 71.2329 44.2441 71.2642 44.1973L69.9829 42.8379L69.772 43.1035C69.6313 43.2754 69.397 43.4473 69.0767 43.6191C68.7563 43.791 68.4204 43.877 68.061 43.877C67.4985 43.877 67.0142 43.666 66.6001 43.2441C66.1938 42.8223 65.9829 42.3145 65.9829 41.7207C65.9829 41.127 66.1938 40.6113 66.6001 40.1895C67.0063 39.7676 67.4985 39.5566 68.061 39.5566C68.4204 39.5566 68.7563 39.6582 69.0767 39.8457C69.397 40.0332 69.6079 40.1895 69.7017 40.3066C69.7954 40.4316 69.8657 40.5254 69.9048 40.5957L71.2642 39.2363L71.147 39.0723C71.0688 38.9629 70.936 38.8223 70.7485 38.666C70.5688 38.5098 70.3579 38.3613 70.1235 38.2051C69.8892 38.0488 69.5923 37.916 69.2251 37.8066C68.8579 37.6973 68.4673 37.6348 68.061 37.6348C66.9126 37.6348 65.9204 38.0488 65.0767 38.8613C64.2407 39.6738 63.8267 40.627 63.8267 41.7129ZM72.4126 39.877H74.897V45.6348H77.0532V39.877H79.5376V37.791H72.4126V39.877ZM85.7876 45.791C86.8032 45.791 87.6782 45.4004 88.4282 44.6113C89.1782 43.8223 89.5532 42.8535 89.5532 41.7129C89.5532 40.5723 89.1782 39.6113 88.4282 38.8223C87.6782 38.0332 86.8032 37.6348 85.7876 37.6348C85.4985 37.6348 85.2251 37.6816 84.9595 37.7598C84.6938 37.8379 84.4751 37.9316 84.311 38.0332C84.1392 38.1348 83.9829 38.252 83.8423 38.377C83.7017 38.502 83.6079 38.5879 83.561 38.6348C83.5142 38.6816 83.4829 38.7207 83.4673 38.752V37.791H81.311V48.9941H83.4673V44.6738L83.7095 44.9629C83.8657 45.1504 84.1392 45.3301 84.5298 45.5176C84.9204 45.7051 85.3345 45.791 85.7876 45.791ZM85.3892 39.5566C85.9204 39.5566 86.3735 39.7598 86.7485 40.166C87.1235 40.5723 87.311 41.0879 87.311 41.7207C87.311 42.3457 87.1235 42.8691 86.7485 43.2754C86.3735 43.6816 85.9204 43.8848 85.3892 43.8848C84.8579 43.8848 84.4048 43.6816 84.0298 43.2754C83.6548 42.8691 83.4673 42.3457 83.4673 41.7207C83.4673 41.0879 83.6548 40.5723 84.0298 40.166C84.4048 39.7598 84.8579 39.5566 85.3892 39.5566ZM101.334 37.791H99.1704V45.6348H101.334V37.791ZM93.811 43.877V41.9551H95.0923C95.3657 41.9551 95.5923 42.0488 95.772 42.2285C95.9595 42.416 96.0454 42.6426 96.0454 42.916C96.0454 43.1973 95.9595 43.4238 95.772 43.6035C95.5923 43.791 95.3657 43.877 95.0923 43.877H93.811ZM98.2173 42.916C98.2173 42.1035 97.9438 41.4473 97.4048 40.9473C96.8579 40.4473 96.1157 40.1973 95.1704 40.1973H93.811V37.791H91.6548V45.6348H95.1704C96.1235 45.6348 96.8657 45.3848 97.4048 44.8848C97.9438 44.3848 98.2173 43.7285 98.2173 42.916ZM107.6 35.3145C107.319 35.3145 107.092 35.2285 106.913 35.041C106.725 34.8613 106.639 34.6348 106.639 34.3613H105.038C105.038 35.041 105.272 35.6113 105.756 36.0723C106.241 36.5254 106.85 36.7598 107.6 36.7598C108.342 36.7598 108.952 36.5254 109.436 36.0723C109.92 35.6113 110.163 35.041 110.163 34.3613H108.561C108.561 34.6348 108.467 34.8613 108.288 35.041C108.1 35.2285 107.874 35.3145 107.6 35.3145ZM109.475 37.791L106.077 42.1973V37.791H103.92V45.6348H105.788L109.202 41.2363V45.6348H111.358V37.791H109.475ZM119.475 41.7207C119.475 41.1348 119.663 40.6426 120.045 40.2363C120.42 39.8379 120.874 39.6348 121.397 39.6348C121.913 39.6348 122.366 39.8379 122.749 40.2363C123.124 40.6426 123.319 41.1348 123.319 41.7207C123.319 42.3066 123.124 42.7988 122.749 43.1973C122.366 43.5957 121.913 43.791 121.397 43.791C120.874 43.791 120.42 43.5957 120.045 43.1973C119.663 42.7988 119.475 42.3066 119.475 41.7207ZM125.553 41.7129C125.553 40.627 125.139 39.6738 124.311 38.8613C123.483 38.0488 122.514 37.6426 121.397 37.6426C120.272 37.6426 119.303 38.0488 118.475 38.8613C117.647 39.6738 117.233 40.627 117.233 41.7129C117.233 42.8066 117.647 43.7598 118.475 44.5723C119.303 45.3848 120.272 45.791 121.397 45.791C122.514 45.791 123.483 45.3848 124.311 44.5723C125.139 43.7598 125.553 42.8066 125.553 41.7129ZM135.577 41.877C135.577 40.8145 135.202 39.8926 134.459 39.1191C133.717 38.3457 132.866 37.9551 131.897 37.9551C131.624 37.9551 131.358 38.002 131.1 38.0801C130.834 38.1582 130.624 38.252 130.452 38.3535C130.28 38.4551 130.124 38.5723 129.975 38.6973C129.819 38.8223 129.725 38.9082 129.678 38.9551C129.631 39.002 129.592 39.041 129.577 39.0723C129.686 38.4316 129.959 37.9004 130.389 37.4707C130.811 37.041 131.366 36.752 132.053 36.5957C132.803 36.4238 133.452 36.2441 133.983 36.041C134.514 35.8457 134.834 35.7129 134.944 35.6426C135.053 35.5801 135.124 35.5254 135.17 35.4785L134.217 33.877L133.944 34.0176C133.756 34.1113 133.436 34.2207 132.967 34.3613C132.499 34.502 131.975 34.6348 131.413 34.752C130.131 35.0176 129.139 35.6113 128.452 36.541C127.756 37.4785 127.413 38.8535 127.413 40.6738C127.413 42.3066 127.795 43.5645 128.569 44.4551C129.342 45.3457 130.374 45.791 131.655 45.791C132.795 45.791 133.733 45.416 134.467 44.6582C135.202 43.9082 135.577 42.9785 135.577 41.877ZM129.811 41.877C129.811 41.291 129.983 40.8145 130.342 40.4395C130.694 40.0645 131.131 39.877 131.655 39.877C132.139 39.877 132.553 40.0645 132.897 40.4395C133.241 40.8145 133.413 41.291 133.413 41.877C133.413 42.4629 133.241 42.9395 132.897 43.3145C132.553 43.6895 132.139 43.877 131.655 43.877C131.131 43.877 130.694 43.6895 130.342 43.3145C129.983 42.9395 129.811 42.4629 129.811 41.877ZM142.084 43.7129L144.163 40.9941V45.6348H146.319V37.791H144.483L142.084 40.916L139.678 37.791H137.842V45.6348H139.999V40.9941L142.084 43.7129ZM156.342 42.4316L156.42 41.5566C156.42 40.4395 156.045 39.5098 155.303 38.7598C154.553 38.0098 153.624 37.6348 152.506 37.6348C151.381 37.6348 150.42 38.041 149.624 38.8379C148.819 39.6348 148.42 40.5957 148.42 41.7129C148.42 42.8379 148.827 43.7988 149.639 44.5957C150.452 45.3926 151.428 45.791 152.584 45.791C152.991 45.791 153.381 45.7441 153.764 45.6504C154.147 45.5566 154.459 45.4551 154.702 45.3301C154.936 45.2051 155.163 45.0645 155.381 44.9082C155.592 44.752 155.733 44.6426 155.795 44.5801L155.944 44.4316L154.827 42.9941L154.6 43.2363C154.459 43.4004 154.209 43.5645 153.866 43.7207C153.522 43.877 153.147 43.9551 152.741 43.9551C152.178 43.9551 151.709 43.8145 151.342 43.5176C150.967 43.2207 150.741 42.8613 150.663 42.4316H156.342ZM152.506 39.4785C152.959 39.4785 153.35 39.6191 153.663 39.8848C153.975 40.1582 154.178 40.502 154.264 40.916H150.663C150.788 40.4941 151.014 40.1426 151.334 39.877C151.655 39.6113 152.045 39.4785 152.506 39.4785ZM160.686 42.6738H163.725V45.6348H165.889V37.791H163.725V40.752H160.686V37.791H158.53V45.6348H160.686V42.6738ZM73.4438 61.791L70.0454 66.1973V61.791H67.8892V69.6348H69.7563L73.1704 65.2363V69.6348H75.3267V61.791H73.4438ZM81.686 61.791V69.6348H85.7642C86.6157 69.6348 87.2954 69.416 87.8032 68.9707C88.311 68.5332 88.5688 67.9785 88.5688 67.3145C88.5688 67.0645 88.522 66.8301 88.4282 66.6113C88.3345 66.4004 88.2329 66.2363 88.1235 66.1113C88.0142 65.9863 87.8813 65.877 87.7329 65.7832C87.5767 65.6895 87.4751 65.627 87.4204 65.6035C87.3579 65.5879 87.3188 65.5723 87.2876 65.5566L87.522 65.4082C87.6782 65.3301 87.8423 65.1504 88.0063 64.8848C88.1626 64.6191 88.2485 64.3145 88.2485 63.9551C88.2485 63.3691 87.9985 62.8613 87.5142 62.4316C87.022 62.0098 86.3892 61.791 85.6079 61.791H81.686ZM85.6079 66.2754C85.8501 66.2754 86.0454 66.3535 86.186 66.502C86.3267 66.6504 86.4048 66.8379 86.4048 67.0723C86.4048 67.3066 86.3267 67.502 86.186 67.6504C86.0454 67.8066 85.8501 67.877 85.6079 67.877H83.8423V66.2754H85.6079ZM86.0845 64.1973C86.0845 64.627 85.8657 64.8379 85.4438 64.8379H83.8423V63.5566H85.4438C85.8657 63.5566 86.0845 63.7754 86.0845 64.1973ZM92.4282 65.7207C92.4282 65.1348 92.6157 64.6426 92.9985 64.2363C93.3735 63.8379 93.8267 63.6348 94.3501 63.6348C94.8657 63.6348 95.3188 63.8379 95.7017 64.2363C96.0767 64.6426 96.272 65.1348 96.272 65.7207C96.272 66.3066 96.0767 66.7988 95.7017 67.1973C95.3188 67.5957 94.8657 67.791 94.3501 67.791C93.8267 67.791 93.3735 67.5957 92.9985 67.1973C92.6157 66.7988 92.4282 66.3066 92.4282 65.7207ZM98.5063 65.7129C98.5063 64.627 98.0923 63.6738 97.2642 62.8613C96.436 62.0488 95.4673 61.6426 94.3501 61.6426C93.2251 61.6426 92.2563 62.0488 91.4282 62.8613C90.6001 63.6738 90.186 64.627 90.186 65.7129C90.186 66.8066 90.6001 67.7598 91.4282 68.5723C92.2563 69.3848 93.2251 69.791 94.3501 69.791C95.4673 69.791 96.436 69.3848 97.2642 68.5723C98.0923 67.7598 98.5063 66.8066 98.5063 65.7129ZM106.124 63.9551C106.124 63.3301 105.842 62.7832 105.288 62.3223C104.733 61.8691 103.999 61.6348 103.084 61.6348C102.702 61.6348 102.334 61.6816 101.975 61.7754C101.616 61.8691 101.327 61.9707 101.116 62.0801C100.897 62.1895 100.702 62.3223 100.514 62.4707C100.327 62.6191 100.209 62.7207 100.155 62.7832C100.1 62.8457 100.061 62.8848 100.045 62.916L101.249 64.1113L101.452 63.9395C101.592 63.8145 101.795 63.6895 102.061 63.5723C102.327 63.4551 102.592 63.3926 102.85 63.3926C103.538 63.4004 103.889 63.666 103.889 64.1973C103.889 64.416 103.795 64.5879 103.624 64.7207C103.452 64.8535 103.194 64.916 102.85 64.916H102.045V66.3535H102.85C103.694 66.3613 104.124 66.627 104.124 67.1582C104.124 67.416 104.014 67.627 103.795 67.791C103.577 67.9551 103.264 68.0332 102.85 68.0332C102.491 68.0332 102.155 67.9551 101.834 67.791C101.514 67.627 101.303 67.4941 101.209 67.4004C101.116 67.3066 101.045 67.2207 101.006 67.1582L99.8032 68.3535L99.936 68.5176C100.006 68.6113 100.131 68.7285 100.319 68.8691C100.499 69.0098 100.709 69.1426 100.952 69.2832C101.202 69.4238 101.514 69.5488 101.889 69.6426C102.264 69.7441 102.663 69.791 103.077 69.791C104.147 69.791 104.975 69.5723 105.561 69.1191C106.147 68.666 106.436 68.1191 106.436 67.4785C106.436 67.1895 106.381 66.9238 106.264 66.6895C106.147 66.4551 106.022 66.2754 105.881 66.1426C105.741 66.0098 105.584 65.8926 105.397 65.7988C105.217 65.7051 105.092 65.6426 105.014 65.6113C104.944 65.5879 104.889 65.5723 104.842 65.5645L104.967 65.5176C105.053 65.4941 105.163 65.4395 105.295 65.3613C105.42 65.2832 105.553 65.1816 105.678 65.0723C105.803 64.9629 105.913 64.8066 105.999 64.6113C106.077 64.4082 106.124 64.1895 106.124 63.9551ZM108.545 61.791V69.6348H112.624C113.475 69.6348 114.155 69.416 114.663 68.9707C115.17 68.5332 115.428 67.9785 115.428 67.3145C115.428 67.0645 115.381 66.8301 115.288 66.6113C115.194 66.4004 115.092 66.2363 114.983 66.1113C114.874 65.9863 114.741 65.877 114.592 65.7832C114.436 65.6895 114.334 65.627 114.28 65.6035C114.217 65.5879 114.178 65.5723 114.147 65.5566L114.381 65.4082C114.538 65.3301 114.702 65.1504 114.866 64.8848C115.022 64.6191 115.108 64.3145 115.108 63.9551C115.108 63.3691 114.858 62.8613 114.374 62.4316C113.881 62.0098 113.249 61.791 112.467 61.791H108.545ZM112.467 66.2754C112.709 66.2754 112.905 66.3535 113.045 66.502C113.186 66.6504 113.264 66.8379 113.264 67.0723C113.264 67.3066 113.186 67.502 113.045 67.6504C112.905 67.8066 112.709 67.877 112.467 67.877H110.702V66.2754H112.467ZM112.944 64.1973C112.944 64.627 112.725 64.8379 112.303 64.8379H110.702V63.5566H112.303C112.725 63.5566 112.944 63.7754 112.944 64.1973ZM122.006 69.791C123.022 69.791 123.897 69.4004 124.647 68.6113C125.397 67.8223 125.772 66.8535 125.772 65.7129C125.772 64.5723 125.397 63.6113 124.647 62.8223C123.897 62.0332 123.022 61.6348 122.006 61.6348C121.717 61.6348 121.444 61.6816 121.178 61.7598C120.913 61.8379 120.694 61.9316 120.53 62.0332C120.358 62.1348 120.202 62.252 120.061 62.377C119.92 62.502 119.827 62.5879 119.78 62.6348C119.733 62.6816 119.702 62.7207 119.686 62.752V61.791H117.53V72.9941H119.686V68.6738L119.928 68.9629C120.084 69.1504 120.358 69.3301 120.749 69.5176C121.139 69.7051 121.553 69.791 122.006 69.791ZM121.608 63.5566C122.139 63.5566 122.592 63.7598 122.967 64.166C123.342 64.5723 123.53 65.0879 123.53 65.7207C123.53 66.3457 123.342 66.8691 122.967 67.2754C122.592 67.6816 122.139 67.8848 121.608 67.8848C121.077 67.8848 120.624 67.6816 120.249 67.2754C119.874 66.8691 119.686 66.3457 119.686 65.7207C119.686 65.0879 119.874 64.5723 120.249 64.166C120.624 63.7598 121.077 63.5566 121.608 63.5566ZM132.194 69.6348H134.35V64.752C134.35 63.8613 134.038 63.1191 133.413 62.5254C132.788 61.9316 131.975 61.6348 130.991 61.6348C130.608 61.6348 130.233 61.6973 129.866 61.8066C129.506 61.916 129.209 62.041 128.983 62.1738C128.764 62.3066 128.553 62.4551 128.366 62.627C128.178 62.7988 128.053 62.9238 127.999 62.9941C127.944 63.0645 127.897 63.1191 127.866 63.1582L129.061 64.3535L129.241 64.166C129.366 64.0254 129.569 63.8926 129.858 63.7598C130.155 63.627 130.475 63.5566 130.827 63.5566C131.256 63.5566 131.592 63.666 131.827 63.8691C132.069 64.0801 132.186 64.3457 132.186 64.6738L129.702 65.1191C128.983 65.252 128.413 65.5332 127.999 65.9551C127.592 66.3848 127.381 66.916 127.381 67.5566C127.381 68.1816 127.631 68.7051 128.116 69.1426C128.608 69.5801 129.241 69.791 130.022 69.791C130.428 69.791 130.819 69.7051 131.194 69.5332C131.569 69.3613 131.819 69.2207 131.928 69.1113C132.038 69.002 132.124 68.916 132.186 68.8379L132.194 69.6348ZM130.584 68.0332C129.897 68.0332 129.545 67.7676 129.545 67.2363C129.545 66.7441 129.842 66.4473 130.428 66.3535L132.186 66.0332V66.2754C132.186 66.8301 132.045 67.2598 131.756 67.5723C131.467 67.8848 131.077 68.0332 130.584 68.0332ZM136.131 63.877H138.616V69.6348H140.772V63.877H143.256V61.791H136.131V63.877Z" fill="#363A45"/>
<circle cx="105.499" cy="115.131" r="32.5" fill="#CCEFDB"/>
<path d="M115.41 102.844H93.8291C92.7363 102.844 91.8503 103.73 91.8503 104.822V125.55C91.8503 126.643 92.7363 127.529 93.8291 127.529H115.41C116.502 127.529 117.388 126.643 117.388 125.55V104.822C117.388 103.73 116.503 102.844 115.41 102.844Z" fill="#FFB762"/>
<path d="M107.541 102.428H101.698V106.718C101.698 107.082 101.993 107.377 102.357 107.377H106.881C107.246 107.377 107.541 107.082 107.541 106.718V102.428Z" fill="#F89358"/>
<path d="M114.819 108.072H110.09C109.725 108.072 109.43 108.368 109.43 108.732V110.186C109.43 110.551 109.725 110.846 110.09 110.846H114.819C115.184 110.846 115.479 110.551 115.479 110.186V108.732C115.479 108.368 115.184 108.072 114.819 108.072Z" fill="white"/>
<path d="M115.109 122.98H106.5C106.296 122.98 106.131 123.146 106.131 123.35C106.131 123.554 106.296 123.72 106.5 123.72H115.109C115.313 123.72 115.479 123.554 115.479 123.35C115.479 123.146 115.313 122.98 115.109 122.98Z" fill="#F89358"/>
<path d="M115.11 119.766H109.442C109.238 119.766 109.072 119.931 109.072 120.135C109.072 120.339 109.238 120.505 109.442 120.505H115.11C115.314 120.505 115.479 120.339 115.479 120.135C115.479 119.931 115.314 119.766 115.11 119.766Z" fill="#F89358"/>
<path d="M115.109 116.545H111.92C111.716 116.545 111.551 116.71 111.551 116.915C111.551 117.119 111.716 117.284 111.92 117.284H115.109C115.313 117.284 115.479 117.119 115.479 116.915C115.479 116.71 115.313 116.545 115.109 116.545Z" fill="#F89358"/>
<path d="M113.85 88.7772C114.473 89.2529 114.421 90.2072 113.75 90.6128L107.351 94.4796C106.587 94.9414 105.617 94.3595 105.666 93.4679L106.121 85.0659C106.169 84.1744 107.195 83.7005 107.905 84.2421L113.85 88.7772Z" fill="#00C65E"/>
<path d="M110.265 89.7482C109.088 89.4856 107.905 89.3079 106.724 89.212C95.8508 88.3291 85.157 94.3854 80.6396 104.971C75.3514 117.364 80.4013 131.572 91.9239 137.976" stroke="#00C65E" stroke-width="3.71929" stroke-linecap="round"/>
<path d="M97.1476 141.486C96.5241 141.011 96.5757 140.056 97.2469 139.651L103.646 135.784C104.41 135.322 105.38 135.904 105.331 136.796L104.877 145.198C104.828 146.089 103.802 146.563 103.092 146.022L97.1476 141.486Z" fill="#00C65E"/>
<path d="M100.732 140.515C101.909 140.778 103.092 140.956 104.273 141.052C115.146 141.935 125.84 135.878 130.357 125.292C135.646 112.9 130.596 98.6914 119.073 92.2872" stroke="#00C65E" stroke-width="3.71929" stroke-linecap="round"/>
</g>
<defs>
<filter id="filter0_d_1457_511" x="-0.00146484" y="0.630859" width="213" height="188" filterUnits="userSpaceOnUse" color-interpolation-filters="sRGB">
<feFlood flood-opacity="0" result="BackgroundImageFix"/>
<feColorMatrix in="SourceAlpha" type="matrix" values="0 0 0 0 0 0 0 0 0 0 0 0 0 0 0 0 0 0 127 0" result="hardAlpha"/>
<feMorphology radius="3" operator="dilate" in="SourceAlpha" result="effect1_dropShadow_1457_511"/>
<feOffset dx="1" dy="2"/>
<feGaussianBlur stdDeviation="8"/>
<feColorMatrix type="matrix" values="0 0 0 0 0.211765 0 0 0 0 0.227451 0 0 0 0 0.270588 0 0 0 0.08 0"/>
<feBlend mode="normal" in2="BackgroundImageFix" result="effect1_dropShadow_1457_511"/>
<feBlend mode="normal" in="SourceGraphic" in2="effect1_dropShadow_1457_511" result="shape"/>
</filter>
</defs>
</svg>
