<svg width="34" height="34" viewBox="0 0 34 34" fill="none" xmlns="http://www.w3.org/2000/svg">
<circle cx="17.105" cy="16.8281" r="16.5" fill="white"/>
<path d="M21.7445 7.51953H12.4507C9.89451 7.51953 7.79639 9.61766 7.79639 12.1886V21.4824C7.79639 24.0386 9.89451 26.1367 12.4507 26.1367H21.7445C24.3154 26.1367 26.4136 24.0386 26.4136 21.4676V12.1886C26.4136 9.61766 24.3154 7.51953 21.7445 7.51953ZM19.602 16.8281H17.8438V22.5906H15.6274V16.8281H14.4454V14.464H15.4797V13.4593C15.4797 12.5137 15.9525 11.0213 17.9472 11.0213H19.7646V12.9865H18.4791C18.2722 12.9865 17.9915 13.1195 17.9915 13.5775V14.464H19.8089L19.602 16.8281Z" fill="#00C65E"/>
</svg>
