<svg width="70" height="18" viewBox="0 0 70 18" fill="none" xmlns="http://www.w3.org/2000/svg">
<path d="M6.04956 10.5195V5H4.37378L0.653076 10.2852V11.7207H4.7312V13.4023H6.04956V11.7207H7.13354V10.5195H6.04956ZM4.7312 10.5195H1.91284L4.7312 6.5V10.5195Z" fill="#363A45"/>
<path d="M17.6234 4.3874C17.8378 3.74066 18.7689 3.74066 18.9826 4.3874L19.7472 6.69912C19.7939 6.83991 19.8848 6.96258 20.0067 7.04961C20.1286 7.13663 20.2754 7.18355 20.4261 7.18366H22.9001C23.5925 7.18366 23.8798 8.05442 23.3202 8.45468L21.3194 9.88301C21.1972 9.9701 21.1062 10.093 21.0595 10.234C21.0128 10.3751 21.0127 10.527 21.0592 10.6681L21.8239 12.9798C22.0382 13.6266 21.2843 14.1652 20.7234 13.7649L18.7225 12.3366C18.6004 12.2495 18.4535 12.2026 18.3027 12.2026C18.1518 12.2026 18.0049 12.2495 17.8828 12.3366L15.8819 13.7649C15.3217 14.1652 14.5685 13.6266 14.7822 12.9798L15.5468 10.6681C15.5934 10.527 15.5933 10.3751 15.5466 10.234C15.4998 10.093 15.4089 9.9701 15.2867 9.88301L13.2865 8.45539C12.727 8.05512 13.015 7.18436 13.7067 7.18436H16.1799C16.3307 7.1844 16.4777 7.13755 16.5998 7.05052C16.7218 6.96348 16.8128 6.84073 16.8595 6.69983L17.6241 4.38811L17.6234 4.3874Z" fill="#363A45"/>
<path d="M38.616 7.90234C38.616 5.69684 40.859 3.90234 43.616 3.90234C46.373 3.90234 48.616 5.69684 48.616 7.90234C48.616 10.0623 46.4645 11.8283 43.786 11.8998L41.116 13.9023V11.3693C39.565 10.6603 38.616 9.35634 38.616 7.90234Z" fill="#363A45"/>
<path d="M60.155 13.4023V12.2012H56.0769C56.2292 11.9082 56.446 11.627 56.7273 11.3574C57.0085 11.0879 57.3015 10.8594 57.5945 10.666C57.8875 10.4785 58.1863 10.2676 58.4968 10.0332C58.8074 9.79883 59.0828 9.57617 59.323 9.35352C59.5632 9.13086 59.7625 8.85547 59.9207 8.52734C60.073 8.19922 60.155 7.84766 60.155 7.46094C60.155 6.73438 59.8914 6.125 59.364 5.62695C58.8367 5.13477 58.157 4.88281 57.3367 4.88281C56.9148 4.88281 56.5398 4.95312 56.2 5.09375C55.8601 5.23438 55.5964 5.39258 55.4207 5.55664C55.239 5.72656 55.0808 5.91992 54.946 6.13672C54.8113 6.35938 54.7292 6.51172 54.7 6.59375C54.6707 6.68164 54.6472 6.75195 54.6355 6.80469L55.7136 7.28516L55.7546 7.16211C55.7839 7.08008 55.8425 6.97461 55.9246 6.85742C56.0066 6.74023 56.1062 6.62891 56.2175 6.51172C56.3289 6.39453 56.4871 6.29492 56.6863 6.21289C56.8855 6.13086 57.1023 6.08398 57.3308 6.08398C57.8054 6.08398 58.1746 6.20703 58.4382 6.45312C58.7019 6.69922 58.8308 7.03906 58.8308 7.46094C58.8308 7.75977 58.7546 8.03516 58.5964 8.28711C58.4441 8.53906 58.239 8.75586 57.9871 8.94336C57.7351 9.13086 57.4597 9.32422 57.155 9.51758C56.8562 9.71094 56.5574 9.92188 56.2527 10.1562C55.948 10.3906 55.6726 10.6484 55.4207 10.9297C55.1687 11.2109 54.9636 11.5684 54.8054 11.9902C54.6531 12.4121 54.571 12.8867 54.571 13.4023H60.155ZM65.3113 7.82422C64.6667 7.82422 64.1863 7.94727 63.8699 8.18164L63.9929 6.20117H67.6492V5H62.7917L62.5515 9.74023H63.5125L63.6707 9.54102C63.7703 9.41211 63.9636 9.2832 64.2449 9.1543C64.5261 9.02539 64.8425 8.96094 65.1941 8.96094C65.6687 8.96094 66.0671 9.125 66.3894 9.44141C66.7058 9.76367 66.8699 10.1621 66.8699 10.6426C66.8699 11.123 66.7058 11.5273 66.3894 11.8438C66.073 12.166 65.6746 12.3242 65.1941 12.3242C64.9187 12.3242 64.655 12.2949 64.4089 12.2246C64.1628 12.1543 63.9636 12.0781 63.8113 11.9961C63.6589 11.9141 63.5125 11.8145 63.3777 11.7031C63.2429 11.5918 63.155 11.5156 63.114 11.4688C63.073 11.4219 63.0437 11.3867 63.032 11.3633L62.1941 12.2012L62.2996 12.3477C62.3816 12.4355 62.4988 12.541 62.6628 12.6699C62.8269 12.7988 63.0203 12.9277 63.2429 13.0566C63.4656 13.1855 63.7527 13.291 64.0984 13.3848C64.4441 13.4785 64.8074 13.5254 65.1941 13.5254C66.0847 13.5254 66.8113 13.2559 67.3621 12.7227C67.9128 12.1836 68.1941 11.4922 68.1941 10.6484C68.1941 9.82812 67.9187 9.1543 67.3796 8.62695C66.8406 8.09375 66.1492 7.82422 65.3113 7.82422Z" fill="#363A45"/>
</svg>
