<svg width="34" height="34" viewBox="0 0 34 34" fill="none" xmlns="http://www.w3.org/2000/svg">
<circle cx="17.3062" cy="16.8281" r="16.5" fill="white"/>
<path d="M18.9539 15.6324C18.5845 15.1152 17.9787 14.7754 17.299 14.7754C16.6194 14.7754 16.0136 15.1152 15.6442 15.6324C15.4078 15.9722 15.26 16.3859 15.26 16.8292C15.26 17.9521 16.1761 18.8682 17.299 18.8682C18.422 18.8682 19.3381 17.9521 19.3381 16.8292C19.3381 16.3859 19.1903 15.9722 18.9539 15.6324Z" fill="#00C65E"/>
<path d="M20.2399 15.6465C20.3877 15.942 20.4763 16.4148 20.4763 16.8285C20.4763 18.572 19.0579 20.0053 17.2996 20.0053C15.5413 20.0053 14.1228 18.5868 14.1228 16.8285C14.1228 16.4 14.2115 15.942 14.3593 15.6465H12.5714V20.3894C12.5714 21.01 13.1181 21.5567 13.7387 21.5567H20.8605C21.4811 21.5567 22.0278 21.01 22.0278 20.3894V15.6465H20.2399Z" fill="#00C65E"/>
<path d="M21.495 12.3663H19.781V14.3315H21.7314V12.6175V12.3516L21.495 12.3663Z" fill="#00C65E"/>
<path d="M21.9383 7.51953H12.6593C10.0884 7.51953 7.99023 9.61766 7.99023 12.1886V21.4824C7.99023 24.0386 10.0884 26.1367 12.6593 26.1367H21.9531C24.5241 26.1367 26.6222 24.0386 26.6222 21.4676V12.1886C26.6074 9.61766 24.5093 7.51953 21.9383 7.51953ZM23.0613 15.6313V20.389C23.0613 21.6302 22.1009 22.5906 20.8597 22.5906H13.7379C12.4968 22.5906 11.5364 21.6302 11.5364 20.389V15.6313V13.2672C11.5364 12.0261 12.4968 11.0657 13.7379 11.0657H20.8597C22.1009 11.0657 23.0613 12.0261 23.0613 13.2672V15.6313Z" fill="#00C65E"/>
</svg>
