<svg width="17" height="18" viewBox="0 0 17 18" fill="none" xmlns="http://www.w3.org/2000/svg">
<g clip-path="url(#clip0_12463_14657)">
<mask id="path-1-inside-1_12463_14657" fill="white">
<path fill-rule="evenodd" clip-rule="evenodd" d="M-0.00146484 4.75549C-0.00146484 4.14193 0.495931 3.64453 1.1095 3.64453H10.8309C11.4445 3.64453 11.9419 4.14193 11.9419 4.75549V6.36941H14.6747C15.1097 6.36941 15.5046 6.62324 15.6853 7.01891L16.8982 9.6751C16.9643 9.81995 16.9985 9.97732 16.9985 10.1366V12.3095C16.9985 12.923 16.5011 13.4204 15.8876 13.4204H11.3896V13.4196H1.1095C0.495932 13.4196 -0.00146484 12.9222 -0.00146484 12.3087V4.75549Z"/>
</mask>
<path d="M11.9419 6.36941H11.2419V7.06941H11.9419V6.36941ZM15.6853 7.01891L15.0485 7.30967L15.6853 7.01891ZM16.8982 9.6751L16.2614 9.96586L16.2614 9.96586L16.8982 9.6751ZM11.3896 13.4204H10.6896V14.1204H11.3896V13.4204ZM11.3896 13.4196H12.0896V12.7196H11.3896V13.4196ZM1.1095 2.94453C0.109331 2.94453 -0.701465 3.75533 -0.701465 4.75549H0.698535C0.698535 4.52853 0.88253 4.34453 1.1095 4.34453V2.94453ZM10.8309 2.94453H1.1095V4.34453H10.8309V2.94453ZM12.6419 4.75549C12.6419 3.75533 11.8311 2.94453 10.8309 2.94453V4.34453C11.0579 4.34453 11.2419 4.52853 11.2419 4.75549H12.6419ZM12.6419 6.36941V4.75549H11.2419V6.36941H12.6419ZM14.6747 5.6694H11.9419V7.06941H14.6747V5.6694ZM16.3221 6.72816C16.0275 6.08318 15.3837 5.6694 14.6747 5.6694V7.06941C14.8356 7.06941 14.9817 7.1633 15.0485 7.30967L16.3221 6.72816ZM17.5349 9.38435L16.3221 6.72816L15.0485 7.30967L16.2614 9.96586L17.5349 9.38435ZM17.6985 10.1366C17.6985 9.877 17.6427 9.62046 17.5349 9.38434L16.2614 9.96586C16.2859 10.0194 16.2985 10.0777 16.2985 10.1366H17.6985ZM17.6985 12.3095V10.1366H16.2985V12.3095H17.6985ZM15.8876 14.1204C16.8877 14.1204 17.6985 13.3096 17.6985 12.3095H16.2985C16.2985 12.5364 16.1145 12.7204 15.8876 12.7204V14.1204ZM11.3896 14.1204H15.8876V12.7204H11.3896V14.1204ZM10.6896 13.4196V13.4204H12.0896V13.4196H10.6896ZM1.1095 14.1196H11.3896V12.7196H1.1095V14.1196ZM-0.701465 12.3087C-0.701465 13.3088 0.109334 14.1196 1.1095 14.1196V12.7196C0.88253 12.7196 0.698535 12.5356 0.698535 12.3087H-0.701465ZM-0.701465 4.75549V12.3087H0.698535V4.75549H-0.701465Z" fill="#363A45" mask="url(#path-1-inside-1_12463_14657)"/>
<path d="M14.4302 7.48438H12.5816C12.4589 7.48438 12.3594 7.58385 12.3594 7.70657V9.78567C12.3594 9.90839 12.4589 10.0079 12.5816 10.0079H15.4568C15.6186 10.0079 15.7262 9.84053 15.659 9.69338L14.7417 7.68455C14.686 7.56261 14.5643 7.48438 14.4302 7.48438Z" fill="#00C65E"/>
<path d="M12.2971 11.4316C11.4713 11.4318 10.802 12.1019 10.802 12.9277C10.8021 13.7534 11.4714 14.4227 12.2971 14.4229C13.1229 14.4229 13.7931 13.7535 13.7932 12.9277C13.7932 12.1018 13.123 11.4316 12.2971 11.4316Z" fill="white" stroke="#363A45" stroke-width="0.7"/>
<path d="M12.2982 13.8513C11.7886 13.8513 11.3755 13.4382 11.3755 12.9286C11.3755 12.419 11.7886 12.0059 12.2982 12.0059C12.8078 12.0059 13.2209 12.419 13.2209 12.9286C13.2209 13.4382 12.8078 13.8513 12.2982 13.8513Z" fill="#00C65E"/>
<path d="M4.69971 11.4316C3.87391 11.4318 3.20459 12.1019 3.20459 12.9277C3.20473 13.7534 3.87399 14.4227 4.69971 14.4229C5.52554 14.4229 6.19566 13.7535 6.1958 12.9277C6.1958 12.1018 5.52562 11.4316 4.69971 11.4316Z" fill="white" stroke="#363A45" stroke-width="0.7"/>
<path d="M4.70081 13.8513C4.1912 13.8513 3.77809 13.4382 3.77809 12.9286C3.77809 12.419 4.1912 12.0059 4.70081 12.0059C5.21042 12.0059 5.62354 12.419 5.62354 12.9286C5.62354 13.4382 5.21042 13.8513 4.70081 13.8513Z" fill="#00C65E"/>
</g>
<defs>
<clipPath id="clip0_12463_14657">
<rect width="17" height="17" fill="white" transform="translate(-0.00146484 0.707031)"/>
</clipPath>
</defs>
</svg>
