<svg width="17" height="18" viewBox="0 0 17 18" fill="none" xmlns="http://www.w3.org/2000/svg">
<path fill-rule="evenodd" clip-rule="evenodd" d="M0.42417 0.927734C0.203256 0.927734 0.0241699 1.10682 0.0241699 1.32773C0.0241699 1.54865 0.203256 1.72773 0.42417 1.72773H0.936517C1.6544 1.72773 2.28441 2.20588 2.47753 2.8973L4.71976 10.9248C4.72441 10.9414 4.73005 10.9575 4.7366 10.9731L4.98761 11.8989C5.15301 12.509 5.70672 12.9326 6.33883 12.9326H14.0037C14.6359 12.9326 15.1896 12.509 15.355 11.8989L16.9426 6.04285C17.1839 5.15274 16.5136 4.27652 15.5914 4.27652H3.6934L3.24804 2.68208C2.95835 1.64496 2.01334 0.927734 0.936517 0.927734H0.42417ZM5.75974 11.6896L3.96687 5.07652H15.5914C15.9866 5.07652 16.2739 5.45204 16.1705 5.83352L14.5828 11.6896C14.512 11.9511 14.2747 12.1326 14.0037 12.1326H6.33883C6.06793 12.1326 5.83063 11.9511 5.75974 11.6896Z" fill="#363A45"/>
<path d="M7.27466 14.6562C8.06205 14.6562 8.70018 15.2934 8.70044 16.0791C8.70044 16.8651 8.06222 17.5029 7.27466 17.5029C6.48719 17.5028 5.84985 16.865 5.84985 16.0791C5.85011 15.2934 6.48735 14.6563 7.27466 14.6562Z" stroke="#363A45" stroke-width="0.8"/>
<path d="M13.0671 14.6562C13.8545 14.6562 14.4927 15.2934 14.4929 16.0791C14.4929 16.8651 13.8547 17.5029 13.0671 17.5029C12.2797 17.5028 11.6423 16.865 11.6423 16.0791C11.6426 15.2934 12.2798 14.6564 13.0671 14.6562Z" stroke="#363A45" stroke-width="0.8"/>
</svg>
