<svg width="11" height="11" viewBox="0 0 11 11" fill="none" xmlns="http://www.w3.org/2000/svg">
<mask id="path-1-inside-1_12463_14678" fill="white">
<path fill-rule="evenodd" clip-rule="evenodd" d="M8.05377 7.45798C8.7134 6.60723 9.02427 5.53704 8.92315 4.46513C8.82203 3.39322 8.31651 2.40011 7.50943 1.68783C6.70235 0.975562 5.65434 0.597633 4.57861 0.630934C3.50288 0.664235 2.48024 1.10626 1.71873 1.86709C0.956553 2.62845 0.513255 3.6519 0.479172 4.72888C0.445089 5.80585 0.822786 6.8553 1.53529 7.66337C2.2478 8.47143 3.2415 8.9773 4.31388 9.07787C5.38627 9.17845 6.45663 8.86616 7.30685 8.20466L7.3296 8.22848L9.57353 10.4738C9.62267 10.523 9.68102 10.562 9.74523 10.5886C9.80945 10.6152 9.87827 10.6289 9.94778 10.6289C10.0173 10.6289 10.0861 10.6152 10.1503 10.5886C10.2145 10.562 10.2729 10.523 10.322 10.4738C10.3712 10.4247 10.4102 10.3663 10.4368 10.302C10.4634 10.2378 10.4771 10.169 10.4771 10.0994C10.4771 10.0299 10.4634 9.96104 10.4368 9.8968C10.4102 9.83256 10.3712 9.77419 10.322 9.72502L8.07758 7.4802C8.06985 7.47258 8.06191 7.46516 8.05377 7.45798ZM6.95561 2.6159C7.25427 2.90985 7.4918 3.26005 7.6545 3.6463C7.81719 4.03255 7.90184 4.4472 7.90354 4.86634C7.90525 5.28547 7.82398 5.7008 7.66444 6.08836C7.50489 6.47592 7.27022 6.82805 6.97396 7.12442C6.6777 7.4208 6.32572 7.65556 5.93831 7.81517C5.55091 7.97478 5.13575 8.05608 4.71677 8.05437C4.29781 8.05267 3.88332 7.96799 3.49722 7.80523C3.11113 7.64247 2.76107 7.40485 2.46723 7.10607C1.88002 6.50898 1.55245 5.70395 1.55586 4.86634C1.55927 4.02872 1.89338 3.22639 2.48543 2.63411C3.07748 2.04182 3.8795 1.70757 4.71677 1.70416C5.55405 1.70075 6.35876 2.02845 6.95561 2.6159Z"/>
</mask>
<path fill-rule="evenodd" clip-rule="evenodd" d="M8.05377 7.45798C8.7134 6.60723 9.02427 5.53704 8.92315 4.46513C8.82203 3.39322 8.31651 2.40011 7.50943 1.68783C6.70235 0.975562 5.65434 0.597633 4.57861 0.630934C3.50288 0.664235 2.48024 1.10626 1.71873 1.86709C0.956553 2.62845 0.513255 3.6519 0.479172 4.72888C0.445089 5.80585 0.822786 6.8553 1.53529 7.66337C2.2478 8.47143 3.2415 8.9773 4.31388 9.07787C5.38627 9.17845 6.45663 8.86616 7.30685 8.20466L7.3296 8.22848L9.57353 10.4738C9.62267 10.523 9.68102 10.562 9.74523 10.5886C9.80945 10.6152 9.87827 10.6289 9.94778 10.6289C10.0173 10.6289 10.0861 10.6152 10.1503 10.5886C10.2145 10.562 10.2729 10.523 10.322 10.4738C10.3712 10.4247 10.4102 10.3663 10.4368 10.302C10.4634 10.2378 10.4771 10.169 10.4771 10.0994C10.4771 10.0299 10.4634 9.96104 10.4368 9.8968C10.4102 9.83256 10.3712 9.77419 10.322 9.72502L8.07758 7.4802C8.06985 7.47258 8.06191 7.46516 8.05377 7.45798ZM6.95561 2.6159C7.25427 2.90985 7.4918 3.26005 7.6545 3.6463C7.81719 4.03255 7.90184 4.4472 7.90354 4.86634C7.90525 5.28547 7.82398 5.7008 7.66444 6.08836C7.50489 6.47592 7.27022 6.82805 6.97396 7.12442C6.6777 7.4208 6.32572 7.65556 5.93831 7.81517C5.55091 7.97478 5.13575 8.05608 4.71677 8.05437C4.29781 8.05267 3.88332 7.96799 3.49722 7.80523C3.11113 7.64247 2.76107 7.40485 2.46723 7.10607C1.88002 6.50898 1.55245 5.70395 1.55586 4.86634C1.55927 4.02872 1.89338 3.22639 2.48543 2.63411C3.07748 2.04182 3.8795 1.70757 4.71677 1.70416C5.55405 1.70075 6.35876 2.02845 6.95561 2.6159Z" fill="#363A45"/>
<path d="M1.71873 1.86709L3.13218 3.28207L3.13231 3.28194L1.71873 1.86709ZM7.30685 8.20466L8.75309 6.82322L7.50493 5.51651L6.07872 6.62615L7.30685 8.20466ZM7.3296 8.22848L5.88336 9.60992L5.89897 9.62626L5.91494 9.64224L7.3296 8.22848ZM9.57353 10.4738L8.15886 11.8876L8.15903 11.8878L9.57353 10.4738ZM10.4771 10.0994H12.4771H10.4771ZM10.322 9.72502L11.7365 8.31109L11.7364 8.31092L10.322 9.72502ZM8.07758 7.4802L9.49194 6.06607L9.4823 6.05656L8.07758 7.4802ZM6.95561 2.6159L8.35855 1.19049V1.19049L6.95561 2.6159ZM2.46723 7.10607L1.04127 8.50843H1.04127L2.46723 7.10607ZM9.63434 8.68346C10.6055 7.43085 11.0632 5.85529 10.9143 4.27729L6.93199 4.65297C6.98537 5.21879 6.82125 5.7836 6.47321 6.23249L9.63434 8.68346ZM10.9143 4.27729C10.7654 2.69928 10.0212 1.2371 8.83282 0.188292L6.18603 3.18738C6.61178 3.56311 6.87861 4.08716 6.93199 4.65297L10.9143 4.27729ZM8.83282 0.188292C7.64439 -0.860537 6.10104 -1.41715 4.51673 -1.36811L4.6405 2.62998C5.20765 2.61242 5.76031 2.81166 6.18603 3.18738L8.83282 0.188292ZM4.51673 -1.36811C2.93242 -1.31906 1.42645 -0.668054 0.305148 0.452248L3.13231 3.28194C3.53403 2.88058 4.07335 2.64753 4.6405 2.62998L4.51673 -1.36811ZM0.305273 0.452122C-0.81703 1.57322 -1.46965 3.08009 -1.51983 4.66561L2.47817 4.79214C2.49616 4.22371 2.73014 3.68368 3.13218 3.28207L0.305273 0.452122ZM-1.51983 4.66561C-1.57 6.25113 -1.01397 7.79626 0.0351664 8.9861L3.03542 6.34064C2.65954 5.91435 2.46018 5.36057 2.47817 4.79214L-1.51983 4.66561ZM0.0351664 8.9861C1.08433 10.176 2.54769 10.921 4.12713 11.0691L4.50063 7.08661C3.9353 7.03359 3.41128 6.7669 3.03542 6.34064L0.0351664 8.9861ZM4.12713 11.0691C5.70657 11.2173 7.28294 10.7573 8.53499 9.78317L6.07872 6.62615C5.63032 6.97502 5.06596 7.13963 4.50063 7.08661L4.12713 11.0691ZM5.86062 9.58611L5.88336 9.60992L8.77584 6.84703L8.75309 6.82322L5.86062 9.58611ZM5.91494 9.64224L8.15886 11.8876L10.9882 9.06006L8.74426 6.81471L5.91494 9.64224ZM8.15903 11.8878C8.39385 12.1227 8.67268 12.3091 8.97961 12.4363L10.5109 8.74095C10.6894 8.81492 10.8515 8.92331 10.988 9.05989L8.15903 11.8878ZM8.97961 12.4363C9.28654 12.5634 9.61552 12.6289 9.94778 12.6289V8.62891C10.141 8.62891 10.3324 8.66698 10.5109 8.74095L8.97961 12.4363ZM9.94778 12.6289C10.28 12.6289 10.609 12.5634 10.9159 12.4363L9.38469 8.74095C9.5632 8.66698 9.75453 8.62891 9.94778 8.62891V12.6289ZM10.9159 12.4363C11.2229 12.3091 11.5017 12.1227 11.7365 11.8878L8.90753 9.05989C9.04406 8.92331 9.20619 8.81492 9.38469 8.74095L10.9159 12.4363ZM11.7365 11.8878C11.9714 11.6528 12.1576 11.374 12.2846 11.0672L8.58889 9.53694C8.66274 9.3586 8.771 9.19649 8.90753 9.05989L11.7365 11.8878ZM12.2846 11.0672C12.4117 10.7603 12.4771 10.4315 12.4771 10.0994H8.47705C8.47705 9.90641 8.51505 9.71528 8.58889 9.53694L12.2846 11.0672ZM12.4771 10.0994C12.4771 9.76734 12.4117 9.43851 12.2846 9.13169L8.58889 10.6619C8.51505 10.4836 8.47705 10.2924 8.47705 10.0994H12.4771ZM12.2846 9.13169C12.1576 8.82487 11.9714 8.54602 11.7365 8.31109L8.90753 11.139C8.771 11.0024 8.66274 10.8402 8.58889 10.6619L12.2846 9.13169ZM11.7364 8.31092L9.4919 6.0661L6.66325 8.8943L8.9077 11.1391L11.7364 8.31092ZM9.4823 6.05656C9.44841 6.02313 9.41359 5.99061 9.37786 5.95905L6.72968 8.9569C6.71023 8.93972 6.69128 8.92202 6.67285 8.90384L9.4823 6.05656ZM5.55268 4.0413C5.66318 4.15006 5.7511 4.27966 5.81134 4.42268L9.49766 2.86992C9.23251 2.24044 8.84537 1.66964 8.35855 1.19049L5.55268 4.0413ZM5.81134 4.42268C5.87158 4.56569 5.90293 4.71924 5.90356 4.87448L9.90353 4.8582C9.90075 4.17516 9.76281 3.49941 9.49766 2.86992L5.81134 4.42268ZM5.90356 4.87448C5.90419 5.02971 5.87409 5.18352 5.81502 5.32702L9.51386 6.84971C9.77388 6.21808 9.90631 5.54124 9.90353 4.8582L5.90356 4.87448ZM5.81502 5.32702C5.75595 5.47051 5.66908 5.60084 5.55947 5.71049L8.38846 8.53836C8.87137 8.05526 9.25384 7.48133 9.51386 6.84971L5.81502 5.32702ZM5.55947 5.71049C5.44986 5.82014 5.31968 5.90696 5.17645 5.96597L6.70018 9.66438C7.33176 9.40417 7.90555 9.02146 8.38846 8.53836L5.55947 5.71049ZM5.17645 5.96597C5.03323 6.02498 4.87977 6.05502 4.72492 6.05439L4.70863 10.0544C5.39172 10.0571 6.06859 9.92459 6.70018 9.66438L5.17645 5.96597ZM4.72492 6.05439C4.57008 6.05376 4.41687 6.02246 4.27413 5.96229L2.72032 9.64817C3.34977 9.91352 4.02553 10.0516 4.70863 10.0544L4.72492 6.05439ZM4.27413 5.96229C4.13138 5.90212 4.00191 5.81424 3.89319 5.7037L1.04127 8.50843C1.52023 8.99545 2.09088 9.38282 2.72032 9.64817L4.27413 5.96229ZM3.89319 5.7037C3.67592 5.48277 3.55458 5.18474 3.55584 4.87448L-0.444128 4.8582C-0.449683 6.22316 0.0841243 7.53518 1.04127 8.50843L3.89319 5.7037ZM3.55584 4.87448C3.5571 4.56422 3.68087 4.26718 3.89993 4.04804L1.07094 1.22017C0.105899 2.1856 -0.438572 3.49323 -0.444128 4.8582L3.55584 4.87448ZM3.89993 4.04804C4.11896 3.82892 4.41551 3.7054 4.72492 3.70414L4.70863 -0.295826C3.34349 -0.290265 2.03601 0.254723 1.07094 1.22017L3.89993 4.04804ZM4.72492 3.70414C5.03434 3.70288 5.33187 3.82398 5.55268 4.0413L8.35855 1.19049C7.38565 0.232932 6.07377 -0.301387 4.70863 -0.295826L4.72492 3.70414Z" fill="#363A45" mask="url(#path-1-inside-1_12463_14678)"/>
</svg>
