<svg width="33" height="34" viewBox="0 0 33 34" fill="none" xmlns="http://www.w3.org/2000/svg">
<circle cx="16.5093" cy="16.8281" r="16.5" fill="white"/>
<path fill-rule="evenodd" clip-rule="evenodd" d="M11.8556 7.51953C9.28509 7.51953 7.20129 9.60333 7.20129 12.1738V21.4824C7.20129 24.0529 9.28509 26.1367 11.8556 26.1367H21.1642C23.7347 26.1367 25.8185 24.0529 25.8185 21.4824V12.1738C25.8185 9.60333 23.7347 7.51953 21.1642 7.51953H11.8556ZM22.0189 13.1435C22.4295 13.1435 22.5158 13.3549 22.4295 13.6424V13.6425C22.2569 14.4336 20.603 16.7634 20.603 16.7634C20.4591 16.9934 20.4016 17.1084 20.603 17.3673C20.6739 17.4666 20.8251 17.6147 20.9982 17.7843C21.1762 17.9587 21.3773 18.1557 21.5378 18.3453C22.1209 19.0014 22.5604 19.5547 22.6827 19.9361C22.7946 20.3188 22.6007 20.5128 22.2128 20.5128H20.8553C20.4918 20.5128 20.3087 20.3091 19.9133 19.8692C19.7456 19.6826 19.5396 19.4535 19.2655 19.1794C18.46 18.4028 18.1149 18.3022 17.9134 18.3022C17.6403 18.3022 17.5585 18.3796 17.5585 18.7674V19.9848C17.5585 20.3188 17.4519 20.5128 16.5889 20.5128C15.1507 20.5128 13.5704 19.6395 12.4485 18.0289C10.7659 15.6704 10.3056 13.887 10.3056 13.5274C10.3056 13.3261 10.3832 13.1435 10.771 13.1435H12.1285C12.4755 13.1435 12.606 13.2953 12.7361 13.6712C13.4001 15.6052 14.5195 17.2955 14.9797 17.2955C15.1523 17.2955 15.2314 17.216 15.2314 16.7777V14.7786C15.2002 14.2096 15.0015 13.9635 14.8543 13.7813C14.7633 13.6687 14.6921 13.5804 14.6921 13.4555C14.6921 13.3037 14.8218 13.1435 15.0375 13.1435H17.1707C17.4584 13.1435 17.5585 13.2973 17.5585 13.6424V16.3319C17.5585 16.6195 17.6834 16.72 17.7697 16.72C17.9423 16.72 18.0861 16.6195 18.4025 16.3031C19.3805 15.2101 20.0709 13.5274 20.0709 13.5274C20.1572 13.3261 20.3162 13.1435 20.6614 13.1435H22.0189Z" fill="#00C65E"/>
</svg>
